<?xml version="1.0" encoding="UTF-8"?>
<svg id="oreo" xmlns="http://www.w3.org/2000/svg" viewBox="0 0 160 160">
  <defs>
    <style>
      .cls-1 {
        fill: #fff;
      }

      .cls-2 {
        fill: #4259bd;
      }

      .cls-3 {
        fill: #faf9f2;
      }
    </style>
  </defs>
  <path class="cls-2" d="M68.43,85.44c.15.94.23,1.62.23,2.02,0,3.12-1.27,5.29-3.82,6.52-.98.58-1.85.86-2.58.86-1.31,0-4.56-.86-9.73-2.59-6.32-2.05-11.04-3.86-14.16-5.42-2.95-1.39-4.97-2.09-6.03-2.09-.9,0-1.35.41-1.35,1.23,0,.99-1.03,2.28-3.08,3.88-2.05,1.6-3.74,2.4-5.05,2.4-1.64,0-3.12-.74-4.43-2.22,0,0-.01-.01-.02-.02.31,1.01.79,1.85,1.45,2.51,1.31,1.48,2.79,2.22,4.43,2.22,1.31,0,2.99-.8,5.05-2.4,2.05-1.6,3.08-2.89,3.08-3.88,0-.82.45-1.23,1.35-1.23,1.07,0,3.08.7,6.03,2.09,3.12,1.56,7.84,3.37,14.16,5.42,5.17,1.72,8.41,2.59,9.73,2.59.74,0,1.6-.29,2.58-.86,2.54-1.23,3.82-3.4,3.82-6.52,0-.41-.08-1.11-.25-2.09-.18-.86-.66-1.66-1.42-2.41Z"/>
  <path class="cls-2" d="M144.08,68.22c-.83-3.21-1.9-5.73-3.22-7.59.68,1.45,1.28,3.14,1.79,5.1,1.07,4.15,1.6,8.72,1.6,13.73s-.62,10.05-1.85,14.65c-1.72,6.32-4.12,11.2-7.2,14.65-3.08,3.45-6.46,5.17-10.16,5.17-2.54,0-5.09-.86-7.63-2.58-1.48-.99-3.82-3.32-7.02-7.02-1.07-1.31-2.15-2.48-3.26-3.51-1.11-1.03-1.83-1.54-2.15-1.54-1.48,0-4.31,3.78-8.49,11.33-3.61,6.48-7.35,10.09-11.2,10.83-.98.17-1.72.25-2.22.25-2.49,0-4.65-1.29-6.48-3.84.09.22.18.45.28.67,2.05,3.78,4.6,5.66,7.63,5.66.49,0,1.23-.08,2.22-.25,3.86-.74,7.59-4.35,11.2-10.83,4.19-7.55,7.02-11.33,8.49-11.33.33,0,1.05.51,2.15,1.54,1.11,1.03,2.19,2.2,3.26,3.51,3.2,3.69,5.54,6.03,7.02,7.02,2.54,1.72,5.09,2.58,7.63,2.58,3.69,0,7.08-1.72,10.16-5.17,3.08-3.45,5.48-8.33,7.2-14.65,1.23-4.6,1.85-9.48,1.85-14.65s-.54-9.58-1.6-13.73Z"/>
  <path class="cls-1" d="M22.87,92.26c1.31,0,3-.8,5.05-2.4,2.05-1.6,3.08-2.89,3.08-3.88,0-.82.45-1.23,1.35-1.23,1.07,0,3.08.7,6.03,2.09,3.12,1.56,7.84,3.37,14.16,5.42,5.17,1.72,8.41,2.59,9.73,2.59.74,0,1.6-.29,2.58-.86,2.54-1.23,3.82-3.4,3.82-6.52,0-.4-.08-1.07-.23-2.02,0-.03,0-.05-.01-.08-.23-1.11-.96-2.13-2.15-3.05.05.14.09.28.12.43.16.99.25,1.68.25,2.09,0,3.12-1.27,5.29-3.82,6.52-.98.58-1.85.86-2.58.86-1.31,0-4.56-.86-9.73-2.59-6.32-2.05-11.04-3.86-14.16-5.42-2.95-1.39-4.97-2.09-6.03-2.09-.9,0-1.35.41-1.35,1.23,0,.99-1.03,2.28-3.08,3.88-2.05,1.6-3.74,2.4-5.05,2.4s-2.49-.47-3.59-1.4c.29.69.68,1.29,1.17,1.79,0,0,.01.01.02.02,1.31,1.48,2.79,2.22,4.43,2.22Z"/>
  <path class="cls-1" d="M28.97,43.09c0,.25-.02.62-.06,1.11-.04.49-.06.9-.06,1.23-.08.58-.12,1.35-.12,2.34,0,2.05.16,3.24.49,3.57.08.08.16.12.25.12.3,0,.73-.1,1.3-.29,0-.24,0-.5,0-.77,0-.98.04-1.76.12-2.34,0-.33.02-.74.06-1.23.04-.49.06-.86.06-1.11,0-.97-.13-1.85-.39-2.65-.31-.96-.79-1.8-1.46-2.52-.25-.27-.52-.5-.8-.72.41.95.61,2.04.61,3.26Z"/>
  <path class="cls-1" d="M58.88,43.59c0,.49-.08,1.23-.25,2.22-.9,4.76-6.03,9.93-15.39,15.51-5.75,3.37-8.62,5.13-8.62,5.29,0,.3,1,.95,2.97,1.94,1.27-.82,3.82-2.35,7.68-4.61,9.36-5.58,14.48-10.75,15.39-15.51.16-.98.25-1.72.25-2.22,0-1.04-.15-1.99-.44-2.86-.35-1.04-.89-1.96-1.65-2.74-.21-.22-.43-.41-.66-.6.47,1.05.72,2.23.72,3.57Z"/>
  <path class="cls-3" d="M125.71,67.62s-.02-.03-.03-.05c.01.02.02.03.03.05Z"/>
  <path class="cls-3" d="M84.73,81.38l.49,12.8,1.96-2.47-.3-7.7c-.25-6.07-.51-9.85-.8-11.33-.06-.32-.15-.62-.25-.92-.36-1.09-.95-2.06-1.78-2.89-.26-.26-.52-.49-.78-.7.29.59.52,1.22.65,1.89.29,1.48.55,5.25.8,11.33Z"/>
  <path class="cls-3" d="M83.07,121.68c.49,0,1.23-.08,2.22-.25,3.86-.74,7.59-4.35,11.2-10.83,4.19-7.55,7.02-11.33,8.49-11.33.33,0,1.05.51,2.15,1.54,1.11,1.03,2.19,2.2,3.26,3.51,3.2,3.69,5.54,6.03,7.02,7.02,2.54,1.72,5.09,2.58,7.63,2.58,3.69,0,7.08-1.72,10.16-5.17,3.08-3.45,5.48-8.33,7.2-14.65,1.23-4.6,1.85-9.48,1.85-14.65s-.54-9.58-1.6-13.73c-.5-1.95-1.1-3.65-1.79-5.1-.77-1.63-1.65-2.95-2.65-3.95-.12-.12-.26-.2-.39-.31,1.06,1.75,1.95,3.99,2.66,6.73,1.07,4.14,1.6,8.72,1.6,13.73s-.62,10.05-1.85,14.65c-1.72,6.32-4.12,11.2-7.2,14.65-3.08,3.45-6.46,5.17-10.16,5.17-2.54,0-5.09-.86-7.63-2.58-1.48-.99-3.82-3.32-7.02-7.02-1.07-1.31-2.15-2.48-3.26-3.51-1.11-1.03-1.83-1.54-2.15-1.54-1.48,0-4.31,3.78-8.49,11.33-3.61,6.48-7.35,10.09-11.2,10.83-.98.17-1.72.25-2.22.25-1.78,0-3.4-.67-4.84-1.97.17.27.35.52.52.76,1.83,2.55,3.98,3.84,6.48,3.84Z"/>
  <path class="cls-2" d="M20.84,89.63c1.31,0,2.99-.8,5.05-2.4,2.05-1.6,3.08-2.89,3.08-3.88,0-.82.45-1.23,1.35-1.23,1.07,0,3.08.7,6.03,2.09,3.12,1.56,7.84,3.37,14.16,5.42,5.17,1.72,8.41,2.59,9.73,2.59.74,0,1.6-.29,2.58-.86,2.54-1.23,3.82-3.4,3.82-6.52,0-.41-.08-1.11-.25-2.09-.03-.14-.08-.29-.12-.43-.46-1.38-1.68-2.62-3.69-3.7-2.22-1.19-6.2-2.73-11.94-4.62-3.18-1.09-6.5-2.42-9.94-3.99,1.42-.87,3.42-2.06,6.02-3.58,9.36-5.58,14.48-10.75,15.39-15.51.16-.98.25-1.72.25-2.22,0-2.17-.63-3.95-1.87-5.35.29.87.44,1.82.44,2.86,0,.49-.08,1.23-.25,2.22-.9,4.76-6.03,9.93-15.39,15.51-3.85,2.26-6.41,3.79-7.68,4.61-1.98-.99-2.97-1.64-2.97-1.94,0-.16,2.87-1.93,8.62-5.29,9.36-5.58,14.48-10.75,15.39-15.51.16-.98.25-1.72.25-2.22,0-1.34-.24-2.53-.72-3.57-.34-.75-.79-1.43-1.38-2.03-1.4-1.43-3.04-2.15-4.92-2.15-3.04,0-5.46,1.64-7.26,4.92-1.15,2.3-2.59,4.06-4.31,5.29-1.64,1.23-3.67,2.44-6.09,3.63-.71.35-1.33.64-1.89.88,0,0,0,0,0-.01,0-.33.02-.74.06-1.23.04-.49.06-.86.06-1.11,0-2.12-.61-3.83-1.82-5.14.25.8.39,1.68.39,2.65,0,.25-.02.62-.06,1.11-.04.49-.06.9-.06,1.23-.08.58-.12,1.35-.12,2.34,0,.27,0,.53,0,.77-.57.19-1,.29-1.3.29-.08,0-.17-.04-.25-.12-.33-.33-.49-1.52-.49-3.57,0-.98.04-1.76.12-2.34,0-.33.02-.74.06-1.23.04-.49.06-.86.06-1.11,0-1.22-.21-2.31-.61-3.26-.3-.71-.71-1.35-1.23-1.91-1.31-1.39-2.95-2.09-4.92-2.09-2.13,0-3.98.82-5.54,2.46-1.15,1.23-1.83,2.94-2.03,5.11-.21,2.18-.31,8.72-.31,19.64v8.99c0,6.24.12,10.14.37,11.7.25,1.56.82,2.79,1.72,3.69.27.31.56.58.84.82,1.09.93,2.29,1.4,3.59,1.4Z"/>
  <path class="cls-2" d="M80.91,119.05c.49,0,1.23-.08,2.22-.25,3.86-.74,7.59-4.35,11.2-10.83,4.19-7.55,7.02-11.33,8.49-11.33.33,0,1.05.51,2.15,1.54,1.11,1.03,2.19,2.2,3.26,3.51,3.2,3.69,5.54,6.03,7.02,7.02,2.54,1.72,5.09,2.58,7.63,2.58,3.69,0,7.08-1.72,10.16-5.17,3.08-3.45,5.48-8.33,7.2-14.65,1.23-4.6,1.85-9.48,1.85-14.65s-.54-9.58-1.6-13.73c-.71-2.74-1.59-4.97-2.66-6.73-.55-.9-1.13-1.68-1.77-2.32-1.07-1.07-2.55-1.6-4.43-1.6-2.38,0-4.51.82-6.4,2.46-2.05,1.81-3.08,3.78-3.08,5.91,0,1.97.82,3.78,2.46,5.42.39.39.75.84,1.06,1.34.01.02.02.03.03.05.99,1.57,1.61,3.65,1.86,6.25.08.66.12,1.72.12,3.2,0,4.1-.58,8.17-1.72,12.19-1.15,4.02-2.34,6.03-3.57,6.03-.08,0-.17-.04-.25-.12h-.12c-.74-.25-2.83-2.5-6.28-6.77-4.02-4.84-6.65-7.82-7.88-8.92-1.23-1.11-2.63-1.66-4.19-1.66-2.3,0-4.27.6-5.91,1.79-1.64,1.19-3.94,3.67-6.89,7.45l-2.42,3.06-.14-3.6c-.25-6.07-.51-9.85-.8-11.33-.25-1.3-.83-2.43-1.68-3.41.1.3.19.6.25.92.29,1.48.55,5.25.8,11.33l.3,7.7-1.96,2.47-.49-12.8c-.25-6.07-.51-9.85-.8-11.33-.13-.68-.36-1.3-.65-1.89-.35-.7-.8-1.35-1.38-1.92-1.72-1.72-3.61-2.59-5.66-2.59h-1.48c-1.81.17-3,.98-3.57,2.46-.58,1.48-.86,4.84-.86,10.09,0,1.4.08,5.54.25,12.43.33,9.44.63,15.45.92,18.04.29,2.59.88,4.82,1.79,6.71.85,1.56,1.78,2.77,2.79,3.69,1.44,1.3,3.05,1.97,4.84,1.97Z"/>
</svg>