<?xml version="1.0" encoding="UTF-8"?>
<svg xmlns="http://www.w3.org/2000/svg" viewBox="0 0 136.45 84.71">
  <defs>
    <style>
      .cls-1 {
        fill: #e0a151;
      }

      .cls-2 {
        fill: #3e2723;
      }
    </style>
  </defs>
  <g id="Blue">
    <g>
      <path class="cls-1" d="M5.8,6.44c1.51-1.59,3.3-2.39,5.37-2.39,1.91,0,3.5.68,4.77,2.03,1.19,1.27,1.79,2.94,1.79,5.01,0,.24-.02.6-.06,1.07-.04.48-.06.88-.06,1.19-.08.56-.12,1.31-.12,2.27,0,1.99.16,3.14.48,3.46.08.08.16.12.24.12.72,0,2.25-.58,4.59-1.73,2.35-1.15,4.31-2.33,5.91-3.52,1.67-1.19,3.06-2.9,4.18-5.13,1.75-3.18,4.1-4.77,7.04-4.77,1.83,0,3.42.7,4.77,2.09,1.35,1.39,2.03,3.2,2.03,5.43,0,.48-.08,1.19-.24,2.15-.88,4.61-5.85,9.63-14.91,15.03-5.57,3.26-8.35,4.97-8.35,5.13,0,.4,1.77,1.41,5.31,3.04,3.54,1.63,6.94,3,10.2,4.12,5.57,1.83,9.43,3.32,11.57,4.47,2.15,1.15,3.38,2.49,3.7,4,.16.96.24,1.63.24,2.03,0,3.02-1.23,5.13-3.7,6.32-.95.56-1.79.83-2.51.83-1.27,0-4.41-.83-9.43-2.51-6.13-1.99-10.7-3.74-13.72-5.25-2.86-1.35-4.81-2.03-5.85-2.03-.88,0-1.31.4-1.31,1.19,0,.95-1,2.21-2.98,3.76-1.99,1.55-3.62,2.33-4.89,2.33-1.59,0-3.02-.72-4.3-2.15-.88-.87-1.43-2.07-1.67-3.58-.24-1.51-.36-5.29-.36-11.34v-8.71c0-10.58.1-16.92.3-19.03.2-2.11.85-3.76,1.97-4.95Z"/>
      <path class="cls-1" d="M120.1,22.55c1.83-1.59,3.9-2.39,6.2-2.39,1.83,0,3.26.52,4.3,1.55,1.83,1.83,3.26,4.75,4.29,8.77,1.03,4.02,1.55,8.45,1.55,13.3s-.6,9.75-1.79,14.2c-1.67,6.13-4,10.86-6.98,14.2-2.98,3.34-6.26,5.01-9.84,5.01-2.47,0-4.93-.84-7.4-2.51-1.43-.96-3.7-3.22-6.8-6.8-1.03-1.27-2.09-2.41-3.16-3.4-1.07-.99-1.77-1.49-2.09-1.49-1.43,0-4.18,3.66-8.23,10.98-3.5,6.28-7.12,9.78-10.86,10.5-.95.16-1.67.24-2.15.24-2.94,0-5.41-1.83-7.4-5.49-.88-1.83-1.45-4-1.73-6.5-.28-2.51-.58-8.33-.89-17.48-.16-6.68-.24-10.7-.24-12.05,0-5.09.28-8.35.84-9.78.55-1.43,1.71-2.23,3.46-2.39h1.43c1.99,0,3.82.83,5.49,2.51,1.03,1.03,1.69,2.27,1.97,3.7.28,1.43.54,5.09.78,10.98l.48,12.41,5.49-6.92c2.86-3.66,5.09-6.06,6.68-7.22,1.59-1.15,3.5-1.73,5.73-1.73,1.51,0,2.86.54,4.06,1.61,1.19,1.07,3.74,3.96,7.64,8.65,3.34,4.14,5.37,6.32,6.09,6.56h.12c.08.08.16.12.24.12,1.19,0,2.35-1.95,3.46-5.85,1.11-3.9,1.67-7.83,1.67-11.81,0-1.43-.04-2.46-.12-3.1-.32-3.34-1.27-5.81-2.86-7.4-1.59-1.59-2.39-3.34-2.39-5.25,0-2.07.99-3.98,2.98-5.73Z"/>
    </g>
  </g>
  <g id="Brown">
    <g>
      <path class="cls-2" d="M2.27,2.39C3.78.8,5.57,0,7.64,0c1.91,0,3.5.68,4.77,2.03,1.19,1.27,1.79,2.94,1.79,5.01,0,.24-.02.6-.06,1.07-.04.48-.06.88-.06,1.19-.08.56-.12,1.31-.12,2.27,0,1.99.16,3.14.48,3.46.08.08.16.12.24.12.72,0,2.25-.58,4.59-1.73,2.35-1.15,4.31-2.33,5.91-3.52,1.67-1.19,3.06-2.9,4.18-5.13,1.75-3.18,4.1-4.77,7.04-4.77,1.83,0,3.42.7,4.77,2.09,1.35,1.39,2.03,3.2,2.03,5.43,0,.48-.08,1.19-.24,2.15-.88,4.61-5.85,9.63-14.91,15.03-5.57,3.26-8.35,4.97-8.35,5.13,0,.4,1.77,1.41,5.31,3.04,3.54,1.63,6.94,3,10.2,4.12,5.57,1.83,9.43,3.32,11.57,4.47,2.15,1.15,3.38,2.49,3.7,4,.16.96.24,1.63.24,2.03,0,3.02-1.23,5.13-3.7,6.32-.95.56-1.79.83-2.51.83-1.27,0-4.41-.83-9.43-2.51-6.13-1.99-10.7-3.74-13.72-5.25-2.86-1.35-4.81-2.03-5.85-2.03-.88,0-1.31.4-1.31,1.19,0,.95-1,2.21-2.98,3.76-1.99,1.55-3.62,2.33-4.89,2.33-1.59,0-3.02-.72-4.3-2.15-.88-.87-1.43-2.07-1.67-3.58-.24-1.51-.36-5.29-.36-11.34v-8.71C0,15.79.1,9.45.3,7.34c.2-2.11.85-3.76,1.97-4.95Z"/>
      <path class="cls-2" d="M116.57,18.49c1.83-1.59,3.9-2.39,6.2-2.39,1.83,0,3.26.52,4.3,1.55,1.83,1.83,3.26,4.75,4.29,8.77,1.03,4.02,1.55,8.45,1.55,13.3s-.6,9.75-1.79,14.2c-1.67,6.13-4,10.86-6.98,14.2-2.98,3.34-6.26,5.01-9.84,5.01-2.47,0-4.93-.84-7.4-2.51-1.43-.96-3.7-3.22-6.8-6.8-1.03-1.27-2.09-2.41-3.16-3.4-1.07-.99-1.77-1.49-2.09-1.49-1.43,0-4.18,3.66-8.23,10.98-3.5,6.28-7.12,9.78-10.86,10.5-.95.16-1.67.24-2.15.24-2.94,0-5.41-1.83-7.4-5.49-.88-1.83-1.45-4-1.73-6.5-.28-2.51-.58-8.33-.89-17.48-.16-6.68-.24-10.7-.24-12.05,0-5.09.28-8.35.84-9.78.55-1.43,1.71-2.23,3.46-2.39h1.43c1.99,0,3.82.83,5.49,2.51,1.03,1.03,1.69,2.27,1.97,3.7.28,1.43.54,5.09.78,10.98l.48,12.41,5.49-6.92c2.86-3.66,5.09-6.06,6.68-7.22,1.59-1.15,3.5-1.73,5.73-1.73,1.51,0,2.86.54,4.06,1.61,1.19,1.07,3.74,3.96,7.64,8.65,3.34,4.14,5.37,6.32,6.09,6.56h.12c.08.08.16.12.24.12,1.19,0,2.35-1.95,3.46-5.85,1.11-3.9,1.67-7.83,1.67-11.81,0-1.43-.04-2.46-.12-3.1-.32-3.34-1.27-5.81-2.86-7.4-1.59-1.59-2.39-3.34-2.39-5.25,0-2.07.99-3.98,2.98-5.73Z"/>
    </g>
  </g>
</svg>