<?xml version="1.0" encoding="UTF-8"?>
<svg id="Layer_1" data-name="Layer 1" xmlns="http://www.w3.org/2000/svg" xmlns:xlink="http://www.w3.org/1999/xlink" viewBox="0 0 137.79 49.16">
  <defs>
    <style>
      .cls-1 {
        fill: url(#linear-gradient-8);
      }

      .cls-2 {
        fill: url(#linear-gradient-7);
      }

      .cls-3 {
        fill: url(#linear-gradient-5);
      }

      .cls-4 {
        fill: url(#linear-gradient-6);
      }

      .cls-5 {
        fill: url(#linear-gradient-9);
      }

      .cls-6 {
        fill: url(#linear-gradient-4);
      }

      .cls-7 {
        fill: url(#linear-gradient-3);
      }

      .cls-8 {
        fill: url(#linear-gradient-2);
      }

      .cls-9 {
        fill: url(#linear-gradient);
      }

      .cls-10 {
        fill: url(#linear-gradient-10);
      }

      .cls-11 {
        fill: url(#linear-gradient-11);
      }

      .cls-12 {
        fill: url(#linear-gradient-12);
      }
    </style>
    <linearGradient id="linear-gradient" x1="7.71" y1="0" x2="7.71" y2="15.71" gradientUnits="userSpaceOnUse">
      <stop offset="0" stop-color="#e0a151"/>
      <stop offset=".12" stop-color="#dba159"/>
      <stop offset=".31" stop-color="#cfa170"/>
      <stop offset=".55" stop-color="#bca195"/>
      <stop offset=".83" stop-color="#a1a1c9"/>
      <stop offset="1" stop-color="#8fa2ed"/>
    </linearGradient>
    <linearGradient id="linear-gradient-2" x1="32.48" y1=".24" x2="32.48" y2="15.47" xlink:href="#linear-gradient"/>
    <linearGradient id="linear-gradient-3" x1="42.37" y1=".24" x2="42.37" y2="15.47" xlink:href="#linear-gradient"/>
    <linearGradient id="linear-gradient-4" x1="6.97" y1="33.06" x2="-.72" y2="19.73" gradientUnits="userSpaceOnUse">
      <stop offset="0" stop-color="#0034aa"/>
      <stop offset="1" stop-color="#b5bfff"/>
    </linearGradient>
    <linearGradient id="linear-gradient-5" x1="15.57" y1="34.36" x2="6.37" y2="18.43" xlink:href="#linear-gradient-4"/>
    <linearGradient id="linear-gradient-6" x1="32.15" y1="49.16" x2="32.15" y2="18.69" xlink:href="#linear-gradient-4"/>
    <linearGradient id="linear-gradient-7" x1="52.17" y1="49.16" x2="52.17" y2="18.69" xlink:href="#linear-gradient-4"/>
    <linearGradient id="linear-gradient-8" x1="67.86" y1="49.16" x2="67.86" y2="18.69" xlink:href="#linear-gradient-4"/>
    <linearGradient id="linear-gradient-9" x1="87.41" y1="49.16" x2="87.41" y2="18.69" xlink:href="#linear-gradient-4"/>
    <linearGradient id="linear-gradient-10" x1="106.3" y1="49.16" x2="106.3" y2="18.69" xlink:href="#linear-gradient-4"/>
    <linearGradient id="linear-gradient-11" x1="127.36" y1="49.16" x2="127.36" y2="18.69" xlink:href="#linear-gradient-4"/>
    <linearGradient id="linear-gradient-12" x1="22.3" y1="0" x2="22.3" y2="15.71" xlink:href="#linear-gradient"/>
  </defs>
  <g id="gold_in_winter" data-name="gold in winter">
    <g id="Gold">
      <path class="cls-9" d="M7.53,15.71C2.63,15.71,0,12.19,0,7.86S2.63,0,7.53,0C9.57,0,11.21.57,12.45,1.72c1.09,1,1.13-.3,1.13-1.31h.24v2.81h-.44C12.34,1.42,10.07.24,7.53.24,3.42.24,1.22,3.64,1.22,7.86s2.2,7.62,6.31,7.62c2.37,0,4.29-.89,5.16-2.92v-2.85c0-1.39-1.22-1-3.83-.24v-.13l3.83-1.28.94-.33,1.81-.76v.13c-.98.39-1.65,1.15-1.7,2.46l.04,3c-1.24,1.91-3.35,3.15-6.25,3.15Z"/>
      <path class="cls-8" d="M28.18,15.34c1.07,0,1.65-.13,1.65-1.52V1.9c0-1.39-.59-1.52-1.65-1.52v-.13h4.4v.13c-1.07,0-1.65.13-1.65,1.52v11.92c0,.94.26,1.28.74,1.44h3.29c1.04,0,1.39-2.33,1.7-3.29h.13l-.61,3.5h-7.99v-.13Z"/>
      <path class="cls-7" d="M42.61.24c2.57.11,4.92,3,4.92,7.49,0,4.85-2.57,7.66-4.5,7.75h-5.81v-.13c1.07,0,1.65-.13,1.65-1.52V1.9c0-1.39-.59-1.52-1.65-1.52v-.13h5.4ZM40.7,15.26h2.24c1.81,0,3.39-3.52,3.39-7.53,0-3.72-1.37-7.27-3.85-7.27h-1.78c-.48.15-.74.5-.74,1.44v11.92c0,.94.26,1.28.74,1.44Z"/>
    </g>
    <g id="in">
      <path class="cls-6" d="M5.32,18.91c-1.07,0-1.65.13-1.65,1.52v11.92c0,1.39.59,1.52,1.65,1.52v.13H.93v-.13c1.07,0,1.65-.13,1.65-1.52v-11.92c0-1.39-.59-1.52-1.65-1.52v-.13h4.4v.13Z"/>
      <path class="cls-3" d="M7.63,19.35v13.01c0,1.39.59,1.52,1.65,1.52v.13h-3.52v-.13c1.07,0,1.65-.13,1.65-1.52v-11.92c0-1.39-.59-1.52-1.65-1.52v-.13h2.96l5.59,14.71v-13.06c0-1.39-.59-1.52-1.65-1.52v-.13h3.52v.13c-1.07,0-1.65.13-1.65,1.52v11.92c0,1.39.59,1.52,1.65,1.52v.13h-2.98l-5.57-14.67Z"/>
    </g>
    <g id="winter">
      <path class="cls-4" d="M38.68,18.95c-2.13,0-2.96.35-3.66,2.92l-1.78,7.57,3.31,16.85,6.05-25.16c.22-1.61-.44-2.18-2.31-2.18v-.26h6.18v.26c-2.13,0-2.96.35-3.66,2.92l-6.53,27.3h-1.35l-2.92-14.76-3.53,14.76h-1.35l-5.35-27.17h-.04c-.48-2.57-1.79-3.05-3.92-3.05v-.26h20.85v.26ZM28.75,46.29l3.09-12.84-2.26-11.45h-.04c-.44-2.39-1.61-2.96-3.48-3.05-1.61.04-2.39.44-2.18,2.52l4.88,24.81ZM33.02,28.44l1.78-7.31c.17-1.35-.26-1.96-1.48-2.13-1.26.13-1.83.65-1.65,2.48l1.35,6.97Z"/>
      <path class="cls-2" d="M56.57,18.95c-2.13,0-3.31.26-3.31,3.05v23.86c0,2.79,1.18,3.05,3.31,3.05v.26h-8.79v-.26c2.13,0,3.31-.26,3.31-3.05v-23.86c0-2.79-1.18-3.05-3.31-3.05v-.26h8.79v.26Z"/>
      <path class="cls-1" d="M61.18,19.82v26.03c0,2.79,1.18,3.05,3.31,3.05v.26h-7.05v-.26c2.13,0,3.31-.26,3.31-3.05v-23.86c0-2.79-1.18-3.05-3.31-3.05v-.26h5.92l11.19,29.43v-26.12c0-2.79-1.18-3.05-3.31-3.05v-.26h7.05v.26c-2.13,0-3.31.26-3.31,3.05v23.86c0,2.79,1.17,3.05,3.31,3.05v.26h-5.96l-11.14-29.34Z"/>
      <path class="cls-5" d="M96.09,25.26h-.26c-.61-1.92-1.31-6.14-3.4-6.14h-2.48c-.96.3-1.48,1-1.48,2.87v23.86c0,2.79,1.17,3.05,3.31,3.05v.26h-8.79v-.26c2.13,0,3.31-.26,3.31-3.05v-23.86c0-1.87-.52-2.57-1.48-2.87h-2.44c-2.09,0-2.79,4.22-3.4,6.14h-.26l1.22-6.57h14.93l1.22,6.57Z"/>
      <path class="cls-10" d="M113.72,23.95h-.26c-.61-1.92-1.31-4.83-3.4-4.83h-6.57c-.96.3-1.48,1-1.48,2.87v6.49h3.26c2.79,0,3.31-1.44,3.92-3.31h.26l-.83,3.31-.04.26-.87,3.48h-.26c.39-2.35.61-3.31-2.18-3.31h-3.26v16.94c0,1.87.52,2.57,1.48,2.87h8.92c2.09,0,2.79-4.66,3.4-6.57h.26l-1.22,7.01h-18.33v-.26c2.13,0,3.31-.26,3.31-3.05v-23.86c0-2.79-1.17-3.05-3.31-3.05v-.26h15.98l1.22,5.27Z"/>
      <path class="cls-11" d="M125.73,18.69c3.44.22,6.27,1.96,6.27,5.09,0,3.61-2.96,5.05-5.66,5.14h-1.96c5.48,1.83,7.01,10.88,9.32,16.94.7,1.48,1.96,3.05,4.09,3.05v.26h-8.53v-.26c1.87,0,2.66-.7,2.26-2.31l-.26-.74c-2.09-6.62-2.22-16.76-8.84-16.85v16.85c0,2.79,1.17,3.05,3.31,3.05v.26h-8.79v-.26c2.13,0,3.31-.26,3.31-3.05v-23.86c0-2.79-1.18-3.05-3.31-3.05v-.26h8.79ZM126.03,28.48c2.61,0,4.22-2,4.22-4.7,0-2.35-1.61-4.66-5.18-4.66h-1.18c-.96.3-1.48,1-1.48,2.87v6.49h3.61Z"/>
    </g>
  </g>
  <path id="snowflake" class="cls-12" d="M28.12,10.64c-.18-.01-.36.08-.52.21-.17-.12-.33-.23-.49-.34.02-.03.05-.06.07-.09.15.11.3.17.46.16.3-.02.63-.32.98-1.14-.88-.11-1.31.03-1.47.28-.1.16-.11.37-.07.59-.03.03-.06.07-.09.11-.35-.25-.68-.47-.99-.68.02-.02.04-.04.06-.06.16.12.33.2.5.19.3-.02.63-.32.98-1.14-.88-.11-1.31.03-1.47.28-.1.14-.11.33-.08.53-.04.03-.07.07-.11.11-.36-.23-.68-.44-.97-.62.03-.02.05-.05.08-.07.16.12.33.2.5.19.3-.02.63-.32.98-1.14-.88-.11-1.31.03-1.47.28-.1.15-.11.33-.08.54-.05.04-.09.08-.13.12-.4-.24-.75-.44-1.05-.59.27.04.67-.1,1.25-.54-.53-.4-.91-.55-1.18-.55.28-.15.6-.32.97-.55.04.04.08.09.13.12-.03.2-.01.39.08.53.17.25.59.39,1.47.28-.34-.82-.68-1.12-.98-1.14-.17-.01-.34.07-.5.19-.03-.02-.05-.05-.08-.07.29-.18.62-.38.97-.62.03.04.07.08.11.11-.03.2-.01.38.08.53.17.25.59.39,1.47.28-.34-.82-.68-1.12-.98-1.14-.17-.01-.34.07-.5.19-.02-.02-.04-.04-.06-.06.31-.2.63-.43.99-.67.03.04.06.08.09.11-.04.22-.03.43.07.58.17.25.59.39,1.47.28-.34-.82-.68-1.12-.98-1.14-.16,0-.31.06-.46.16-.03-.03-.05-.06-.07-.09.16-.11.32-.23.49-.34.16.14.34.22.52.21.3-.02.63-.32.98-1.14-.88-.11-1.31.03-1.47.28-.1.15-.11.35-.08.56-.19.09-.37.17-.54.25-.02-.03-.03-.07-.04-.11.16-.07.3-.18.37-.32.14-.27.04-.71-.49-1.42-.54.71-.63,1.14-.49,1.42.08.17.26.28.47.36.01.04.03.09.05.13-.39.18-.75.36-1.08.52,0-.03-.02-.05-.02-.08.19-.07.34-.18.42-.34.14-.27.04-.71-.49-1.42-.54.71-.63,1.14-.49,1.42.08.15.23.26.42.34.01.05.02.1.04.15-.38.19-.72.37-1.02.53,0-.03-.02-.07-.02-.1.18-.07.34-.18.41-.34.14-.27.04-.71-.49-1.42-.54.71-.63,1.14-.49,1.42.08.16.23.26.42.34,0,.06.02.12.04.17-.41.23-.75.43-1.03.61.17-.22.25-.63.15-1.36-.61.26-.93.51-1.06.74.01-.32.02-.68.01-1.11.06-.01.12-.03.17-.05.16.12.33.2.5.19.3-.02.63-.32.98-1.14-.88-.11-1.31.03-1.47.28-.09.14-.11.33-.08.53-.03.01-.07.02-.1.03,0-.34-.02-.73-.05-1.15.05,0,.1-.02.15-.04.16.12.33.2.5.19.3-.02.63-.32.98-1.14-.88-.11-1.31.03-1.47.28-.1.14-.11.33-.08.53-.03,0-.06.01-.08.02-.02-.37-.05-.77-.09-1.2.05,0,.09-.01.14-.02.17.14.35.24.54.23.3-.02.63-.32.98-1.14-.88-.11-1.31.03-1.47.28-.09.13-.11.3-.09.48-.04,0-.07.01-.11.02-.02-.19-.03-.39-.05-.59.2-.08.36-.19.45-.35.14-.27.04-.71-.49-1.42-.54.71-.63,1.14-.49,1.42.08.16.25.27.45.35-.02.2-.04.4-.05.59-.04,0-.08-.01-.11-.02.02-.18,0-.35-.09-.48-.17-.25-.59-.39-1.47-.28.34.82.68,1.12.98,1.14.19.01.37-.08.54-.23.05.01.09.02.14.02-.04.43-.07.83-.09,1.19-.03,0-.06-.01-.08-.02.03-.2.01-.38-.08-.53-.17-.25-.59-.39-1.47-.28.34.82.68,1.12.98,1.14.17.01.34-.07.5-.19.05.02.1.03.15.04-.03.42-.04.81-.05,1.15-.03,0-.07-.02-.1-.03.03-.2.01-.38-.08-.53-.17-.25-.59-.39-1.47-.28.34.82.68,1.12.98,1.14.17.01.35-.07.5-.2.06.02.11.04.17.05,0,.47,0,.87.01,1.2-.1-.26-.43-.53-1.1-.81-.08.66-.03,1.06.11,1.29-.27-.17-.58-.36-.96-.57.02-.06.03-.12.04-.18.19-.07.34-.18.42-.34.14-.27.04-.71-.49-1.42-.54.71-.63,1.14-.49,1.42.08.15.23.26.42.34,0,.03-.01.07-.02.1-.3-.16-.64-.34-1.02-.53.02-.05.03-.1.04-.15.18-.08.34-.18.41-.34.14-.27.04-.71-.49-1.42-.54.71-.63,1.14-.49,1.42.08.15.23.26.42.34,0,.03-.02.05-.02.08-.33-.16-.69-.34-1.08-.52.02-.04.04-.09.05-.13.21-.08.38-.19.47-.36.14-.27.04-.71-.49-1.42-.54.71-.63,1.14-.49,1.42.07.14.21.24.37.32-.01.04-.03.07-.04.11-.17-.08-.35-.16-.54-.25.03-.21.02-.41-.08-.56-.17-.25-.59-.39-1.47-.28.34.82.68,1.12.98,1.14.18.01.36-.08.52-.21.17.12.33.23.49.34-.02.03-.05.06-.07.09-.15-.11-.3-.17-.46-.16-.3.02-.63.32-.98,1.14.88.11,1.31-.03,1.47-.28.1-.16.11-.37.07-.59.03-.03.06-.07.09-.11.35.25.68.47.99.68-.02.02-.04.04-.06.06-.16-.12-.33-.2-.5-.19-.3.02-.63.32-.98,1.14.88.11,1.31-.03,1.47-.28.09-.14.11-.33.08-.53.04-.03.07-.07.11-.11.35.23.68.44.97.62-.03.02-.05.05-.08.07-.16-.12-.33-.2-.5-.19-.3.02-.63.32-.98,1.14.88.11,1.31-.03,1.47-.28.1-.15.11-.33.08-.54.05-.04.09-.08.13-.12.4.24.75.44,1.05.59-.27-.04-.67.1-1.25.54.53.4.9.55,1.17.55-.28.15-.6.32-.97.55-.04-.04-.09-.09-.13-.12.03-.2.01-.39-.08-.53-.17-.25-.59-.39-1.47-.28.34.82.68,1.12.98,1.14.17,0,.34-.07.5-.19.03.02.05.05.08.07-.29.18-.62.38-.97.62-.03-.04-.07-.08-.11-.11.03-.2.01-.38-.08-.53-.17-.25-.59-.39-1.47-.28.34.82.68,1.12.98,1.14.17.01.34-.07.5-.19.02.02.04.04.06.06-.31.2-.64.43-.99.67-.03-.04-.06-.08-.09-.11.04-.22.03-.43-.07-.58-.17-.25-.59-.39-1.47-.28.34.82.68,1.12.98,1.14.16,0,.31-.06.46-.16.03.03.05.06.07.09-.16.11-.32.23-.49.34-.16-.14-.34-.22-.52-.21-.3.02-.63.32-.98,1.14.88.11,1.31-.03,1.47-.28.1-.15.11-.35.08-.56.19-.09.37-.17.54-.25.02.03.03.07.04.11-.17.07-.3.18-.37.32-.14.27-.04.71.49,1.42.54-.71.63-1.14.49-1.42-.08-.17-.26-.28-.47-.36-.01-.04-.03-.09-.05-.13.39-.18.75-.36,1.08-.52,0,.03.02.05.02.08-.19.07-.34.18-.42.34-.14.27-.04.71.49,1.42.54-.71.63-1.14.49-1.42-.08-.15-.23-.26-.42-.34-.01-.05-.02-.1-.04-.15.38-.19.72-.37,1.02-.53,0,.03.02.07.02.1-.18.07-.34.18-.41.34-.14.27-.04.71.49,1.42.54-.71.63-1.14.49-1.42-.08-.16-.23-.26-.42-.34,0-.06-.02-.12-.04-.17.41-.23.75-.43,1.03-.61-.17.22-.25.63-.15,1.36.61-.26.93-.51,1.06-.74-.01.32-.02.68-.01,1.11-.06.01-.12.03-.17.05-.16-.12-.33-.2-.5-.19-.3.02-.63.32-.98,1.14.88.11,1.31-.03,1.47-.28.09-.14.11-.33.08-.53.03-.01.07-.02.1-.03,0,.34.02.73.05,1.15-.05,0-.1.02-.15.04-.16-.12-.33-.2-.5-.19-.3.02-.63.32-.98,1.14.88.11,1.31-.03,1.47-.28.1-.14.11-.33.08-.53.03,0,.05-.01.08-.02.02.37.05.76.09,1.2-.05,0-.09.01-.14.02-.17-.14-.35-.24-.54-.23-.3.02-.63.32-.98,1.14.88.11,1.31-.03,1.47-.28.09-.13.11-.3.09-.48.04,0,.07-.01.11-.02.02.19.03.39.05.59-.2.08-.36.19-.45.35-.14.27-.04.71.49,1.42.54-.71.63-1.14.49-1.42-.08-.16-.25-.27-.45-.35.02-.2.04-.4.05-.59.04,0,.08,0,.11.02-.02.18,0,.35.09.48.17.25.59.39,1.47.28-.34-.82-.68-1.12-.98-1.14-.19-.01-.37.08-.54.23-.05-.01-.09-.02-.14-.02.04-.43.07-.83.09-1.19.03,0,.06.01.08.02-.03.2-.01.38.08.53.17.25.59.39,1.47.28-.34-.82-.68-1.12-.98-1.14-.17-.01-.34.07-.5.19-.05-.02-.1-.03-.15-.04.03-.42.04-.81.05-1.15.03,0,.07.02.1.03-.03.2-.01.38.08.53.17.25.59.39,1.47.28-.34-.82-.68-1.12-.98-1.14-.17-.01-.35.07-.51.2-.05-.02-.11-.04-.17-.05,0-.47,0-.87-.01-1.2.1.26.42.53,1.1.81.08-.66.03-1.06-.11-1.29.27.17.58.36.96.57-.02.06-.03.12-.04.18-.19.07-.34.18-.42.34-.14.27-.04.71.49,1.42.54-.71.63-1.14.49-1.42-.08-.15-.23-.26-.42-.34,0-.03.01-.07.02-.1.3.16.64.34,1.02.53-.02.05-.03.1-.04.15-.18.07-.34.18-.41.34-.14.27-.04.71.49,1.42.54-.71.63-1.14.49-1.42-.08-.15-.23-.26-.42-.34,0-.03.01-.05.02-.08.33.16.69.34,1.08.52-.02.04-.04.09-.05.13-.21.08-.38.19-.47.36-.14.27-.04.71.49,1.42.54-.71.63-1.14.49-1.42-.07-.14-.21-.24-.37-.32.01-.04.03-.07.04-.11.17.08.35.16.54.25-.03.21-.02.41.08.56.17.25.59.39,1.47.28-.34-.82-.68-1.12-.98-1.14ZM22.76,8.61c-.11.13-.19.26-.23.4-.05-.54-.13-.91-.23-1.16-.09.24-.18.59-.22,1.1-.04-.11-.11-.22-.21-.33-.17-.03-.33-.04-.46,0,.45-.31.73-.57.89-.78-.26.04-.6.14-1.07.36.08-.09.14-.21.18-.34-.05-.16-.13-.3-.23-.4.49.23.86.34,1.12.38-.16-.2-.43-.45-.84-.75.12.02.25.01.39-.01.11-.13.19-.26.23-.4.05.54.13.91.23,1.16.1-.24.18-.59.22-1.1.04.11.11.22.21.33.17.03.32.04.46,0-.45.31-.73.57-.89.78.26-.04.6-.14,1.07-.36-.08.09-.14.21-.18.34.05.16.13.3.23.4-.49-.23-.86-.34-1.12-.38.16.2.43.45.84.75-.12-.02-.25-.01-.39.01Z"/>
</svg>