<?xml version="1.0" encoding="UTF-8"?>
<svg id="Layer_1" data-name="Layer 1" xmlns="http://www.w3.org/2000/svg" xmlns:xlink="http://www.w3.org/1999/xlink" viewBox="0 0 137.79 49.16">
  <defs>
    <style>
      .cls-1 {
        fill: url(#linear-gradient-8);
      }

      .cls-2 {
        fill: url(#linear-gradient-7);
      }

      .cls-3 {
        fill: url(#linear-gradient-5);
      }

      .cls-4 {
        fill: url(#linear-gradient-6);
      }

      .cls-5 {
        fill: url(#linear-gradient-9);
      }

      .cls-6 {
        fill: url(#linear-gradient-4);
      }

      .cls-7 {
        fill: url(#linear-gradient-3);
      }

      .cls-8 {
        fill: url(#linear-gradient-2);
      }

      .cls-9 {
        fill: url(#radial-gradient);
      }

      .cls-10 {
        fill: url(#linear-gradient);
      }

      .cls-11 {
        fill: url(#linear-gradient-10);
      }

      .cls-12 {
        fill: url(#linear-gradient-11);
      }

      .cls-13 {
        fill: url(#linear-gradient-12);
      }
    </style>
    <linearGradient id="linear-gradient" x1="1.21" y1="3.26" x2="14.66" y2="11.02" gradientUnits="userSpaceOnUse">
      <stop offset="0" stop-color="#e0a151"/>
      <stop offset="1" stop-color="#8fa2ed"/>
    </linearGradient>
    <linearGradient id="linear-gradient-2" x1="16.24" y1="4.39" x2="28.25" y2="11.32" xlink:href="#linear-gradient"/>
    <linearGradient id="linear-gradient-3" x1="25.43" y1="5" x2="38.02" y2="12.27" xlink:href="#linear-gradient"/>
    <linearGradient id="linear-gradient-4" x1="34.7" y1="4.6" x2="46.99" y2="11.7" xlink:href="#linear-gradient"/>
    <linearGradient id="linear-gradient-5" x1=".93" y1="26.39" x2="5.32" y2="26.39" gradientUnits="userSpaceOnUse">
      <stop offset="0" stop-color="#0034aa"/>
      <stop offset="1" stop-color="#b5bfff"/>
    </linearGradient>
    <linearGradient id="linear-gradient-6" x1="5.76" x2="16.18" xlink:href="#linear-gradient-5"/>
    <linearGradient id="linear-gradient-7" x1="17.83" y1="33.92" x2="46.47" y2="33.92" xlink:href="#linear-gradient-5"/>
    <linearGradient id="linear-gradient-8" x1="47.77" y1="33.92" x2="56.57" y2="33.92" xlink:href="#linear-gradient-5"/>
    <linearGradient id="linear-gradient-9" x1="57.44" y1="33.92" x2="78.29" y2="33.92" xlink:href="#linear-gradient-5"/>
    <linearGradient id="linear-gradient-10" x1="78.72" y1="33.92" x2="96.09" y2="33.92" xlink:href="#linear-gradient-5"/>
    <linearGradient id="linear-gradient-11" x1="96.52" y1="33.92" x2="116.07" y2="33.92" xlink:href="#linear-gradient-5"/>
    <linearGradient id="linear-gradient-12" x1="116.94" y1="33.92" x2="137.79" y2="33.92" xlink:href="#linear-gradient-5"/>
    <radialGradient id="radial-gradient" cx="22.3" cy="7.95" fx="22.3" fy="7.95" r="4.83" gradientUnits="userSpaceOnUse">
      <stop offset="0" stop-color="#e0a151"/>
      <stop offset="1" stop-color="#e1e6ff"/>
    </radialGradient>
  </defs>
  <g>
    <g>
      <path class="cls-10" d="M7.53,15.71C2.63,15.71,0,12.19,0,7.85S2.63,0,7.53,0c2.05,0,3.68.57,4.92,1.72,1.09,1,1.13-.3,1.13-1.31h.24v2.81h-.44C12.34,1.41,10.07.24,7.53.24,3.42.24,1.22,3.63,1.22,7.85s2.2,7.62,6.31,7.62c2.37,0,4.29-.89,5.16-2.92v-2.85c0-1.39-1.22-1-3.83-.24v-.13l3.83-1.28.94-.33,1.81-.76v.13c-.98.39-1.65,1.15-1.7,2.46l.04,3c-1.24,1.91-3.35,3.15-6.25,3.15Z"/>
      <path class="cls-8" d="M15.87,7.85c0-4.33,2.24-7.85,6.38-7.85s6.38,3.52,6.38,7.85-2.22,7.85-6.38,7.85-6.38-3.52-6.38-7.85ZM22.24,15.47c3.48,0,5.35-3.39,5.35-7.62S25.72.24,22.24.24s-5.33,3.39-5.33,7.62,1.85,7.62,5.33,7.62Z"/>
      <path class="cls-7" d="M28.18,15.34c1.07,0,1.65-.13,1.65-1.52V1.89c0-1.39-.59-1.52-1.65-1.52v-.13h4.4v.13c-1.07,0-1.65.13-1.65,1.52v11.92c0,.94.26,1.28.74,1.44h3.29c1.04,0,1.39-2.33,1.7-3.29h.13l-.61,3.5h-7.99v-.13Z"/>
      <path class="cls-6" d="M42.61.24c2.57.11,4.92,3,4.92,7.49,0,4.85-2.57,7.66-4.5,7.75h-5.81v-.13c1.07,0,1.65-.13,1.65-1.52V1.89c0-1.39-.59-1.52-1.65-1.52v-.13h5.4ZM40.7,15.25h2.24c1.81,0,3.39-3.52,3.39-7.53,0-3.72-1.37-7.27-3.85-7.27h-1.78c-.48.15-.74.5-.74,1.44v11.92c0,.94.26,1.28.74,1.44Z"/>
    </g>
    <g>
      <path class="cls-3" d="M5.32,18.91c-1.07,0-1.65.13-1.65,1.52v11.92c0,1.39.59,1.52,1.65,1.52v.13H.93v-.13c1.07,0,1.65-.13,1.65-1.52v-11.92c0-1.39-.59-1.52-1.65-1.52v-.13h4.4v.13Z"/>
      <path class="cls-4" d="M7.63,19.34v13.01c0,1.39.59,1.52,1.65,1.52v.13h-3.52v-.13c1.07,0,1.65-.13,1.65-1.52v-11.92c0-1.39-.59-1.52-1.65-1.52v-.13h2.96l5.59,14.71v-13.06c0-1.39-.59-1.52-1.65-1.52v-.13h3.52v.13c-1.07,0-1.65.13-1.65,1.52v11.92c0,1.39.59,1.52,1.65,1.52v.13h-2.98l-5.57-14.67Z"/>
    </g>
    <g>
      <path class="cls-2" d="M38.68,18.94c-2.13,0-2.96.35-3.66,2.92l-1.78,7.57,3.31,16.85,6.05-25.16c.22-1.61-.44-2.18-2.31-2.18v-.26h6.18v.26c-2.13,0-2.96.35-3.66,2.92l-6.53,27.3h-1.35l-2.92-14.76-3.53,14.76h-1.35l-5.35-27.17h-.04c-.48-2.57-1.79-3.05-3.92-3.05v-.26h20.85v.26ZM28.75,46.28l3.09-12.84-2.26-11.45h-.04c-.44-2.39-1.61-2.96-3.48-3.05-1.61.04-2.39.44-2.18,2.52l4.88,24.81ZM33.02,28.43l1.78-7.31c.17-1.35-.26-1.96-1.48-2.13-1.26.13-1.83.65-1.65,2.48l1.35,6.97Z"/>
      <path class="cls-1" d="M56.57,18.94c-2.13,0-3.31.26-3.31,3.05v23.86c0,2.79,1.18,3.05,3.31,3.05v.26h-8.79v-.26c2.13,0,3.31-.26,3.31-3.05v-23.86c0-2.79-1.18-3.05-3.31-3.05v-.26h8.79v.26Z"/>
      <path class="cls-5" d="M61.18,19.81v26.03c0,2.79,1.18,3.05,3.31,3.05v.26h-7.05v-.26c2.13,0,3.31-.26,3.31-3.05v-23.86c0-2.79-1.18-3.05-3.31-3.05v-.26h5.92l11.19,29.43v-26.12c0-2.79-1.18-3.05-3.31-3.05v-.26h7.05v.26c-2.13,0-3.31.26-3.31,3.05v23.86c0,2.79,1.17,3.05,3.31,3.05v.26h-5.96l-11.14-29.34Z"/>
      <path class="cls-11" d="M96.09,25.26h-.26c-.61-1.92-1.31-6.14-3.4-6.14h-2.48c-.96.3-1.48,1-1.48,2.87v23.86c0,2.79,1.17,3.05,3.31,3.05v.26h-8.79v-.26c2.13,0,3.31-.26,3.31-3.05v-23.86c0-1.87-.52-2.57-1.48-2.87h-2.44c-2.09,0-2.79,4.22-3.4,6.14h-.26l1.22-6.57h14.93l1.22,6.57Z"/>
      <path class="cls-12" d="M113.72,23.95h-.26c-.61-1.92-1.31-4.83-3.4-4.83h-6.57c-.96.3-1.48,1-1.48,2.87v6.49h3.26c2.79,0,3.31-1.44,3.92-3.31h.26l-.83,3.31-.04.26-.87,3.48h-.26c.39-2.35.61-3.31-2.18-3.31h-3.26v16.94c0,1.87.52,2.57,1.48,2.87h8.92c2.09,0,2.79-4.66,3.4-6.57h.26l-1.22,7.01h-18.33v-.26c2.13,0,3.31-.26,3.31-3.05v-23.86c0-2.79-1.17-3.05-3.31-3.05v-.26h15.98l1.22,5.27Z"/>
      <path class="cls-13" d="M125.73,18.68c3.44.22,6.27,1.96,6.27,5.09,0,3.61-2.96,5.05-5.66,5.14h-1.96c5.48,1.83,7.01,10.88,9.32,16.94.7,1.48,1.96,3.05,4.09,3.05v.26h-8.53v-.26c1.87,0,2.66-.7,2.26-2.31l-.26-.74c-2.09-6.62-2.22-16.76-8.84-16.85v16.85c0,2.79,1.17,3.05,3.31,3.05v.26h-8.79v-.26c2.13,0,3.31-.26,3.31-3.05v-23.86c0-2.79-1.18-3.05-3.31-3.05v-.26h8.79ZM126.03,28.48c2.61,0,4.22-2,4.22-4.7,0-2.35-1.61-4.66-5.18-4.66h-1.18c-.96.3-1.48,1-1.48,2.87v6.49h3.61Z"/>
    </g>
  </g>
  <path class="cls-9" d="M26.13,9.79c-.12,0-.24.05-.34.14-.11-.08-.22-.15-.32-.23.01-.02.03-.04.05-.06.1.07.2.11.3.11.2-.01.42-.21.64-.75-.58-.07-.86.02-.97.18-.07.1-.08.24-.05.39-.02.02-.04.05-.06.07-.23-.16-.45-.31-.65-.44.01-.01.03-.03.04-.04.1.08.22.13.33.13.2-.01.42-.21.64-.75-.58-.07-.86.02-.97.18-.06.09-.07.22-.05.35-.03.02-.05.05-.07.07-.23-.15-.45-.29-.64-.41.02-.02.03-.03.05-.05.1.08.21.13.33.12.2-.01.42-.21.64-.75-.58-.07-.86.02-.97.18-.06.1-.07.22-.05.35-.03.02-.06.05-.09.08-.27-.16-.49-.29-.69-.39.18.02.44-.07.82-.36-.35-.26-.6-.36-.77-.36.18-.1.4-.21.64-.36.03.03.06.06.09.08-.02.13,0,.25.05.35.11.17.39.26.97.18-.23-.54-.44-.74-.64-.75-.11,0-.22.04-.33.13-.02-.01-.03-.03-.05-.05.19-.12.41-.25.64-.41.02.03.05.05.07.07-.02.13,0,.25.06.35.11.17.39.26.97.18-.23-.54-.44-.73-.64-.75-.11,0-.23.05-.33.13-.01-.01-.03-.03-.04-.04.2-.13.42-.28.65-.44.02.03.04.05.06.07-.03.14-.02.28.05.38.11.17.39.26.97.18-.23-.54-.44-.73-.64-.75-.1,0-.21.04-.3.11-.02-.02-.03-.04-.05-.06.1-.07.21-.15.32-.23.11.09.23.15.34.14.2-.01.42-.21.64-.75-.58-.07-.86.02-.97.18-.07.1-.07.23-.05.37-.12.06-.24.11-.36.16-.01-.02-.02-.05-.03-.07.11-.05.2-.12.24-.21.09-.18.03-.47-.32-.93-.35.47-.41.75-.32.93.06.11.17.19.31.23,0,.03.02.06.03.09-.26.12-.49.23-.71.34,0-.02-.01-.04-.02-.05.12-.05.22-.12.27-.22.09-.18.03-.47-.32-.93-.35.47-.41.75-.32.93.05.1.15.17.27.22,0,.03.02.07.03.1-.25.13-.47.24-.67.35,0-.02-.01-.05-.01-.07.12-.05.22-.12.27-.22.09-.18.03-.47-.32-.93-.35.47-.41.75-.32.93.05.1.15.17.28.22,0,.04.01.08.03.11-.27.15-.5.28-.68.4.11-.14.16-.42.1-.89-.4.17-.61.33-.7.49,0-.21.01-.45,0-.73.04,0,.08-.02.11-.03.1.08.22.13.33.13.2-.01.42-.21.64-.75-.58-.07-.86.02-.97.18-.06.09-.07.22-.06.35-.02,0-.04.01-.07.02,0-.23-.02-.48-.03-.76.03,0,.07-.01.1-.03.1.08.21.13.33.12.2-.01.42-.21.64-.75-.58-.07-.86.02-.97.18-.06.1-.07.22-.05.35-.02,0-.04,0-.05.01-.02-.24-.03-.5-.06-.79.03,0,.06,0,.09-.01.11.09.23.16.36.15.2-.01.42-.21.64-.75-.58-.07-.86.02-.97.18-.06.09-.07.2-.06.32-.02,0-.05,0-.07.01-.01-.13-.02-.26-.04-.39.13-.05.24-.12.29-.23.09-.18.03-.47-.32-.93-.35.47-.41.75-.32.93.05.11.16.18.29.23-.01.13-.02.26-.04.39-.03,0-.05,0-.07-.01.01-.12,0-.23-.06-.32-.11-.17-.39-.26-.97-.18.23.54.44.74.64.75.12,0,.25-.06.36-.15.03,0,.06.01.09.01-.02.28-.04.54-.06.79-.02,0-.04,0-.05-.01.02-.13,0-.25-.05-.35-.11-.17-.39-.26-.97-.18.23.54.44.74.64.75.11,0,.23-.04.33-.13.03.01.07.02.1.03-.02.28-.03.53-.03.76-.02,0-.04-.01-.07-.02.02-.13,0-.25-.06-.35-.11-.17-.39-.26-.97-.18.23.54.44.74.64.75.11,0,.23-.05.33-.13.04.01.07.03.11.04,0,.31,0,.57,0,.79-.07-.17-.28-.35-.72-.53-.05.43-.02.7.07.85-.17-.11-.38-.24-.63-.37.01-.04.02-.08.03-.12.12-.05.22-.12.28-.22.09-.18.03-.47-.32-.93-.35.47-.41.75-.32.93.05.1.15.17.27.22,0,.02,0,.05-.02.07-.2-.11-.42-.22-.67-.35.01-.03.02-.07.03-.1.12-.05.22-.12.27-.22.09-.18.03-.47-.32-.93-.35.47-.41.75-.32.93.05.1.15.17.28.22,0,.02,0,.04-.02.05-.22-.11-.45-.22-.71-.34.01-.03.02-.06.03-.09.14-.05.25-.12.31-.23.09-.18.03-.47-.32-.93-.35.47-.41.75-.32.93.05.09.14.16.24.21,0,.02-.02.05-.03.07-.11-.05-.23-.11-.36-.16.02-.14.01-.27-.05-.37-.11-.17-.39-.26-.97-.18.23.54.44.74.64.75.12,0,.24-.05.34-.14.11.08.22.15.32.23-.01.02-.03.04-.05.06-.1-.07-.2-.11-.3-.11-.2.01-.42.21-.64.75.58.07.86-.02.97-.18.07-.1.07-.24.05-.39.02-.02.04-.05.06-.07.23.16.45.31.65.44-.01.01-.03.03-.04.04-.1-.08-.22-.13-.33-.13-.2.01-.42.21-.64.75.58.07.86-.02.97-.18.06-.09.07-.22.05-.35.03-.02.05-.05.07-.07.23.15.45.29.64.41-.02.02-.03.03-.05.05-.1-.08-.21-.13-.33-.12-.2.01-.42.21-.64.75.58.07.86-.02.97-.18.06-.1.07-.22.05-.35.03-.02.06-.05.09-.08.27.16.49.29.69.39-.18-.02-.44.07-.82.36.35.26.6.36.77.36-.18.1-.4.21-.64.36-.03-.03-.06-.06-.09-.08.02-.13,0-.25-.05-.35-.11-.17-.39-.26-.97-.18.23.54.44.74.64.75.11,0,.22-.04.33-.13.02.01.03.03.05.05-.19.12-.41.25-.64.41-.02-.03-.05-.05-.07-.07.02-.13,0-.25-.06-.35-.11-.17-.39-.26-.97-.18.23.54.44.74.64.75.11,0,.23-.05.33-.13.01.01.03.03.04.04-.2.13-.42.28-.65.44-.02-.03-.04-.05-.06-.07.03-.14.02-.28-.05-.38-.11-.17-.39-.26-.97-.18.23.54.44.73.64.75.1,0,.21-.04.3-.11.02.02.03.04.05.06-.1.07-.21.15-.32.23-.11-.09-.23-.15-.34-.14-.2.01-.42.21-.64.75.58.07.86-.02.97-.18.07-.1.07-.23.05-.37.12-.06.24-.11.36-.16.01.02.02.05.03.07-.11.05-.2.12-.24.21-.09.18-.03.47.32.93.35-.47.41-.75.32-.93-.06-.11-.17-.19-.31-.23,0-.03-.02-.06-.03-.09.26-.12.49-.23.71-.34,0,.02.01.04.02.05-.12.05-.22.12-.27.22-.09.18-.03.47.32.93.35-.47.41-.75.32-.93-.05-.1-.15-.17-.27-.22,0-.03-.02-.07-.03-.1.25-.13.47-.24.67-.35,0,.02.01.05.01.07-.12.05-.22.12-.27.22-.09.18-.03.47.33.93.35-.47.41-.75.32-.93-.05-.1-.15-.17-.28-.22,0-.04-.01-.08-.03-.11.27-.15.5-.28.68-.4-.11.14-.16.42-.1.89.4-.17.61-.33.7-.49,0,.21-.01.45,0,.73-.04,0-.08.02-.11.03-.1-.08-.22-.13-.33-.13-.2.01-.42.21-.64.75.58.07.86-.02.97-.18.06-.09.07-.22.06-.35.02,0,.04-.01.07-.02,0,.23.02.48.03.76-.03,0-.07.01-.1.02-.1-.08-.21-.13-.33-.12-.2.01-.42.21-.64.75.58.07.86-.02.97-.18.06-.1.07-.22.05-.35.02,0,.04,0,.05-.01.02.24.03.5.06.79-.03,0-.06,0-.09.01-.11-.09-.23-.16-.36-.15-.2.01-.42.21-.64.75.58.07.86-.02.97-.18.06-.09.07-.2.06-.32.02,0,.05,0,.07-.01.01.13.02.26.04.39-.13.05-.24.12-.29.23-.09.18-.03.47.32.93.35-.47.41-.75.32-.93-.05-.11-.16-.18-.29-.23.01-.13.02-.26.04-.39.03,0,.05,0,.07.01-.01.12,0,.23.06.32.11.17.39.26.97.18-.23-.54-.44-.74-.64-.75-.12,0-.25.06-.36.15-.03,0-.06-.01-.09-.01.02-.28.04-.54.06-.79.02,0,.04,0,.05.01-.02.13,0,.25.05.35.11.17.39.26.97.18-.23-.54-.44-.73-.64-.75-.11,0-.22.04-.33.13-.03-.01-.07-.02-.1-.03.02-.28.03-.53.03-.76.02,0,.04.01.07.02-.02.13,0,.25.06.35.11.17.39.26.97.18-.23-.54-.44-.74-.64-.75-.11,0-.23.05-.33.13-.04-.01-.07-.03-.11-.04,0-.31,0-.57,0-.79.07.17.28.35.72.53.05-.43.02-.7-.07-.85.17.11.38.24.63.37-.01.04-.02.08-.03.12-.12.05-.22.12-.28.22-.09.18-.03.47.32.93.35-.47.41-.75.32-.93-.05-.1-.15-.17-.27-.22,0-.02,0-.05.02-.07.2.11.42.22.67.35-.01.03-.02.07-.03.1-.12.05-.22.12-.27.22-.09.18-.03.47.32.93.35-.47.41-.75.32-.93-.05-.1-.15-.17-.28-.22,0-.02,0-.04.02-.05.22.11.45.22.71.34-.01.03-.02.06-.03.09-.14.05-.25.12-.31.23-.09.18-.03.47.32.93.35-.47.41-.75.32-.93-.05-.09-.14-.16-.24-.21,0-.02.02-.05.03-.07.11.05.23.11.36.16-.02.14-.01.27.05.37.11.17.39.26.97.18-.23-.54-.44-.74-.64-.75ZM22.6,8.45c-.07.08-.13.17-.15.26-.03-.36-.09-.6-.15-.77-.06.16-.12.39-.15.73-.03-.07-.08-.15-.13-.21-.11-.02-.21-.02-.3,0,.29-.21.48-.38.59-.51-.17.03-.4.09-.7.24.05-.06.09-.14.12-.22-.04-.11-.09-.2-.15-.26.32.15.56.23.74.25-.11-.13-.28-.3-.56-.49.08.01.16,0,.25,0,.07-.08.13-.17.15-.26.03.36.09.6.15.77.06-.16.12-.39.15-.73.03.07.08.15.14.21.11.02.21.02.3,0-.29.21-.48.38-.59.51.17-.03.4-.09.7-.24-.05.06-.09.14-.12.22.04.11.09.2.15.26-.32-.15-.56-.23-.74-.25.11.13.28.3.56.49-.08-.01-.16,0-.25,0Z"/>
</svg>