<?xml version="1.0" encoding="UTF-8"?>
<svg id="Layer_3" data-name="Layer 3" xmlns="http://www.w3.org/2000/svg" xmlns:xlink="http://www.w3.org/1999/xlink" viewBox="0 0 154.21 55.47">
  <defs>
    <style>
      .cls-1 {
        fill: url(#linear-gradient-8);
      }

      .cls-2 {
        fill: url(#linear-gradient-7);
      }

      .cls-3 {
        fill: url(#linear-gradient-5);
      }

      .cls-4 {
        fill: url(#linear-gradient-6);
      }

      .cls-5 {
        fill: url(#linear-gradient-9);
      }

      .cls-6 {
        fill: url(#linear-gradient-4);
      }

      .cls-7 {
        fill: url(#linear-gradient-3);
      }

      .cls-8 {
        fill: url(#linear-gradient-2);
      }

      .cls-9 {
        fill: url(#linear-gradient);
      }

      .cls-10 {
        fill: url(#linear-gradient-10);
      }

      .cls-11 {
        fill: url(#linear-gradient-11);
      }

      .cls-12 {
        fill: url(#linear-gradient-12);
      }

      .cls-13 {
        fill: url(#linear-gradient-13);
      }

      .cls-14 {
        fill: url(#linear-gradient-14);
      }
    </style>
    <linearGradient id="linear-gradient" x1="52.26" y1="27.2" x2="73.63" y2="48.57" gradientUnits="userSpaceOnUse">
      <stop offset="0" stop-color="#e1e6ff"/>
      <stop offset="0" stop-color="#e0ccbe"/>
      <stop offset="0" stop-color="#e0b583"/>
      <stop offset="0" stop-color="#e0a65e"/>
      <stop offset="0" stop-color="#e0a151"/>
      <stop offset="0" stop-color="#dea155"/>
      <stop offset=".11" stop-color="#ceac8e"/>
      <stop offset=".2" stop-color="#c1b4ba"/>
      <stop offset=".29" stop-color="#b8bada"/>
      <stop offset=".36" stop-color="#b3bded"/>
      <stop offset=".4" stop-color="#b1bff5"/>
      <stop offset=".51" stop-color="#adbcf3"/>
      <stop offset=".59" stop-color="#a2b3ee"/>
      <stop offset=".68" stop-color="#90a5e7"/>
      <stop offset=".76" stop-color="#7691dc"/>
      <stop offset=".85" stop-color="#5577ce"/>
      <stop offset=".92" stop-color="#2d57bd"/>
      <stop offset="1" stop-color="#0034aa"/>
    </linearGradient>
    <linearGradient id="linear-gradient-2" x1="79.76" y1="22.04" x2="108.11" y2="50.39" xlink:href="#linear-gradient"/>
    <linearGradient id="linear-gradient-3" x1="116.59" y1="28.76" x2="102.48" y2="53.21" gradientUnits="userSpaceOnUse">
      <stop offset="0" stop-color="#e1e6ff"/>
      <stop offset="0" stop-color="#becaf7"/>
      <stop offset="0" stop-color="#b1bff5"/>
      <stop offset=".4" stop-color="#b1bff5"/>
      <stop offset=".43" stop-color="#b1bff5"/>
      <stop offset=".53" stop-color="#adbcf3"/>
      <stop offset=".61" stop-color="#a2b3ee"/>
      <stop offset=".7" stop-color="#90a5e7"/>
      <stop offset=".78" stop-color="#7691dc"/>
      <stop offset=".85" stop-color="#5577ce"/>
      <stop offset=".93" stop-color="#2d57bd"/>
      <stop offset="1" stop-color="#0034aa"/>
    </linearGradient>
    <linearGradient id="linear-gradient-4" x1="133.43" y1="29.59" x2="118.42" y2="55.58" xlink:href="#linear-gradient-3"/>
    <linearGradient id="linear-gradient-5" x1="150.94" y1="32.03" x2="137.07" y2="56.06" xlink:href="#linear-gradient-3"/>
    <linearGradient id="linear-gradient-6" x1="4.56" y1="2.94" x2="24.14" y2="22.52" gradientUnits="userSpaceOnUse">
      <stop offset="0" stop-color="#e1e6ff"/>
      <stop offset=".26" stop-color="#e0a151"/>
      <stop offset=".69" stop-color="#e0a151"/>
      <stop offset=".72" stop-color="#e0a151"/>
      <stop offset=".75" stop-color="#dea156"/>
      <stop offset=".8" stop-color="#daa466"/>
      <stop offset=".85" stop-color="#d3a981"/>
      <stop offset=".9" stop-color="#caafa6"/>
      <stop offset=".96" stop-color="#bfb7d6"/>
      <stop offset="1" stop-color="#b5bfff"/>
    </linearGradient>
    <linearGradient id="linear-gradient-7" x1="27.84" y1="13.85" x2="50.22" y2="13.85" gradientUnits="userSpaceOnUse">
      <stop offset="0" stop-color="#e1e6ff"/>
      <stop offset=".48" stop-color="#e0a151"/>
      <stop offset=".54" stop-color="#dea257"/>
      <stop offset=".63" stop-color="#d9a569"/>
      <stop offset=".72" stop-color="#d2aa86"/>
      <stop offset=".83" stop-color="#c8b1af"/>
      <stop offset=".95" stop-color="#bbbae3"/>
      <stop offset="1" stop-color="#b5bfff"/>
    </linearGradient>
    <linearGradient id="linear-gradient-8" x1="46.56" y1="2.16" x2="61.64" y2="28.28" gradientUnits="userSpaceOnUse">
      <stop offset="0" stop-color="#e1e6ff"/>
      <stop offset=".35" stop-color="#e0a151"/>
      <stop offset=".47" stop-color="#dfa154"/>
      <stop offset=".57" stop-color="#dca35e"/>
      <stop offset=".66" stop-color="#d8a670"/>
      <stop offset=".75" stop-color="#d1aa89"/>
      <stop offset=".83" stop-color="#c9b0aa"/>
      <stop offset=".92" stop-color="#c0b7d1"/>
      <stop offset="1" stop-color="#b5bfff"/>
    </linearGradient>
    <linearGradient id="linear-gradient-9" x1="76.7" y1="16.66" x2="81.33" y2="21.29" gradientUnits="userSpaceOnUse">
      <stop offset="0" stop-color="#e1e6ff"/>
      <stop offset="0" stop-color="#becaf7"/>
      <stop offset="0" stop-color="#b1bff5"/>
      <stop offset=".03" stop-color="#b5bce5"/>
      <stop offset=".13" stop-color="#c0b4be"/>
      <stop offset=".24" stop-color="#caae9c"/>
      <stop offset=".35" stop-color="#d2a980"/>
      <stop offset=".47" stop-color="#d8a56b"/>
      <stop offset=".6" stop-color="#dca35c"/>
      <stop offset=".76" stop-color="#dfa153"/>
      <stop offset="1" stop-color="#e0a151"/>
    </linearGradient>
    <linearGradient id="linear-gradient-10" x1="83.31" y1="16.81" x2="83.88" y2="17.39" xlink:href="#linear-gradient-9"/>
    <linearGradient id="linear-gradient-11" x1="72.46" y1="34.09" x2="88.95" y2="50.58" gradientUnits="userSpaceOnUse">
      <stop offset="0" stop-color="#e1e6ff"/>
      <stop offset="0" stop-color="#becaf7"/>
      <stop offset="0" stop-color="#b1bff5"/>
      <stop offset=".18" stop-color="#adbcf3"/>
      <stop offset=".33" stop-color="#a3b4ef"/>
      <stop offset=".47" stop-color="#91a6e7"/>
      <stop offset=".61" stop-color="#7892dd"/>
      <stop offset=".74" stop-color="#5879cf"/>
      <stop offset=".87" stop-color="#315abe"/>
      <stop offset=".99" stop-color="#0336ab"/>
      <stop offset="1" stop-color="#0034aa"/>
    </linearGradient>
    <linearGradient id="linear-gradient-12" x1="80.84" y1="18.69" x2="83.05" y2="20.91" xlink:href="#linear-gradient-9"/>
    <linearGradient id="linear-gradient-13" x1="61.62" y1="4.17" x2="81.02" y2="23.57" gradientUnits="userSpaceOnUse">
      <stop offset="0" stop-color="#e1e6ff"/>
      <stop offset=".33" stop-color="#e0a151"/>
      <stop offset=".37" stop-color="#dda25c"/>
      <stop offset=".59" stop-color="#ccaea1"/>
      <stop offset=".78" stop-color="#bfb7d4"/>
      <stop offset=".92" stop-color="#b7bcf3"/>
      <stop offset="1" stop-color="#b5bfff"/>
    </linearGradient>
    <linearGradient id="linear-gradient-14" x1="43.44" y1="7.02" x2="35.31" y2="21.1" gradientUnits="userSpaceOnUse">
      <stop offset="0" stop-color="#e1e6ff"/>
      <stop offset="1" stop-color="#e0a151"/>
    </linearGradient>
  </defs>
  <g>
    <g id="winter">
      <path class="cls-9" d="M68.84,29.07c-1.86,0-2.58.3-3.19,2.55l-1.56,6.61,2.89,14.71,5.28-21.97c.19-1.41-.38-1.9-2.01-1.9v-.23h5.4v.23c-1.86,0-2.58.3-3.19,2.55l-5.7,23.83h-1.18l-2.55-12.89-3.08,12.89h-1.18l-4.68-23.72h-.04c-.42-2.24-1.56-2.66-3.42-2.66v-.23h18.21v.23ZM60.17,52.94l2.7-11.21-1.98-10h-.04c-.38-2.09-1.41-2.58-3.04-2.66-1.41.04-2.09.38-1.9,2.2l4.26,21.67ZM63.9,37.35l1.56-6.39c.15-1.18-.23-1.71-1.29-1.86-1.1.11-1.6.57-1.44,2.17l1.18,6.08Z"/>
      <path class="cls-8" d="M88.1,18.4v32.89c0,3.52,1.03,3.85,2.89,3.85v.33h-6.16v-.33c1.86,0,2.89-.33,2.89-3.85v-30.14c0-3.52-1.03-3.85-2.89-3.85v-.33h5.17l9.77,37.18V21.15c0-3.52-1.03-3.85-2.89-3.85v-.33h6.16v.33c-1.86,0-2.89.33-2.89,3.85v30.14c0,3.52,1.03,3.85,2.89,3.85v.33h-5.21l-9.73-37.07Z"/>
      <path class="cls-7" d="M117.8,34.58h-.23c-.53-1.67-1.14-5.36-2.96-5.36h-2.17c-.84.27-1.29.87-1.29,2.51v20.83c0,2.43,1.03,2.66,2.89,2.66v.23h-7.68v-.23c1.86,0,2.89-.23,2.89-2.66v-20.83c0-1.63-.46-2.24-1.29-2.51h-2.13c-1.82,0-2.43,3.69-2.97,5.36h-.23l1.06-5.74h13.04l1.06,5.74Z"/>
      <path class="cls-6" d="M133.19,33.44h-.23c-.53-1.67-1.14-4.22-2.96-4.22h-5.74c-.84.27-1.29.87-1.29,2.51v5.66h2.85c2.43,0,2.89-1.25,3.42-2.89h.23l-.72,2.89-.04.23-.76,3.04h-.23c.34-2.05.53-2.89-1.9-2.89h-2.85v14.79c0,1.63.46,2.24,1.29,2.51h7.79c1.82,0,2.43-4.07,2.96-5.74h.23l-1.06,6.12h-16v-.23c1.86,0,2.89-.23,2.89-2.66v-20.83c0-2.43-1.03-2.66-2.89-2.66v-.23h13.95l1.06,4.6Z"/>
      <path class="cls-3" d="M143.68,28.84c3,.19,5.47,1.71,5.47,4.45,0,3.15-2.58,4.41-4.94,4.49h-1.71c4.79,1.6,6.12,9.5,8.13,14.79.61,1.29,1.71,2.66,3.57,2.66v.23h-7.45v-.23c1.63,0,2.32-.61,1.98-2.01l-.23-.65c-1.82-5.78-1.94-14.63-7.72-14.71v14.71c0,2.43,1.03,2.66,2.89,2.66v.23h-7.68v-.23c1.86,0,2.89-.23,2.89-2.66v-20.83c0-2.43-1.03-2.66-2.89-2.66v-.23h7.68ZM143.94,37.39c2.28,0,3.69-1.75,3.69-4.11,0-2.05-1.41-4.07-4.52-4.07h-1.03c-.84.27-1.29.87-1.29,2.51v5.66h3.15Z"/>
    </g>
    <g>
      <path class="cls-4" d="M19.71,26.17c-1.86.98-4.02,1.47-6.49,1.47-2.78,0-5.16-.61-7.14-1.83s-3.49-2.88-4.53-4.97c-1.03-2.09-1.55-4.42-1.55-6.99s.52-4.9,1.55-6.99c1.03-2.09,2.54-3.74,4.53-4.96C8.06.68,10.44.07,13.21.07c3.59,0,6.47,1.01,8.63,3.02.46.43.84.65,1.15.65.36,0,.59-.27.69-.8.1-.53.15-1.25.15-2.14h.42v4.93h-.76c-.92-1.6-2.3-2.88-4.16-3.82-1.86-.94-3.9-1.41-6.11-1.41-2.34,0-4.35.59-6.02,1.76-1.67,1.17-2.93,2.77-3.78,4.79-.85,2.02-1.28,4.3-1.28,6.82s.43,4.79,1.28,6.82c.85,2.02,2.11,3.62,3.78,4.79,1.67,1.17,3.67,1.76,6.02,1.76,2.16,0,4.03-.42,5.59-1.26,1.57-.84,2.72-2.13,3.46-3.86v-5c0-.59-.12-1.01-.36-1.26-.24-.25-.63-.38-1.16-.38-.48,0-1.06.08-1.74.25-.67.17-1.83.49-3.46.97v-.23l6.72-2.25,1.64-.57,3.17-1.34v.23c-1.91.76-2.9,2.2-2.98,4.32l.08,5.27c-1.12,1.73-2.61,3.09-4.47,4.07Z"/>
      <path class="cls-2" d="M32.98,25.81c-1.69-1.22-2.97-2.88-3.84-4.97-.87-2.09-1.3-4.42-1.3-6.99s.43-4.9,1.3-6.99c.87-2.09,2.14-3.74,3.84-4.96,1.69-1.22,3.71-1.83,6.05-1.83s4.39.61,6.07,1.83c1.68,1.22,2.95,2.88,3.82,4.96.87,2.09,1.3,4.42,1.3,6.99s-.43,4.9-1.3,6.99c-.87,2.09-2.14,3.74-3.82,4.97-1.68,1.22-3.7,1.83-6.07,1.83s-4.36-.61-6.05-1.83ZM30.76,20.67c.73,2.02,1.79,3.62,3.19,4.79,1.4,1.17,3.09,1.76,5.08,1.76s3.69-.59,5.1-1.76c1.41-1.17,2.48-2.77,3.21-4.79s1.09-4.3,1.09-6.82-.36-4.79-1.09-6.82c-.73-2.02-1.79-3.62-3.21-4.79-1.41-1.17-3.11-1.76-5.1-1.76s-3.68.59-5.08,1.76c-1.4,1.17-2.46,2.77-3.19,4.79-.73,2.02-1.09,4.3-1.09,6.82s.36,4.79,1.09,6.82Z"/>
      <path class="cls-1" d="M49.46,26.99c.71,0,1.27-.06,1.66-.17.39-.12.7-.36.92-.75.22-.38.32-.97.32-1.76V3.39c0-.79-.11-1.37-.32-1.76-.22-.38-.52-.63-.92-.74-.39-.11-.95-.17-1.66-.17v-.23h7.71v.23c-.71,0-1.27.06-1.66.17-.4.11-.7.36-.92.74-.22.38-.32.97-.32,1.76v20.93c0,.79.11,1.37.32,1.74.22.37.54.63.97.78h5.77c.66,0,1.18-.42,1.57-1.26s.74-1.95,1.07-3.32c.08-.23.14-.44.19-.63.05-.19.1-.38.15-.55h.23l-1.07,6.15h-14.02v-.23Z"/>
      <g>
        <path class="cls-5" d="M76.39,17.19c1.86,0,2.89.23,2.89,2.66v3.49c.47-.93.87-2,1.2-3.23.27-1.02.48-2.07.62-3.15h-4.71v.23Z"/>
        <path class="cls-10" d="M84.07,17.19v-.23h-.92c-.01.09-.02.18-.03.27.29-.03.6-.04.95-.04Z"/>
        <path class="cls-11" d="M79.28,29.03v22.26c0,3.52-1.03,3.85-2.89,3.85v.33h7.68v-.33c-1.86,0-2.89-.33-2.89-3.85v-25.91c-.57,1.44-1.2,2.67-1.9,3.65Z"/>
        <path class="cls-12" d="M81.18,19.86v2.92c.36-.63.7-1.31,1-2.07.43-1.07.73-2.23.94-3.47-1.25.13-1.94.64-1.94,2.62Z"/>
        <path class="cls-13" d="M78.29,25c-.92,1.22-1.9,1.83-2.94,1.83h-3.93c-.43-.15-.76-.41-.97-.78-.22-.37-.32-.95-.32-1.74V3.39c0-.79.11-1.37.32-1.74.22-.37.54-.63.97-.78h3.13c1.4,0,2.61.59,3.63,1.78,1.02,1.18,1.79,2.75,2.33,4.7.53,1.95.8,4.04.8,6.28,0,1.15-.07,2.26-.21,3.34h2.06c.16-1.06.25-2.16.25-3.34,0-2.55-.4-4.8-1.2-6.76-.8-1.96-1.86-3.49-3.17-4.6s-2.73-1.7-4.26-1.78h-9.47v.23c.71,0,1.27.06,1.66.17.39.11.7.36.92.74.22.38.32.97.32,1.76v20.93c0,.79-.11,1.37-.32,1.76-.22.38-.52.63-.92.75-.39.11-.95.17-1.66.17v.23h10.2c1.2-.05,2.41-.64,3.63-1.76.05-.05.1-.11.15-.16v-1.96c-.31.61-.63,1.18-.99,1.66Z"/>
      </g>
    </g>
  </g>
  <path id="snowflake" class="cls-14" d="M46.34,17.4c-.22-.01-.43.09-.63.25-.2-.14-.39-.28-.58-.41.03-.04.06-.07.09-.11.17.13.36.21.55.19.36-.02.76-.38,1.17-1.36-1.05-.13-1.56.03-1.76.33-.12.19-.14.44-.09.7-.04.04-.07.08-.11.13-.42-.3-.82-.56-1.18-.81.02-.03.05-.05.07-.07.19.15.39.24.6.23.36-.02.76-.38,1.17-1.36-1.05-.13-1.56.03-1.76.34-.11.17-.13.39-.1.63-.05.04-.09.09-.13.13-.42-.28-.81-.52-1.16-.74.03-.03.06-.06.09-.08.19.15.39.24.59.23.36-.02.76-.38,1.17-1.36-1.05-.13-1.56.03-1.76.34-.11.17-.13.4-.1.64-.06.04-.11.09-.16.14-.48-.29-.9-.52-1.25-.7.33.05.8-.12,1.5-.65-.63-.48-1.08-.66-1.4-.66.34-.17.72-.39,1.16-.65.05.05.1.1.16.15-.03.24-.01.46.1.64.2.3.71.47,1.76.33-.41-.98-.81-1.34-1.17-1.36-.21-.01-.41.08-.6.23-.03-.03-.06-.06-.09-.09.35-.21.74-.46,1.16-.74.04.05.08.09.13.14-.03.24-.01.46.1.63.2.3.71.47,1.76.33-.41-.98-.81-1.34-1.17-1.36-.21-.01-.41.08-.6.23-.02-.02-.05-.05-.07-.08.37-.24.76-.51,1.18-.81.03.05.07.09.11.13-.05.26-.03.51.09.7.2.3.71.47,1.76.33-.41-.98-.81-1.34-1.17-1.36-.19-.01-.38.07-.55.2-.03-.03-.06-.07-.08-.11.19-.13.38-.27.58-.41.2.16.41.27.63.25.36-.02.76-.38,1.17-1.36-1.05-.13-1.56.03-1.76.34-.12.18-.14.42-.09.67-.22.1-.44.2-.65.3-.02-.04-.04-.08-.05-.13.2-.09.36-.21.44-.38.16-.32.05-.85-.59-1.69-.64.85-.75,1.37-.59,1.69.1.2.31.34.56.43.02.05.04.11.06.16-.47.22-.9.43-1.29.62-.01-.03-.02-.06-.03-.1.22-.09.41-.22.5-.4.16-.32.05-.85-.59-1.69-.64.85-.75,1.37-.59,1.69.09.18.27.31.5.4.01.06.03.12.05.18-.45.23-.86.44-1.22.64-.01-.04-.02-.08-.03-.12.22-.09.4-.22.49-.4.16-.32.05-.85-.59-1.69-.64.85-.75,1.37-.59,1.69.09.19.28.32.51.41,0,.07.03.14.05.21-.49.27-.9.52-1.23.73.2-.26.29-.76.18-1.62-.73.31-1.11.61-1.27.89.02-.38.02-.82.01-1.33.07-.02.14-.04.21-.06.19.15.39.24.6.23.36-.02.76-.38,1.17-1.36-1.05-.13-1.56.03-1.76.34-.11.17-.13.39-.1.63-.04.01-.08.03-.12.04-.01-.41-.03-.87-.06-1.38.06-.01.12-.03.18-.05.19.15.39.24.59.23.36-.02.76-.38,1.17-1.36-1.05-.13-1.56.03-1.76.33-.11.17-.13.4-.1.63-.03,0-.07.02-.1.02-.03-.44-.06-.91-.11-1.43.06,0,.11-.01.17-.03.2.17.42.29.65.27.36-.02.76-.38,1.17-1.36-1.05-.13-1.56.03-1.76.33-.1.16-.13.36-.11.58-.04,0-.09.02-.14.02-.02-.23-.04-.47-.07-.71.24-.09.44-.22.53-.42.16-.32.05-.85-.59-1.69-.64.85-.75,1.37-.59,1.69.1.19.29.33.53.42-.02.24-.05.48-.07.71-.05,0-.09-.01-.13-.02.02-.22,0-.42-.11-.57-.2-.3-.71-.47-1.76-.33.41.98.81,1.34,1.17,1.36.23.01.45-.1.65-.27.05.01.11.02.17.03-.04.51-.08.99-.11,1.43-.03,0-.07-.01-.1-.02.03-.24.01-.46-.1-.63-.2-.3-.71-.47-1.76-.33.41.98.81,1.34,1.17,1.36.21.01.41-.08.6-.23.06.02.12.03.18.05-.03.51-.05.96-.06,1.37-.04-.01-.08-.02-.12-.04.03-.24.01-.46-.1-.63-.2-.3-.71-.47-1.76-.34.41.98.81,1.34,1.17,1.36.21.01.41-.08.6-.23.07.03.13.05.2.06-.01.56,0,1.04.02,1.44-.12-.31-.51-.63-1.31-.97-.1.79-.03,1.27.13,1.54-.32-.2-.7-.43-1.15-.68.02-.07.04-.14.05-.21.22-.09.41-.22.5-.4.16-.32.05-.85-.59-1.69-.64.85-.75,1.37-.59,1.69.09.18.27.31.5.4,0,.04-.02.08-.03.12-.36-.2-.77-.41-1.22-.64.02-.06.04-.12.05-.18.22-.09.4-.22.49-.4.16-.32.05-.85-.59-1.69-.64.85-.75,1.37-.59,1.69.09.19.28.31.5.4,0,.03-.02.07-.03.1-.39-.2-.82-.4-1.29-.62.02-.05.04-.1.06-.16.25-.09.46-.22.56-.43.16-.32.05-.85-.59-1.69-.64.85-.75,1.37-.59,1.69.08.17.25.29.45.38-.01.04-.03.09-.05.13-.21-.1-.42-.2-.65-.3.04-.25.03-.49-.09-.67-.2-.3-.71-.47-1.76-.34.41.98.81,1.34,1.17,1.36.22.01.43-.09.63-.25.2.14.39.28.58.41-.03.04-.06.07-.09.11-.17-.13-.36-.21-.55-.19-.36.02-.76.38-1.17,1.36,1.05.13,1.56-.03,1.76-.33.12-.19.14-.44.09-.7.04-.04.07-.08.11-.13.42.3.82.56,1.18.81-.02.03-.05.05-.07.07-.19-.15-.39-.24-.6-.23-.36.02-.76.38-1.17,1.36,1.05.13,1.56-.03,1.76-.33.11-.17.13-.39.1-.63.05-.04.09-.09.13-.13.42.28.81.52,1.16.74-.03.03-.06.06-.09.08-.19-.15-.39-.24-.59-.23-.36.02-.76.38-1.17,1.36,1.05.13,1.56-.03,1.76-.34.11-.17.13-.4.1-.64.06-.04.11-.09.16-.14.48.29.9.52,1.25.7-.33-.05-.8.12-1.5.65.63.48,1.08.66,1.4.66-.34.17-.72.39-1.16.65-.05-.05-.1-.1-.16-.15.03-.24.01-.46-.1-.63-.2-.3-.71-.47-1.76-.33.41.98.81,1.34,1.17,1.36.21.01.41-.08.6-.23.03.03.06.06.09.09-.35.21-.74.46-1.16.74-.04-.05-.08-.09-.13-.14.03-.24.01-.46-.1-.63-.2-.3-.71-.47-1.76-.33.41.98.81,1.34,1.17,1.36.21.01.41-.08.6-.23.02.02.05.05.07.08-.37.24-.76.51-1.18.81-.03-.05-.07-.09-.11-.13.05-.26.04-.51-.09-.7-.2-.3-.71-.47-1.76-.33.41.98.81,1.34,1.17,1.36.19.01.38-.07.55-.2.03.03.06.07.09.11-.19.13-.38.27-.58.41-.2-.16-.41-.27-.63-.25-.36.02-.76.38-1.17,1.36,1.05.13,1.56-.03,1.76-.33.12-.18.14-.42.09-.67.22-.1.44-.2.65-.3.02.04.04.08.05.13-.2.09-.36.21-.44.38-.16.32-.05.85.59,1.69.64-.85.75-1.37.59-1.69-.1-.2-.31-.34-.56-.43-.02-.05-.04-.1-.06-.16.47-.22.9-.43,1.29-.62.01.03.02.06.03.1-.22.09-.4.22-.5.4-.16.32-.05.85.59,1.69.64-.85.75-1.37.59-1.69-.09-.18-.28-.31-.5-.4-.01-.06-.03-.12-.05-.18.45-.23.86-.44,1.22-.64.01.04.02.08.03.12-.22.09-.4.22-.49.4-.16.32-.05.85.59,1.69.64-.85.75-1.37.59-1.69-.09-.19-.28-.32-.5-.41,0-.07-.03-.14-.05-.21.49-.27.9-.52,1.23-.73-.2.26-.29.76-.18,1.62.73-.31,1.11-.61,1.27-.89-.02.38-.02.82-.01,1.33-.07.02-.14.04-.21.06-.19-.15-.39-.24-.6-.23-.36.02-.76.38-1.17,1.36,1.05.13,1.56-.03,1.76-.34.11-.17.13-.39.1-.63.04-.01.08-.03.12-.04.01.41.03.87.06,1.38-.06.01-.12.03-.18.05-.19-.15-.39-.24-.59-.23-.36.02-.76.38-1.17,1.36,1.05.13,1.56-.03,1.76-.33.11-.17.13-.4.1-.64.03,0,.07-.02.1-.02.03.44.06.91.11,1.43-.06,0-.11.01-.17.03-.2-.17-.42-.29-.65-.27-.36.02-.76.38-1.17,1.36,1.05.13,1.56-.03,1.76-.34.1-.16.13-.36.11-.58.04,0,.09-.02.14-.02.02.23.04.47.07.71-.24.09-.44.22-.53.42-.16.32-.05.85.59,1.69.64-.85.75-1.37.59-1.69-.1-.19-.29-.33-.53-.42.02-.24.05-.48.07-.71.05,0,.09.01.13.02-.02.22,0,.42.11.57.2.3.71.47,1.76.34-.41-.98-.81-1.34-1.17-1.36-.23-.01-.45.1-.65.27-.05-.01-.11-.02-.17-.03.04-.51.08-.99.11-1.43.03,0,.07.01.1.02-.03.24-.01.46.1.63.2.3.71.47,1.76.33-.41-.98-.81-1.34-1.17-1.36-.21-.01-.41.08-.6.23-.06-.02-.12-.03-.18-.05.03-.51.05-.96.06-1.37.04.01.08.02.12.04-.03.24-.01.46.1.63.2.3.71.47,1.76.34-.41-.98-.81-1.34-1.17-1.36-.21-.01-.41.08-.6.23-.07-.03-.13-.05-.2-.06.01-.56,0-1.04-.02-1.44.12.31.51.63,1.31.97.1-.79.03-1.27-.13-1.54.32.2.7.43,1.15.68-.02.07-.04.14-.05.21-.22.09-.41.22-.5.4-.16.32-.05.85.59,1.69.64-.85.75-1.37.59-1.69-.09-.18-.27-.31-.5-.4,0-.04.02-.08.03-.12.36.2.77.41,1.22.64-.02.06-.04.12-.05.18-.22.09-.4.22-.49.4-.16.32-.05.85.59,1.69.64-.85.75-1.37.59-1.69-.09-.19-.28-.31-.5-.4,0-.03.02-.07.03-.1.39.2.82.4,1.29.62-.02.05-.04.1-.06.16-.25.09-.46.22-.56.43-.16.32-.05.85.59,1.69.64-.85.75-1.37.59-1.69-.08-.17-.25-.29-.44-.38.01-.04.03-.09.05-.13.21.1.42.2.65.3-.04.25-.03.49.09.67.2.3.71.47,1.76.34-.41-.98-.81-1.34-1.17-1.36ZM39.93,14.97c-.13.15-.23.31-.27.48-.06-.65-.16-1.09-.28-1.39-.11.29-.21.71-.27,1.32-.05-.13-.14-.27-.25-.39-.2-.04-.39-.04-.55,0,.53-.37.87-.68,1.07-.93-.31.05-.72.17-1.28.43.09-.11.16-.25.22-.41-.06-.19-.16-.36-.28-.48.59.28,1.03.41,1.34.46-.19-.24-.51-.54-1.01-.89.14.02.3.01.46-.02.13-.15.23-.31.27-.48.06.65.16,1.09.28,1.39.11-.29.21-.71.27-1.32.05.13.14.27.25.39.2.04.39.04.55,0-.53.37-.87.68-1.07.93.31-.05.72-.17,1.28-.43-.09.11-.16.25-.22.41.07.19.16.36.28.48-.59-.28-1.03-.41-1.34-.46.19.24.51.54,1.01.89-.14-.02-.3-.01-.46.02Z"/>
</svg>