<?xml version="1.0" encoding="UTF-8"?>
<svg id="Layer_3" data-name="Layer 3" xmlns="http://www.w3.org/2000/svg" xmlns:xlink="http://www.w3.org/1999/xlink" viewBox="0 0 160 160">
  <defs>
    <style>
      .cls-1 {
        fill: url(#linear-gradient-19);
      }

      .cls-1, .cls-2, .cls-3, .cls-4, .cls-5, .cls-6, .cls-7, .cls-8, .cls-9, .cls-10, .cls-11, .cls-12, .cls-13, .cls-14, .cls-15, .cls-16, .cls-17, .cls-18, .cls-19, .cls-20, .cls-21, .cls-22 {
        stroke: #3e2723;
        stroke-miterlimit: 10;
        stroke-width: .5px;
      }

      .cls-2 {
        fill: url(#linear-gradient-17);
      }

      .cls-3 {
        fill: url(#linear-gradient-27);
      }

      .cls-23 {
        fill: url(#linear-gradient-2);
      }

      .cls-24 {
        fill: url(#linear-gradient-10);
      }

      .cls-25 {
        fill: url(#linear-gradient-12);
      }

      .cls-4 {
        fill: url(#linear-gradient-32);
      }

      .cls-5 {
        fill: url(#linear-gradient-21);
      }

      .cls-6 {
        fill: url(#linear-gradient-25);
      }

      .cls-7 {
        fill: url(#linear-gradient-20);
      }

      .cls-26 {
        fill: url(#linear-gradient-4);
      }

      .cls-8 {
        fill: url(#linear-gradient-26);
      }

      .cls-9 {
        fill: url(#linear-gradient-14);
      }

      .cls-27 {
        fill: url(#linear-gradient-3);
      }

      .cls-10 {
        fill: url(#linear-gradient-29);
      }

      .cls-28 {
        fill: url(#linear-gradient-5);
      }

      .cls-11 {
        fill: url(#linear-gradient-34);
      }

      .cls-12 {
        fill: url(#linear-gradient-15);
      }

      .cls-13 {
        fill: url(#linear-gradient-13);
      }

      .cls-29 {
        fill: url(#linear-gradient-8);
      }

      .cls-30 {
        fill: url(#linear-gradient-7);
      }

      .cls-31 {
        fill: url(#linear-gradient-9);
      }

      .cls-14 {
        fill: url(#linear-gradient-30);
      }

      .cls-32 {
        fill: url(#linear-gradient-11);
      }

      .cls-33 {
        fill: url(#linear-gradient-6);
      }

      .cls-15 {
        fill: url(#linear-gradient-18);
      }

      .cls-16 {
        fill: url(#linear-gradient-33);
      }

      .cls-17 {
        fill: url(#linear-gradient-23);
      }

      .cls-18 {
        fill: url(#linear-gradient-16);
      }

      .cls-34 {
        fill: url(#linear-gradient);
      }

      .cls-19 {
        fill: url(#linear-gradient-22);
      }

      .cls-20 {
        fill: url(#linear-gradient-28);
      }

      .cls-21 {
        fill: url(#linear-gradient-31);
      }

      .cls-35 {
        fill: #3e2723;
      }

      .cls-22 {
        fill: url(#linear-gradient-24);
      }
    </style>
    <linearGradient id="linear-gradient" x1="12.68" y1="94.35" x2="12.68" y2="65.04" gradientUnits="userSpaceOnUse">
      <stop offset="0" stop-color="#00816d"/>
      <stop offset="1" stop-color="#86a700"/>
    </linearGradient>
    <linearGradient id="linear-gradient-2" x1="24.37" y1="98.59" x2="24.37" y2="64.4" xlink:href="#linear-gradient"/>
    <linearGradient id="linear-gradient-3" x1="36.91" y1="99.34" x2="36.91" y2="77.6" xlink:href="#linear-gradient"/>
    <linearGradient id="linear-gradient-4" x1="51.77" y1="99.26" x2="51.77" y2="77.43" xlink:href="#linear-gradient"/>
    <linearGradient id="linear-gradient-5" x1="65.34" y1="96.98" x2="65.34" y2="75.73" xlink:href="#linear-gradient"/>
    <linearGradient id="linear-gradient-6" x1="77.54" y1="94.74" x2="77.54" y2="72.63" xlink:href="#linear-gradient"/>
    <linearGradient id="linear-gradient-7" x1="89.95" y1="100.5" x2="89.95" y2="69.5" xlink:href="#linear-gradient"/>
    <linearGradient id="linear-gradient-8" x1="100.64" y1="88.14" x2="100.64" y2="67.64" xlink:href="#linear-gradient"/>
    <linearGradient id="linear-gradient-9" x1="110.87" y1="86.85" x2="110.87" y2="67.39" xlink:href="#linear-gradient"/>
    <linearGradient id="linear-gradient-10" x1="122.72" y1="99.25" x2="122.72" y2="67.47" xlink:href="#linear-gradient"/>
    <linearGradient id="linear-gradient-11" x1="135.04" y1="88.36" x2="135.04" y2="65.73" xlink:href="#linear-gradient"/>
    <linearGradient id="linear-gradient-12" x1="145.26" y1="100.33" x2="145.26" y2="70.09" xlink:href="#linear-gradient"/>
    <linearGradient id="linear-gradient-13" x1="10.97" y1="65.15" x2="10.97" y2="101.66" gradientUnits="userSpaceOnUse">
      <stop offset="0" stop-color="#d5ab82"/>
      <stop offset="0" stop-color="#d5aa81"/>
      <stop offset=".23" stop-color="#d8a366"/>
      <stop offset=".42" stop-color="#da9e55"/>
      <stop offset=".57" stop-color="#db9d50"/>
      <stop offset=".63" stop-color="#d6994e"/>
      <stop offset=".7" stop-color="#c88e4a"/>
      <stop offset=".78" stop-color="#b17d44"/>
      <stop offset=".85" stop-color="#90653a"/>
      <stop offset=".93" stop-color="#67462f"/>
      <stop offset="1" stop-color="#3e2723"/>
    </linearGradient>
    <linearGradient id="linear-gradient-14" x1="22.68" y1="65.45" x2="22.68" y2="101.7" xlink:href="#linear-gradient-13"/>
    <linearGradient id="linear-gradient-15" x1="35.41" y1="65.45" x2="35.41" y2="101.71" xlink:href="#linear-gradient-13"/>
    <linearGradient id="linear-gradient-16" x1="51.3" y1="65.9" x2="51.3" y2="101.56" xlink:href="#linear-gradient-13"/>
    <linearGradient id="linear-gradient-17" x1="64.79" y1="65.74" x2="64.79" y2="101.3" xlink:href="#linear-gradient-13"/>
    <linearGradient id="linear-gradient-18" x1="77.35" y1="66" x2="77.35" y2="100.97" xlink:href="#linear-gradient-13"/>
    <linearGradient id="linear-gradient-19" x1="90.06" y1="65.81" x2="90.06" y2="100.78" xlink:href="#linear-gradient-13"/>
    <linearGradient id="linear-gradient-20" x1="102.31" y1="65.94" x2="102.31" y2="100.25" xlink:href="#linear-gradient-13"/>
    <linearGradient id="linear-gradient-21" x1="114.05" y1="66.01" x2="114.05" y2="100.01" xlink:href="#linear-gradient-13"/>
    <linearGradient id="linear-gradient-22" x1="122.9" y1="66.11" x2="122.9" y2="99.86" xlink:href="#linear-gradient-13"/>
    <linearGradient id="linear-gradient-23" x1="135.1" y1="66.27" x2="135.1" y2="99.79" xlink:href="#linear-gradient-13"/>
    <linearGradient id="linear-gradient-24" x1="144.79" y1="66.51" x2="144.79" y2="99.79" xlink:href="#linear-gradient-13"/>
    <linearGradient id="linear-gradient-25" x1="47.77" y1="119.68" x2="47.77" y2="128.75" gradientUnits="userSpaceOnUse">
      <stop offset="0" stop-color="#e0a151"/>
      <stop offset="0" stop-color="#dda14e"/>
      <stop offset=".1" stop-color="#b7a32c"/>
      <stop offset=".19" stop-color="#9ca514"/>
      <stop offset=".27" stop-color="#8ba605"/>
      <stop offset=".33" stop-color="#86a700"/>
      <stop offset=".43" stop-color="#83a201"/>
      <stop offset=".55" stop-color="#7b9405"/>
      <stop offset=".69" stop-color="#6e7d0b"/>
      <stop offset=".82" stop-color="#5c5d14"/>
      <stop offset=".96" stop-color="#45341f"/>
      <stop offset="1" stop-color="#3e2723"/>
    </linearGradient>
    <linearGradient id="linear-gradient-26" x1="56.93" y1="121.9" x2="56.93" y2="128.88" xlink:href="#linear-gradient-25"/>
    <linearGradient id="linear-gradient-27" x1="64.88" y1="119.43" x2="64.88" xlink:href="#linear-gradient-25"/>
    <linearGradient id="linear-gradient-28" x1="71.79" y1="121.9" x2="71.79" y2="128.88" xlink:href="#linear-gradient-25"/>
    <linearGradient id="linear-gradient-29" x1="80.54" x2="80.54" xlink:href="#linear-gradient-25"/>
    <linearGradient id="linear-gradient-30" x1="85.24" y1="119.93" x2="85.24" y2="128.89" xlink:href="#linear-gradient-25"/>
    <linearGradient id="linear-gradient-31" x1="95.42" x2="95.42" xlink:href="#linear-gradient-25"/>
    <linearGradient id="linear-gradient-32" x1="103.02" y1="121.9" x2="103.02" y2="128.88" xlink:href="#linear-gradient-25"/>
    <linearGradient id="linear-gradient-33" x1="110.8" y1="121.9" x2="110.8" y2="128.88" xlink:href="#linear-gradient-25"/>
    <linearGradient id="linear-gradient-34" x1="117.22" y1="119.43" x2="117.22" y2="128.88" xlink:href="#linear-gradient-25"/>
  </defs>
  <rect class="cls-35" x="46.81" y="81.41" width="8.21" height="17.86" transform="translate(21.5 -9.1) rotate(12.93)"/>
  <g>
    <path class="cls-35" d="M143.48,136.7H16.52c-6.53,0-11.85-5.31-11.85-11.85,0-1.07.86-1.93,1.93-1.93s1.93.86,1.93,1.93c0,4.4,3.58,7.99,7.99,7.99h126.97c4.4,0,7.99-3.58,7.99-7.99,0-1.07.86-1.93,1.93-1.93s1.93.86,1.93,1.93c0,6.53-5.31,11.85-11.85,11.85ZM153.4,51.88c-1.07,0-1.93-.86-1.93-1.93,0-4.4-3.58-7.99-7.99-7.99h-34.85c-1.06,0-1.93-.86-1.93-1.92-.02-6.98-3.54-12.88-7.7-12.88h-38c-4.16,0-7.68,5.9-7.7,12.88,0,1.06-.87,1.93-1.93,1.93h-9.4c-1.05,0-1.9-.83-1.93-1.88-.07-2.65-1.37-4.35-2.23-4.35h-15.62c-.86,0-2.15,1.69-2.23,4.35-.03,1.04-.88,1.88-1.93,1.88h-1.52c-4.4,0-7.99,3.58-7.99,7.99,0,1.07-.86,1.93-1.93,1.93s-1.93-.86-1.93-1.93c0-6.46,5.2-11.73,11.64-11.84.68-3.65,3.02-6.23,5.89-6.23h15.62c2.87,0,5.21,2.57,5.89,6.22h5.82c.66-8.44,5.47-14.8,11.48-14.8h38c6.01,0,10.82,6.36,11.48,14.8h33c6.53,0,11.85,5.31,11.85,11.85,0,1.07-.86,1.93-1.93,1.93Z"/>
    <g>
      <path class="cls-35" d="M80.02,116.08c-19.5,0-35.37-15.87-35.37-35.37s15.87-35.37,35.37-35.37,35.37,15.87,35.37,35.37-15.87,35.37-35.37,35.37ZM80.02,48.87c-17.56,0-31.85,14.29-31.85,31.85s14.29,31.85,31.85,31.85,31.85-14.29,31.85-31.85-14.29-31.85-31.85-31.85Z"/>
      <path class="cls-35" d="M54.15,82.47c-.97,0-1.76-.79-1.76-1.76,0-15.23,12.39-27.63,27.63-27.63.97,0,1.76.79,1.76,1.76s-.79,1.76-1.76,1.76c-13.29,0-24.11,10.81-24.11,24.11,0,.97-.79,1.76-1.76,1.76Z"/>
    </g>
  </g>
  <g>
    <path class="cls-34" d="M5.91,92.9c1.42-9.29,2.84-18.57,4.27-27.85,2.33.12,3.49.18,5.82.28.66.03,1.23.41,1.71,1.2.48.78.86,1.82,1.15,3.1.28,1.28.46,2.74.54,4.37.08,1.63.04,3.23-.11,4.79-.16,1.63-.43,3.16-.8,4.56-.37,1.41-.82,2.58-1.34,3.51-.52.93-1.11,1.62-1.75,1.75-.65.13-1.32.02-2-.35-.92-.5-1.38-.77-2.3-1.33-.5,3.03-.74,4.52-1.24,7.45-1.57-.54-2.36-.83-3.94-1.45ZM12.06,79.73c.81.4,1.21.6,2.01.97.23.11.48-.05.74-.48.26-.43.47-1.34.63-2.72.16-1.41.15-2.42-.02-3.01-.17-.58-.38-.9-.61-.97-.76-.22-1.13-.33-1.89-.56-.35,2.74-.52,4.09-.87,6.78Z"/>
    <path class="cls-23" d="M28.91,98.59c-1.53-.18-2.3-.28-3.84-.52.53-2.3.79-1.95,1.32-8.17.12-1.37.08-2.41-.09-3.09-.18-.68-.43-1.07-.77-1.15-.12-.03-.27.04-.45.19-.18.16-.37.38-.56.67-.19.29-.38.67-.57,1.11-.19.45-.35.95-.5,1.51-.55,6.09-.83,5.89-1.39,8.41-1.53-.29-2.3-.45-3.84-.81,2.44-10.41,2.7-21.78,3.66-32.34,1.44.02,2.17.03,3.61.04-.53,6.98-.79,10.29-1.32,16.52.5-1.5,1.07-2.64,1.72-3.4.65-.76,1.33-1.1,2.05-1,.71.11,1.25.56,1.62,1.38.37.82.63,1.81.77,2.95.14,1.15.2,2.35.17,3.61-.03,1.26-.08,2.41-.16,3.47-.57,7.56-.86,8.16-1.43,10.61Z"/>
    <path class="cls-27" d="M35.96,99.33c-.96-.05-1.77-.21-2.43-.52-.66-.31-1.19-.72-1.58-1.25-.39-.54-.64-1.19-.76-1.98-.11-.79-.1-1.12.05-2.99.15-1.86.41-3.7.78-5.5.37-1.8.85-3.42,1.42-4.83.57-1.42,1.23-2.57,1.98-3.43.75-.86,1.57-1.28,2.49-1.22.9.06,1.67.57,2.32,1.53.65.96,1.17,2.2,1.56,3.67.39,1.48.66,3.13.8,4.9.14,1.78.15,3.54.04,5.28-.11,1.74-.34,2.29-.69,3.1-.35.81-.81,1.43-1.38,1.92-.57.49-1.24.82-2.02,1.05-.78.23-1.64.31-2.58.26ZM35.1,92.99c-.13,1.81-.06,2.01.21,2.51s.68.74,1.23.77c.55.03,1.03-.18,1.44-.66.41-.48.68-.73.8-2.5.12-1.77.04-3.24-.23-4.33-.27-1.09-.67-1.68-1.21-1.71-.54-.03-1.01.5-1.42,1.57-.41,1.07-.69,2.54-.82,4.35Z"/>
    <path class="cls-26" d="M56.83,78.09c1.38-.26,2.08-.39,3.46-.66-2.01,11.96-3.05,16.99-5.21,21.34-1.25.1-1.88.15-3.13.22-.39-1.46-.58-2.44-.96-4.85-.75,2.59-1.14,3.57-1.91,5.01-1.25.06-1.88.08-3.13.12-1.16-3.49-1.7-7.69-2.71-20.81,1.38.03,2.08.04,3.46.03.58,8.7.89,12.98,1.53,16.81.38-1.29.57-1.96.95-4.07-.5-4.29-.74-6.88-1.2-12.75,1.17-.01,1.75-.02,2.92-.06.2,3.71.3,5.41.5,8.45.5-3.12.75-4.81,1.24-8.5,1.17-.04,1.75-.07,2.92-.13-.92,5.65-1.39,8.09-2.35,12.34.16,1.89.24,2.6.41,3.97,1.32-4.58,1.96-8.12,3.22-16.45Z"/>
    <path class="cls-28" d="M65.02,96.8c-.96.23-1.79.24-2.48.04-.7-.2-1.27-.54-1.72-1.09-.45-.55-.77-1.28-.96-2.27-.19-.99-.26-2.13-.2-3.55.06-1.42.24-2.93.54-4.5.3-1.57.7-3.08,1.21-4.46.51-1.37,1.12-2.56,1.83-3.49.71-.94,1.52-1.5,2.44-1.69.9-.19,1.69.03,2.37.6.68.57,1.25,1.36,1.7,2.36.45,1,.79,2.15,1,3.45.22,1.3.31,2.65.29,4.05s-.17,2.64-.44,3.85c-.27,1.21-.66,2.27-1.17,3.2-.51.92-1.14,1.67-1.88,2.28-.74.61-1.59,1-2.53,1.22ZM63.51,88.78c-.05,1.39.09,2.26.4,2.82.32.57.75.74,1.3.57.55-.17,1-.63,1.37-1.43.37-.79.57-1.78.6-3.17.04-1.38-.1-2.48-.42-3.22-.32-.74-.74-1.06-1.28-.89-.54.16-.98.75-1.35,1.72-.37.97-.57,2.21-.62,3.6Z"/>
    <path class="cls-33" d="M82.88,91.93c-1.53.41-2.3.61-3.84,1.02,0-4.24.01-6.39.02-10.87,0-.98-.11-1.66-.34-2.03-.23-.37-.49-.5-.79-.4-.31.11-.65.49-1,1.16-.36.67-.62,1.47-.8,2.38-.04,4.55-.05,6.59-.09,10.55-1.53.4-2.3.61-3.84,1,.13-6.47.2-10.48.33-19.98,1.32-.31,1.98-.46,3.3-.77-.01,1.32-.02,1.96-.03,3.24.37-1.28.89-2.32,1.54-3.09.65-.77,1.42-1.24,2.31-1.44.7-.16,1.25-.04,1.65.35s.72.89.94,1.53.36,1.35.43,2.13c.07.78.11,1.5.11,2.16.03,5.07.05,7.7.09,13.06Z"/>
    <path class="cls-30" d="M88.81,90.37c-.69.18-1.32.04-1.9-.36-.58-.41-1.08-1.02-1.49-1.84-.41-.81-.73-1.79-.96-2.95-.23-1.15-.35-2.43-.37-3.81-.01-1.45.09-2.81.31-4.09.22-1.27.54-2.38.95-3.32.41-.94.9-1.7,1.47-2.28.57-.58,1.21-.93,1.9-1.08.73-.16,1.38-.08,1.95.22.57.3,1.03.81,1.38,1.58-.03-.93-.05-1.38-.08-2.24,1.27-.29,1.91-.43,3.19-.7.25,4.73.37,8.06.62,16.85.05,1.9-.05,3.76-.32,5.5-.27,1.73-.68,3.28-1.22,4.56-.54,1.28-1.22,2.29-2.01,3-.79.71-1.69,1.06-2.67,1.09-1.15.03-2.16-.36-3.01-1.08-.86-.72-1.62-1.71-2.28-2.94.8-1.82,1.2-2.77,1.98-4.7.4.65.88,1.19,1.43,1.61.56.42,1.15.59,1.77.48.35-.07.69-.24,1-.51.31-.28.59-.68.82-1.21.23-.53.41-1.2.54-1.99.13-.79.18-1.72.15-2.74-.01-.6-.02-.89-.03-1.47-.28,1.29-.7,2.33-1.26,3.07-.56.74-1.18,1.19-1.87,1.37ZM90.06,83.69c.39-.13.72-.42,1-.88.28-.46.53-1.09.77-1.88-.04-1.47-.06-2.16-.09-3.47-.21-.77-.5-1.32-.87-1.67-.37-.35-.75-.46-1.14-.33-.26.09-.5.27-.73.56-.22.29-.42.64-.58,1.06-.16.42-.29.89-.37,1.43-.08.54-.12,1.1-.11,1.68.02,1.19.23,2.16.63,2.81.4.65.9.89,1.5.69Z"/>
    <path class="cls-29" d="M104.26,71.62c-.72.11-1.36.42-1.94.81-.57.4-.99.93-1.24,1.62.22,4.09.33,6.79.55,13.21-1.53.34-2.3.51-3.84.88-.31-10.35-.46-14.14-.77-19.03,1.35-.28,2.02-.42,3.36-.69.07.83.1,1.3.17,2.35.3-1.02.7-1.73,1.2-2.24.5-.51,1.09-.81,1.68-.88.23-.03.4-.02.47,0,.14,1.21.21,2.01.35,3.98Z"/>
    <path class="cls-31" d="M109.23,86.85c-.52.03-1.03-.18-1.5-.61-.48-.44-.9-1.04-1.26-1.78-.36-.74-.66-1.61-.89-2.57s-.37-1.97-.42-3.01c-.06-1.15,0-2.16.18-3.06.18-.91.45-1.61.81-2.21.36-.59.8-1.05,1.32-1.38s1.11-.54,1.77-.62c.84-.11,1.55-.01,2.13.28-.02-.17-.03-.26-.04-.42-.06-.64-.25-1.06-.56-1.31-.31-.25-.78-.35-1.4-.3-.59.05-1.11.21-1.59.5-.47.29-.96.72-1.47,1.32-.54-1.27-.8-1.83-1.33-2.81,1.25-1.07,2.72-1.43,4.43-1.48,1.62-.05,2.92.19,3.9.81.99.62,1.59,1.62,1.81,3.5.12,1.03.18,1.55.3,3.44.05.83.14,1.43.27,1.76.13.33.33.52.59.57.19,3.15.29,4.85.48,8.51-.3.19-.59.34-.86.44-.27.1-.51.15-.73.16-.69.02-1.23-.32-1.62-1-.39-.68-.67-1.67-.84-2.93-.05-.4-.08-.6-.13-.99-.39,1.58-.87,2.86-1.45,3.76-.58.89-1.22,1.37-1.92,1.41ZM110.04,79.7c.23-.03.45-.14.69-.34.23-.2.44-.46.6-.77.14-.26.24-.56.31-.87.08-.31.11-.61.09-.92-.04-.72-.06-1.07-.1-1.75-.24-.14-.49-.25-.76-.32-.27-.07-.51-.09-.72-.05-.46.08-.83.39-1.11.92-.28.53-.39,1.17-.35,1.94.03.65.18,1.19.43,1.6.26.41.56.6.92.56Z"/>
    <path class="cls-24" d="M125.35,86.71c-.77-.04-1.46-.5-2.08-1.38-.62-.87-1.13-2.12-1.54-3.68.4,6.31.6,9.83,1,17.57-1.56,0-2.34.02-3.9.03-.54-10.53-.63-21.33-2.3-31.78,1.28.02,1.91.03,3.19.08.11.44.16.68.27,1.23.27-.48.64-.79,1.11-.99.47-.2,1.1-.26,1.87-.22.67.04,1.32.17,1.95.42.63.25,1.2.58,1.71,1.02.51.45.95,1,1.33,1.68.38.69.64,1.47.8,2.36.16.91.2,3.28.11,4.98-.09,1.7-.29,3.23-.59,4.53-.3,1.31-.71,2.34-1.2,3.08-.5.74-1.07,1.1-1.72,1.06ZM123.44,77.9c.28.01.52-.13.74-.43.21-.3.38-.71.5-1.24.13-.53.21-1.14.26-1.82.05-.68.04-1.36-.02-1.74-.12-.79-.41-1.37-.86-1.81-.45-.44-.98-.66-1.59-.69-.69-.03-1.21.29-1.58,1.09.12.82.19.84.31,2.58.26,1.11.6,2.07,1.01,2.85.41.78.82,1.19,1.22,1.2Z"/>
    <path class="cls-32" d="M141.91,88.36c-1.53-.35-2.3-.5-3.84-.78-.56-6.21-.84-10.73-1.4-13.52-.12-.61-.33-1.07-.61-1.39-.28-.32-.59-.52-.93-.6-.12-.03-.25-.02-.4.02-.15.04-.29.11-.42.21-.13.1-.25.23-.35.4-.1.17-.17.37-.21.61.53,2.68.79,7.38,1.32,13.78-1.53-.23-2.3-.32-3.84-.49-1.22-16.33-1.83-18.18-3.05-20.88,1.44.02,2.16.03,3.61.04.51,1.35.76,2.22,1.27,4.36.23-.47.61-.78,1.12-.95.51-.17,1.13-.2,1.85-.07.71.13,1.31.36,1.79.71.49.35.89.77,1.2,1.24.32.48.56.99.74,1.52.18.54.31,1.04.41,1.52.7,3.39,1.05,7.42,1.75,14.27Z"/>
    <path class="cls-25" d="M143.8,91.31c.68.67,1.24,1.04,1.67,1.12.83.16,1.15-.83.98-2.91-2.68-9.91-3.99-14.4-6.54-19.42,1.51.35,2.26.54,3.77.95,1.56,4.03,2.36,5.86,3.97,12.32-.17-5.74-.26-7.02-.47-11.28,1.37.44,2.05.67,3.42,1.17.04,7.88.03,10.69-.07,19.97-.01,1.02-.11,1.95-.29,2.79-.18.84-.44,1.59-.77,2.23-.33.64-.73,1.15-1.19,1.52-.46.37-.97.57-1.52.58-.7,0-1.41-.29-2.11-.95-.34-3.3-.5-4.92-.84-8.07Z"/>
  </g>
  <g>
    <path class="cls-13" d="M4.47,101.63c1.89-12.16,3.78-24.32,5.67-36.47,1.96.06,2.93.1,4.89.15.55.02,1.01.49,1.38,1.46.37.98.64,2.27.81,3.86.18,1.59.26,3.42.24,5.45-.01,2.02-.12,4.02-.33,5.97-.22,2.03-.52,3.93-.92,5.69-.4,1.76-.85,2.42-1.35,3.18-.5.76-1.05,1.31-1.64,1.67-.59.35-1.17.43-1.76.2-.78-.31-1.17-.48-1.96-.82-.66,3.96-1,5.89-1.66,9.69-1.35-.01-2.02-.02-3.37-.03ZM10.8,83.82c.68.41,1.02.61,1.71,1,.2.11.42-.11.68-.67.25-.56.48-1.71.69-3.45.22-1.78.26-3.05.15-3.77-.12-.72-.27-1.11-.47-1.18-.64-.22-.96-.34-1.6-.58-.46,3.5-.7,5.23-1.16,8.66Z"/>
    <path class="cls-9" d="M30.12,65.68c-.83,11.9-.54,24.48-4.04,36.01-1.35,0-2.02,0-3.37,0,.67-2.08,1.01-3.48,1.68-6.97-1.6-.38-2.39-.6-3.99-1.11-.72,3.77-1.08,5.39-1.8,8.07-1.35,0-2.02,0-3.37,0,2.74-11.97,3.67-24.04,4.86-36.25,1.25.03,1.87.05,3.12.08-.68,8.14-1.02,11.97-1.7,19.15,1.57.49,2.35.71,3.92,1.09.63-7.44.95-11.46,1.58-20.15,1.25.03,1.87.04,3.12.07Z"/>
    <path class="cls-12" d="M33.69,101.71c-.93,0-1.73-.06-2.38-.32-.65-.26-1.16-.68-1.51-1.35-.36-.67-.56-1.56-.61-2.74-.06-1.18.05-1.08.3-4.17.26-3.14.66-6.33,1.19-9.54.53-3.21,1.15-6.2,1.85-8.88.7-2.68,1.45-4.93,2.27-6.65.81-1.72,1.63-2.63,2.48-2.61.86.01,1.59.99,2.2,2.9.61,1.9,1.09,4.38,1.45,7.28.36,2.9.58,6.05.68,9.29.09,3.24.05,7.37-.14,9.06-.2,1.74-.54,3.13-1.02,4.21-.49,1.08-1.08,1.79-1.77,2.29-.69.5-1.47.77-2.32.96-.86.19-1.74.27-2.65.28ZM32.77,93.7c-.12.82-.19,1.56-.19,2.24,0,.67.06,1.23.2,1.69.14.46.35.82.64,1.08.29.27.67.4,1.15.43.48.03.91-.06,1.32-.29.4-.23.75-.54,1.06-.98.3-.44.56-.99.77-1.67.21-.69.37-.81.48-2.33.11-1.56.16-3.13.15-4.71,0-1.58-.08-3.03-.23-4.33-.14-1.29-.36-2.37-.64-3.21-.28-.83-.65-1.27-1.09-1.31-.46-.03-.88.36-1.26,1.17-.39.8-.73,1.87-1.04,3.18-.31,1.31-.57,2.76-.79,4.34-.22,1.58-.39,3.89-.51,4.69Z"/>
    <path class="cls-18" d="M47.44,65.97c1.14.01,1.72.02,2.86.04.1,8.35.16,12.02.27,18.2.7-6.24,1.04-9.85,1.72-18.18,1.14.01,1.72.02,2.86.03-1.13,12.83-1.71,17.82-2.9,25.49.16,3.22.24,4.05.41,5.88,2.32-10.22,2.92-20.98,3.88-31.36,1.35.01,2.03,0,3.39,0-1.26,11.63-1.33,24.66-6.42,35.38-1.12.02-1.68.02-2.8.04-.38-.48-.57-1.48-.91-4.76-1,3.41-1.52,4.31-2.56,4.81-1.12.01-1.68.02-2.8.03-2.03-11.65-1.49-23.9-1.78-35.66,1.35.02,2.02.03,3.37.05.16,10.63.15,21.31.71,31.94.54-1.67.81-2.09,1.34-5.66-.29-7.96-.42-13.34-.65-26.26Z"/>
    <path class="cls-2" d="M64.19,101.3c-.93.02-1.76-.15-2.48-.47-.72-.32-1.31-.75-1.77-1.46-.46-.7-.79-1.65-.99-3.08-.19-1.43-.24-3.18-.13-5.5.11-2.35.36-5.03.75-7.92.39-2.89.89-5.75,1.48-8.33.59-2.58,1.26-4.77,2.01-6.39.75-1.62,1.54-2.42,2.38-2.41.86,0,1.63.83,2.3,2.3.68,1.47,1.25,3.3,1.72,5.42.47,2.11.82,4.38,1.05,6.77.23,2.39.33,4.8.29,6.98-.05,2.25-.24,4.3-.59,6.15-.35,1.85-.81,3.36-1.4,4.56-.59,1.2-1.27,2.04-2.07,2.6-.79.56-1.65.77-2.56.78ZM62.11,89.96c-.05,1.16-.04,2.19.03,3.1.07.91.2,1.63.39,2.2.19.58.45.98.78,1.26.32.27.73.35,1.2.24.48-.11.9-.39,1.26-.87.37-.48.67-1.08.92-1.84.24-.76.43-1.64.57-2.66.14-1.02.22-2.05.25-3.23.03-1.21,0-2.42-.07-3.62s-.22-2.29-.42-3.24c-.2-.95-.46-1.72-.77-2.29-.32-.57-.7-.82-1.14-.71-.46.11-.86.56-1.21,1.33-.35.78-.65,1.76-.9,2.92-.25,1.16-.45,2.41-.6,3.71-.15,1.3-.24,2.59-.29,3.72Z"/>
    <path class="cls-15" d="M75.43,85.71c-.07,6.74-.1,9.78-.17,15.17-1.35.04-2.02.06-3.37.1.29-11.64.43-23.29.6-34.94.97,0,1.46,0,2.43,0,1.74,8.79,2.65,11.87,4.54,18.21,0-7.04,0-10.73.02-18.23,1.25,0,1.87,0,3.11-.01.08,11.56.15,23.11.22,34.67-1.07.03-1.61.05-2.68.08-1.95-6.53-2.89-8.97-4.7-15.03Z"/>
    <path class="cls-1" d="M93.16,96.35c-.81,2.94-1.79,4.41-2.93,4.43-.79.02-1.57-.5-2.3-1.44-.74-.94-1.39-2.26-1.94-3.91s-1-3.59-1.34-5.85c-.34-2.25-.52-4.83-.55-7.63-.02-2.42.11-4.67.39-6.73.28-2.06.68-3.81,1.19-5.24.51-1.42,1.11-2.47,1.8-3.18.69-.71,1.45-.99,2.27-.99.51,0,1,.12,1.48.31.48.2.93.48,1.35.84.42.36.81.79,1.16,1.32.35.52.65,1.14.9,1.9-.87,1.69-1.31,2.69-2.2,4.86-.27-1.11-.64-1.9-1.12-2.44-.48-.54-.97-.75-1.48-.62-.38.09-.72.37-1.03.83-.31.47-.57,1.09-.78,1.88-.21.79-.38,1.72-.49,2.82-.11,1.09-.16,2.26-.13,3.6.02,1.38.11,2.64.26,3.77.15,1.13.36,2.1.62,2.92.26.81.56,1.43.91,1.84.35.42.73.58,1.15.47.96-.24,1.78-1.86,2.45-4.7-.83.25-1.24.37-2.07.63-.07-3.07-.1-4.58-.17-7.19,1.94-.66,2.91-.99,4.84-1.61.26,6.92.39,11.78.65,23.05-1.11.03-1.67.05-2.78.08-.03-1.65-.05-2.45-.08-4.02Z"/>
    <path class="cls-7" d="M97.68,100.25c-.32-11.41-.43-22.91-1.34-34.3,2.08,0,3.12,0,5.21-.01.55,0,1.08.06,1.59.19.51.13.96.36,1.37.72.4.36.75.85,1.03,1.56.28.71.47,1.55.55,2.56.12,1.39.09,2.86-.11,4.74-.2,1.88-.53,3.62-1.01,5.05,1.29,6.04,1.95,9.98,3.3,19.26-1.52.02-2.28.02-3.8.06-1.09-7.62-1.63-10.72-2.68-15.95-.49.12-.74.18-1.23.31.2,5.39.29,8.54.49,15.73-1.35.04-2.02.05-3.37.09ZM100.18,75.33c.81-.23,1.22-.35,2.04-.56.2-.05.37-.41.5-1.01.14-.61.17-1.39.11-2.25-.06-.89-.21-1.45-.44-1.8-.23-.35-.44-.48-.64-.44-.77.16-1.15.24-1.92.41.14,1.83.2,2.96.34,5.66Z"/>
    <path class="cls-5" d="M110.06,66.01c1.14.01,1.71.02,2.84.03,5.51,9.58,5.63,23.61,6.94,33.83-1.37.01-2.05.02-3.42.04-.51-4.95-.77-7.27-1.27-11.53-1.29.03-1.93.05-3.22.09-.09,4.23-.14,6.52-.25,11.49-1.38.02-2.06.03-3.44.04.42-11.25.44-22.78,1.81-34ZM114.14,79.19c-.75-5.68-1.12-7.18-1.85-9.52-.11,2.38-.18,4.06-.31,9.7.87-.08,1.3-.12,2.16-.19Z"/>
    <path class="cls-19" d="M120.86,99.86c-.59-10.72-.29-23.07-3.08-33.75,1.96.03,2.93.04,4.89.08.55,0,1.1.08,1.64.25.54.17,1.04.42,1.5.78.46.36.86.83,1.22,1.44.35.61.61,1.29.77,2.04.17.78.24,1.61.21,2.48-.03.87-.16,2.94-.38,4.45-.22,1.51-.54,2.74-.96,3.67-.42.92-.92,1.38-1.51,1.35-.78-.04-1.17-.06-1.96-.09.41,6.25.61,9.71,1.02,17.3-1.35.01-2.02.02-3.37.03ZM122.41,72.34c.68.01,1.02.03,1.71.06.2,0,.36-.15.47-.45s.1-.86-.04-1.57c-.15-.73-.34-1.16-.59-1.4-.25-.24-.47-.35-.66-.37-.64-.04-.96-.06-1.6-.09.29,1.21.43,1.97.71,3.82Z"/>
    <path class="cls-17" d="M137.76,66.49c3.23,10.51,3.64,22.55,4.71,33.27-1.35,0-2.02,0-3.37,0-.7-8.32-1.05-12.2-1.74-19.4-1.6-.42-2.39-.59-3.99-.9.65,7.42.97,11.48,1.62,20.3-1.35,0-2.02,0-3.37.01-.78-10.75-.68-22.94-3.89-33.51,1.25.02,1.87.04,3.12.06.61,1.56.92,2.65,1.53,5.46,1.57.3,2.35.48,3.92.89-.66-3-.99-4.26-1.64-6.26,1.25.03,1.87.04,3.12.07Z"/>
    <path class="cls-22" d="M142.01,66.6c1.69,3.76,2.54,6.07,4.29,11.21-.04-4.28-.08-6.38-.18-11.09,1.35.04,2.03.06,3.39.1-.05,8.76-.12,10.66-.34,20.13.71,5.03,1.06,7.6,1.77,12.84-1.34,0-2.01-.01-3.35-.02-.68-5.89-1.02-8.74-1.7-14.25-2.98-11.59-4.43-14.3-7.24-19.02,1.35.03,2.02.05,3.37.09Z"/>
  </g>
  <g>
    <path class="cls-6" d="M49.96,128.75v-4.77l-1.52,3.36h-1.33l-1.52-3.36v4.77h-2.49v-9.06h2.72l1.95,4.26,1.97-4.26h2.71v9.06h-2.49Z"/>
    <path class="cls-8" d="M55.71,128.88c-.33,0-.64-.06-.93-.17-.29-.11-.54-.26-.75-.45s-.37-.42-.49-.68c-.12-.26-.18-.55-.18-.85,0-.34.07-.65.22-.93.14-.28.34-.52.6-.73s.56-.36.91-.47c.35-.11.74-.17,1.17-.17.54,0,1,.08,1.35.25v-.2c0-.31-.09-.55-.27-.7-.18-.15-.48-.23-.89-.23-.38,0-.74.06-1.06.18-.32.12-.66.3-1.02.54l-.7-1.51c.89-.57,1.89-.86,3.03-.86,1.07,0,1.9.24,2.48.71.58.48.87,1.19.87,2.14v1.3c0,.23.03.39.1.48.07.09.19.14.36.16v2.04c-.2.04-.38.07-.56.1s-.33.03-.47.03c-.43,0-.76-.08-.99-.24-.23-.16-.37-.39-.44-.7l-.05-.24c-.3.38-.64.67-1.03.88-.39.2-.81.3-1.25.3ZM56.44,127.14c.14,0,.29-.02.45-.07.15-.05.29-.11.41-.19.09-.07.17-.14.23-.22s.09-.16.09-.25v-.5c-.15-.05-.3-.09-.47-.13-.17-.03-.32-.05-.46-.05-.3,0-.54.07-.74.22s-.29.33-.29.55c0,.19.07.34.22.46s.34.18.57.18Z"/>
    <path class="cls-3" d="M65.81,128.75l-1.52-2.45-.49.54v1.92h-2.43v-9.32h2.43v5.09l1.79-2.49h2.55l-2.31,2.94,2.54,3.78h-2.57Z"/>
    <path class="cls-20" d="M71.79,128.88c-.59,0-1.11-.09-1.57-.27-.46-.18-.84-.43-1.16-.75-.31-.31-.55-.68-.71-1.08s-.24-.84-.24-1.29c0-.49.08-.95.24-1.38.16-.43.39-.81.7-1.14.31-.32.69-.58,1.15-.77.46-.19.99-.29,1.59-.29s1.12.1,1.58.29c.46.19.84.45,1.16.77s.54.69.7,1.11c.16.42.24.86.24,1.32,0,.13,0,.26-.02.39-.01.13-.03.25-.04.35h-4.71c.03.36.16.62.4.77s.5.24.78.24c.26,0,.51-.06.75-.18.23-.12.39-.29.47-.5l2.06.59c-.27.54-.69.97-1.26,1.32-.57.34-1.26.51-2.09.51ZM72.86,124.67c-.04-.32-.16-.58-.36-.77-.2-.19-.45-.28-.75-.28s-.56.09-.75.28c-.2.19-.31.44-.36.77h2.22Z"/>
    <path class="cls-10" d="M79.29,128.75v-9.06h2.49v9.06h-2.49Z"/>
    <path class="cls-14" d="M87.78,128.38c-.34.14-.71.27-1.09.36-.39.1-.77.15-1.14.15-.27,0-.53-.03-.78-.1-.25-.07-.46-.18-.64-.33s-.33-.35-.43-.6c-.11-.25-.16-.55-.16-.92v-3.08h-.83v-1.83h.83v-2.11h2.43v2.11h1.31v1.83h-1.31v2.22c0,.22.05.38.14.47.09.09.22.13.38.13.12,0,.26-.02.41-.06.15-.04.31-.09.46-.16l.43,1.92Z"/>
    <path class="cls-21" d="M91.51,128.75v-9.06h4.16c.44,0,.85.09,1.22.27s.7.42.96.71c.27.29.48.63.63,1.01.15.38.23.76.23,1.14,0,.53-.12,1.02-.35,1.47-.23.46-.55.83-.96,1.12l1.92,3.33h-2.81l-1.6-2.78h-.93v2.78h-2.49ZM94,123.79h1.57c.15,0,.3-.08.43-.25.13-.17.2-.41.2-.71s-.08-.56-.23-.72-.31-.25-.46-.25h-1.51v1.94Z"/>
    <path class="cls-4" d="M103.02,128.88c-.59,0-1.11-.09-1.57-.27-.46-.18-.84-.43-1.15-.75s-.55-.68-.71-1.08-.24-.84-.24-1.29c0-.49.08-.95.24-1.38.16-.43.39-.81.7-1.14.31-.32.69-.58,1.15-.77.46-.19.98-.29,1.59-.29s1.12.1,1.58.29c.46.19.84.45,1.15.77s.54.69.7,1.11c.16.42.24.86.24,1.32,0,.13,0,.26-.02.39-.01.13-.03.25-.04.35h-4.71c.03.36.16.62.4.77s.5.24.78.24c.26,0,.51-.06.75-.18s.39-.29.46-.5l2.06.59c-.27.54-.69.97-1.26,1.32-.57.34-1.26.51-2.09.51ZM104.09,124.67c-.04-.32-.16-.58-.36-.77-.2-.19-.45-.28-.75-.28s-.56.09-.75.28c-.2.19-.31.44-.36.77h2.22Z"/>
    <path class="cls-16" d="M110.8,128.88c-.59,0-1.11-.09-1.57-.27-.46-.18-.85-.43-1.16-.75s-.55-.68-.71-1.08c-.16-.41-.24-.84-.24-1.29,0-.49.08-.95.24-1.38.16-.43.39-.81.7-1.14.31-.32.69-.58,1.15-.77.46-.19.98-.29,1.59-.29s1.12.1,1.58.29c.46.19.85.45,1.16.77s.54.69.7,1.11c.16.42.24.86.24,1.32,0,.13,0,.26-.02.39-.01.13-.03.25-.04.35h-4.71c.03.36.16.62.39.77s.5.24.78.24c.26,0,.51-.06.75-.18.23-.12.39-.29.47-.5l2.05.59c-.27.54-.69.97-1.26,1.32-.56.34-1.26.51-2.09.51ZM111.87,124.67c-.04-.32-.16-.58-.36-.77-.2-.19-.45-.28-.75-.28s-.56.09-.75.28c-.2.19-.32.44-.36.77h2.22Z"/>
    <path class="cls-11" d="M115.21,119.43h2.43v6.65c0,.51.21.77.62.77.1,0,.21-.02.33-.05s.23-.08.33-.14l.31,1.79c-.29.14-.62.24-.98.32-.36.08-.7.12-1.03.12-.65,0-1.14-.17-1.49-.5-.35-.33-.52-.81-.52-1.44v-7.51Z"/>
  </g>
</svg>