<?xml version="1.0" encoding="UTF-8"?>
<svg id="Layer_2" data-name="Layer 2" xmlns="http://www.w3.org/2000/svg" xmlns:xlink="http://www.w3.org/1999/xlink" viewBox="0 0 160 160">
  <defs>
    <style>
      .cls-1, .cls-2, .cls-3, .cls-4, .cls-5, .cls-6, .cls-7, .cls-8, .cls-9, .cls-10, .cls-11, .cls-12, .cls-13, .cls-14, .cls-15, .cls-16, .cls-17, .cls-18, .cls-19, .cls-20, .cls-21, .cls-22, .cls-23, .cls-24, .cls-25 {
        stroke: #3e2723;
        stroke-miterlimit: 10;
      }

      .cls-1, .cls-2, .cls-3, .cls-4, .cls-5, .cls-6, .cls-7, .cls-8, .cls-9, .cls-10, .cls-11, .cls-12, .cls-13, .cls-14, .cls-15, .cls-16, .cls-17, .cls-18, .cls-19, .cls-21, .cls-22, .cls-23, .cls-24, .cls-25 {
        stroke-width: .5px;
      }

      .cls-1, .cls-20, .cls-26 {
        fill: #86a700;
      }

      .cls-2 {
        fill: url(#radial-gradient-22);
      }

      .cls-27 {
        fill: #d5ab82;
      }

      .cls-3 {
        fill: url(#radial-gradient-12);
      }

      .cls-4 {
        fill: url(#radial-gradient-9);
      }

      .cls-5 {
        fill: url(#radial-gradient-7);
      }

      .cls-6 {
        fill: url(#radial-gradient-4);
      }

      .cls-7 {
        fill: url(#radial-gradient-13);
      }

      .cls-8 {
        fill: url(#radial-gradient);
      }

      .cls-28 {
        fill: #e0a151;
      }

      .cls-9 {
        fill: url(#radial-gradient-6);
      }

      .cls-10 {
        fill: url(#radial-gradient-19);
      }

      .cls-11 {
        fill: url(#radial-gradient-2);
      }

      .cls-12 {
        fill: url(#radial-gradient-18);
      }

      .cls-13 {
        fill: url(#radial-gradient-14);
      }

      .cls-14 {
        fill: url(#radial-gradient-15);
      }

      .cls-15 {
        fill: url(#radial-gradient-8);
      }

      .cls-16 {
        fill: url(#radial-gradient-11);
      }

      .cls-17 {
        fill: url(#radial-gradient-17);
      }

      .cls-18 {
        fill: url(#radial-gradient-21);
      }

      .cls-19 {
        fill: url(#radial-gradient-20);
      }

      .cls-20 {
        stroke-width: .25px;
      }

      .cls-21 {
        fill: url(#radial-gradient-10);
      }

      .cls-29 {
        fill: #2c7300;
      }

      .cls-22 {
        fill: url(#radial-gradient-5);
      }

      .cls-23 {
        fill: url(#radial-gradient-16);
      }

      .cls-24 {
        fill: url(#radial-gradient-3);
      }

      .cls-25 {
        fill: url(#linear-gradient);
      }

      .cls-30 {
        fill: #3e2723;
      }
    </style>
    <radialGradient id="radial-gradient" cx="23.13" cy="89.55" fx="23.13" fy="89.55" r="8.26" gradientUnits="userSpaceOnUse">
      <stop offset="0" stop-color="#00816d"/>
      <stop offset="1" stop-color="#86a700"/>
    </radialGradient>
    <radialGradient id="radial-gradient-2" cx="26.77" cy="74.33" fx="26.77" fy="74.33" r="10.41" xlink:href="#radial-gradient"/>
    <radialGradient id="radial-gradient-3" cx="34.14" cy="61.25" fx="34.14" fy="61.25" r="8.41" xlink:href="#radial-gradient"/>
    <radialGradient id="radial-gradient-4" cx="44.01" cy="48.42" fx="44.01" fy="48.42" r="11.81" xlink:href="#radial-gradient"/>
    <radialGradient id="radial-gradient-5" cx="62" cy="42.97" fx="62" fy="42.97" r="8.29" xlink:href="#radial-gradient"/>
    <radialGradient id="radial-gradient-6" cx="76.23" cy="40.84" fx="76.23" fy="40.84" r="8.38" xlink:href="#radial-gradient"/>
    <radialGradient id="radial-gradient-7" cx="91.38" cy="42.14" fx="91.38" fy="42.14" r="8.52" xlink:href="#radial-gradient"/>
    <radialGradient id="radial-gradient-8" cx="103.68" cy="45.65" fx="103.68" fy="45.65" r="9.39" xlink:href="#radial-gradient"/>
    <radialGradient id="radial-gradient-9" cx="113.68" cy="53.14" fx="113.68" fy="53.14" r="9.29" xlink:href="#radial-gradient"/>
    <radialGradient id="radial-gradient-10" cx="123.65" cy="58.15" fx="123.65" fy="58.15" r="8.66" xlink:href="#radial-gradient"/>
    <radialGradient id="radial-gradient-11" cx="131.48" cy="71.83" fx="131.48" fy="71.83" r="10.55" xlink:href="#radial-gradient"/>
    <radialGradient id="radial-gradient-12" cx="135.76" cy="86.57" fx="135.76" fy="86.57" r="9.47" xlink:href="#radial-gradient"/>
    <radialGradient id="radial-gradient-13" cx="31.69" cy="132.21" fx="31.69" fy="132.21" r="6.63" gradientUnits="userSpaceOnUse">
      <stop offset="0" stop-color="#00816d"/>
      <stop offset="1" stop-color="#86a700"/>
    </radialGradient>
    <radialGradient id="radial-gradient-14" cx="44.89" cy="133.9" fx="44.89" fy="133.9" r="5.08" xlink:href="#radial-gradient-13"/>
    <radialGradient id="radial-gradient-15" cx="56.35" cy="132.03" fx="56.35" fy="132.03" r="5.94" xlink:href="#radial-gradient-13"/>
    <radialGradient id="radial-gradient-16" cx="66.3" cy="133.9" fx="66.3" fy="133.9" r="5.16" xlink:href="#radial-gradient-13"/>
    <radialGradient id="radial-gradient-17" cx="78.63" cy="132.03" fx="78.63" fy="132.03" r="4.91" xlink:href="#radial-gradient-13"/>
    <radialGradient id="radial-gradient-18" cx="85.27" cy="132.49" fx="85.27" fy="132.49" r="5.25" xlink:href="#radial-gradient-13"/>
    <radialGradient id="radial-gradient-19" cx="99.94" fx="99.94" r="6.1" xlink:href="#radial-gradient-13"/>
    <radialGradient id="radial-gradient-20" cx="110.9" cy="133.9" fx="110.9" fy="133.9" r="5.16" xlink:href="#radial-gradient-13"/>
    <radialGradient id="radial-gradient-21" cx="122.11" cy="133.9" fx="122.11" fy="133.9" r="5.16" xlink:href="#radial-gradient-13"/>
    <radialGradient id="radial-gradient-22" cx="131.37" cy="132.12" fx="131.37" fy="132.12" r="5.23" xlink:href="#radial-gradient-13"/>
    <linearGradient id="linear-gradient" x1="79.66" y1="95.68" x2="79.66" y2="115.23" gradientUnits="userSpaceOnUse">
      <stop offset="0" stop-color="#86a700"/>
      <stop offset="1" stop-color="#00816d"/>
    </linearGradient>
  </defs>
  <g>
    <path class="cls-30" d="M136.37,150H24.09c-5.78,0-10.48-5.65-10.48-12.6,0-1.13.76-2.05,1.71-2.05s1.71.92,1.71,2.05c0,4.68,3.17,8.5,7.06,8.5h112.28c3.89,0,7.06-3.81,7.06-8.5,0-1.13.76-2.05,1.71-2.05s1.71.92,1.71,2.05c0,6.95-4.7,12.6-10.48,12.6ZM145.3,40.4c-.94,0-1.71-.92-1.71-2.05,0-4.68-3.17-8.5-7.06-8.5h-30.82c-.94,0-1.7-.92-1.71-2.05-.02-7.43-3.13-13.7-6.81-13.7h-33.61c-3.68,0-6.79,6.27-6.81,13.7,0,1.13-.77,2.05-1.71,2.05h-8.32c-.92,0-1.68-.89-1.71-2-.06-2.82-1.21-4.63-1.97-4.63h-13.81c-.76,0-1.9,1.8-1.97,4.63-.03,1.11-.78,2-1.71,2h-1.35c-3.89,0-7.06,3.81-7.06,8.5,0,1.13-.76,2.05-1.71,2.05s-1.71-.92-1.71-2.05c0-6.87,4.6-12.48,10.29-12.6.6-3.89,2.67-6.62,5.21-6.62h13.81c2.54,0,4.6,2.73,5.21,6.62h5.14c.58-8.98,4.84-15.75,10.15-15.75h33.61c5.31,0,9.57,6.77,10.15,15.75h29.18c5.78,0,10.48,5.65,10.48,12.6,0,1.13-.76,2.05-1.71,2.05Z"/>
    <g>
      <path class="cls-30" d="M79.61,121.93c-18.91,0-34.3-15.39-34.3-34.3s15.39-34.3,34.3-34.3,34.3,15.39,34.3,34.3-15.39,34.3-34.3,34.3ZM79.61,56.74c-17.03,0-30.89,13.86-30.89,30.89s13.86,30.89,30.89,30.89,30.89-13.86,30.89-30.89-13.86-30.89-30.89-30.89Z"/>
      <path class="cls-30" d="M54.53,89.34c-.94,0-1.71-.76-1.71-1.71,0-14.77,12.02-26.79,26.79-26.79.94,0,1.71.76,1.71,1.71s-.76,1.71-1.71,1.71c-12.89,0-23.38,10.49-23.38,23.38,0,.94-.76,1.71-1.71,1.71Z"/>
    </g>
  </g>
  <g>
    <path class="cls-8" d="M32.28,96.58c-7.39-.09-11.08-.13-18.47-.22.03-3.64.15-5.4.55-8.79.11-.96.42-1.81.91-2.52.49-.72,1.08-1.28,1.77-1.69.69-.41,1.44-.67,2.25-.78.81-.11,1.6-.07,2.36.12.8.2,1.54.52,2.24.96.7.44,1.3.95,1.81,1.53.51.58.88,1.22,1.13,1.92.25.7.33,1.43.24,2.2-.12,1.03-.18,1.56-.26,2.62,2.26.22,3.39.33,5.65.56-.12,1.59-.16,2.41-.17,4.08ZM22.4,91.51c.08-1.02.13-1.53.24-2.52.03-.29-.07-.58-.33-.87-.25-.29-.75-.5-1.48-.63-.76-.12-1.29-.06-1.6.2-.31.26-.49.55-.52.86-.11,1.02-.16,1.53-.24,2.57,1.58.16,2.36.23,3.94.39Z"/>
    <path class="cls-11" d="M21.33,64.46c6.55,3.67,9.82,5.5,16.36,9.17-.63,1.19-.92,1.81-1.46,3.07-2.65-1.25-3.98-1.87-6.63-3.12-.77,1.78-1.11,2.7-1.73,4.61,2.74,1,4.11,1.51,6.86,2.51-.44,1.36-.63,2.05-.98,3.49-7.16-2.02-10.74-3.03-17.9-5.05.48-1.99.75-2.96,1.36-4.85,2.59.95,3.88,1.42,6.46,2.37.67-2.06,1.04-3.06,1.87-4.99-2.5-1.18-3.75-1.77-6.25-2.94.76-1.76,1.16-2.61,2.03-4.27Z"/>
    <path class="cls-24" d="M41.85,67.46c-.55.71-1.24,1.2-2.11,1.5-.87.3-1.82.45-2.86.44-1.05,0-2.14-.16-3.28-.47-1.14-.31-2.24-.77-3.29-1.39-1.06-.64-1.99-1.41-2.77-2.34-.78-.94-1.35-1.95-1.7-3.05-.35-1.1-.45-2.23-.29-3.37.16-1.14.61-2.22,1.36-3.18.77-.98,1.7-1.68,2.77-2.07,1.07-.39,2.17-.51,3.3-.39,1.13.12,2.22.48,3.28,1.04,1.07.56,2.01,1.28,2.86,2.13.87.88,1.58,1.84,2.16,2.87.58,1.03.99,2.05,1.24,3.05.25,1,.34,1.94.25,2.85-.08.9-.39,1.68-.92,2.37ZM32.46,64.16c.52.37,1.06.66,1.62.89.56.23,1.09.38,1.61.44.52.06,1,.03,1.44-.11.45-.13.82-.4,1.13-.8.31-.4.47-.83.49-1.31.01-.48-.08-.96-.27-1.44-.2-.49-.48-.98-.86-1.46-.37-.49-.79-.93-1.25-1.34-.48-.42-.98-.78-1.52-1.07-.53-.29-1.06-.47-1.59-.55s-1.04-.04-1.52.12c-.49.16-.91.47-1.27.94-.37.48-.57.98-.6,1.5-.03.52.06,1.04.28,1.54.22.51.53.98.94,1.43.41.45.87.85,1.37,1.2Z"/>
    <path class="cls-6" d="M37.18,45.44c1.26-.99,1.91-1.47,3.23-2.37,1.82,1.56,2.71,2.36,4.45,3.98-.89-2.18-1.31-3.28-2.11-5.51,1.36-.84,2.05-1.24,3.46-2,.87,3.58,1.37,5.35,2.51,8.83,1.17,1.12,1.75,1.68,2.88,2.83-1.71-4.93-2.45-7.44-3.67-12.56,1.69-.85,2.55-1.24,4.3-1.96.78,7.74,1.52,11.54,3.65,18.87-.92.49-1.37.74-2.26,1.28-2.01-1.92-3.05-2.85-5.2-4.65.92,2.6,1.41,3.89,2.49,6.41-.85.6-1.27.91-2.09,1.57-6.21-4.65-9.57-6.74-16.7-10.28,1.36-1.34,2.07-1.98,3.52-3.2,4.45,3,6.58,4.6,10.65,7.98-.68-1.44-1.01-2.17-1.65-3.64-2.89-2.33-4.38-3.46-7.47-5.59Z"/>
    <path class="cls-22" d="M65.14,52c-.83.24-1.67.22-2.53-.05-.87-.27-1.72-.72-2.56-1.34-.84-.63-1.64-1.39-2.4-2.31-.76-.92-1.4-1.92-1.9-3.02-.51-1.11-.85-2.25-.97-3.43-.13-1.18-.04-2.29.27-3.34.31-1.05.84-1.97,1.59-2.77.75-.8,1.7-1.37,2.84-1.7,1.16-.33,2.31-.35,3.39-.05,1.09.3,2.06.82,2.91,1.55.85.73,1.56,1.63,2.12,2.68.56,1.05.94,2.16,1.16,3.32.23,1.2.27,2.37.17,3.53-.1,1.16-.33,2.21-.67,3.16-.34.94-.8,1.75-1.37,2.43-.57.67-1.24,1.12-2.05,1.35ZM59.32,43.97c.22.59.5,1.13.83,1.64.32.51.68.94,1.06,1.28.38.35.79.6,1.23.76.43.16.88.16,1.36.03.47-.14.84-.38,1.12-.75.27-.37.46-.8.57-1.3.11-.5.14-1.05.11-1.65-.04-.6-.13-1.19-.28-1.78-.16-.61-.37-1.18-.65-1.71-.28-.53-.61-.98-1-1.34-.39-.36-.83-.62-1.31-.77-.48-.15-1.01-.15-1.55,0-.56.16-1,.44-1.31.83-.31.39-.51.85-.61,1.37-.1.52-.1,1.07-.01,1.66.09.59.24,1.17.46,1.74Z"/>
    <path class="cls-9" d="M74.38,40.94c.34,3.62.51,5.43.84,9.05-1.25.1-1.88.17-3.13.35-1.17-7.31-1.76-10.96-2.93-18.27,1.35-.19,2.03-.27,3.39-.41,2.95,3.49,4.25,5.32,6.48,9.06-.04-3.76-.06-5.64-.1-9.39,1.75-.02,2.63,0,4.38.09-.42,7.38-.62,11.07-1.04,18.45-1-.05-1.5-.06-2.5-.07-1.81-3.64-2.89-5.43-5.39-8.86Z"/>
    <path class="cls-5" d="M92.3,49.76c-1.11.88-2.14,1.23-3.18,1.03-.73-.13-1.38-.46-1.99-.97-.61-.52-1.13-1.2-1.56-2.07-.43-.87-.76-1.9-.98-3.1-.22-1.2-.29-2.56-.16-4.06.11-1.3.39-2.49.88-3.57.49-1.08,1.13-2,1.93-2.74.8-.74,1.73-1.29,2.78-1.62,1.05-.33,2.16-.39,3.29-.18.71.13,1.36.36,1.96.68.6.32,1.12.72,1.56,1.19.44.48.8,1.01,1.08,1.6.27.59.44,1.22.51,1.89-1.52.77-2.26,1.18-3.69,2.03-.09-.77-.36-1.44-.82-1.99-.46-.55-1.02-.89-1.67-1.02-.48-.09-.94-.05-1.39.13-.44.17-.84.45-1.2.84-.36.39-.66.86-.91,1.43-.25.57-.43,1.21-.54,1.91-.11.72-.13,1.39-.08,1.99.06.6.18,1.13.36,1.59.19.46.43.83.74,1.12.3.29.67.47,1.1.55.98.19,1.97-.22,3.05-1.22-.87-.21-1.31-.3-2.19-.48.31-1.43.47-2.14.79-3.56,2.23.44,3.34.71,5.51,1.35-1.23,3.76-1.84,5.64-3.07,9.4-.99-.29-1.49-.43-2.5-.67.16-.6.24-.89.4-1.49Z"/>
    <path class="cls-15" d="M95.87,52.38c2.54-6.99,3.81-10.48,6.35-17.47,2.77.91,4.13,1.44,6.78,2.64.71.32,1.27.79,1.67,1.41.4.62.66,1.3.76,2.04.1.74.06,1.5-.11,2.3-.18.79-.47,1.53-.88,2.21-.56.94-1.24,1.72-2.01,2.36-.78.65-1.57,1.09-2.38,1.35-.35,2.91-.59,4.34-1.2,7.16-1.22-.71-1.85-1.04-3.12-1.65.34-2.38.46-3.58.6-6.01-.48-.21-.72-.31-1.21-.5-.92,2.09-1.38,3.14-2.3,5.23-1.16-.47-1.75-.68-2.94-1.07ZM102.91,44.14c.89.36,1.33.54,2.2.94.21.1.49.03.83-.2.34-.23.66-.62.94-1.18.29-.58.41-1.07.34-1.48-.07-.41-.22-.67-.45-.77-.9-.4-1.35-.59-2.26-.96-.64,1.46-.96,2.19-1.6,3.65Z"/>
    <path class="cls-4" d="M119.33,43.42c1.31.91,1.94,1.39,3.19,2.39-3.1,7.15-4.92,10.58-9.06,17.04-.93-.9-1.41-1.32-2.39-2.14.75-1.29,1.11-1.94,1.83-3.26-1.02-.82-1.55-1.22-2.62-1.97-1.11,1.02-1.66,1.53-2.73,2.57-1.06-.72-1.6-1.05-2.71-1.69,5.31-5.57,8.23-8.19,14.5-12.95ZM114.66,54.47c1.11-2.09,1.64-3.14,2.67-5.28-1.87,1.5-2.79,2.28-4.58,3.85.78.55,1.16.84,1.91,1.43Z"/>
    <path class="cls-21" d="M114.15,63.53c5.39-5.25,8.09-7.87,13.48-13.12,1.95,1.97,2.88,3.02,4.61,5.25.49.63.78,1.34.87,2.12.09.77.01,1.54-.22,2.28-.23.74-.61,1.44-1.12,2.1-.51.66-1.1,1.2-1.76,1.64-.69.46-1.43.8-2.21,1.04-.78.24-1.53.37-2.25.39-.72.02-1.39-.09-1.99-.32-.61-.23-1.11-.6-1.5-1.11-.53-.68-.8-1.01-1.35-1.67-1.76,1.5-2.64,2.25-4.4,3.74-.83-.98-1.26-1.45-2.16-2.35ZM124.13,59.22c.53.63.79.95,1.3,1.6.15.19.4.28.76.27.36-.01.84-.24,1.44-.71.62-.47.96-.9,1.03-1.27.07-.38.02-.67-.14-.87-.52-.66-.79-.99-1.33-1.63-1.23,1.04-1.84,1.57-3.07,2.61Z"/>
    <path class="cls-16" d="M142.51,75.91c-7.06,2.38-10.6,3.58-17.66,5.96-.41-1.38-.63-2.05-1.13-3.36,2.7-1.14,4.04-1.71,6.74-2.85-.7-1.84-1.08-2.73-1.93-4.44-2.59,1.37-3.89,2.06-6.49,3.44-.6-1.22-.92-1.81-1.59-2.95,6.38-3.97,9.57-5.96,15.94-9.93.94,1.59,1.39,2.41,2.22,4.1-2.45,1.3-3.67,1.94-6.11,3.24.91,1.85,1.33,2.81,2.08,4.8,2.54-1.07,3.81-1.61,6.35-2.68.69,1.82,1,2.75,1.57,4.67Z"/>
    <path class="cls-3" d="M144.13,82.71c-2.88,2.04-4.36,3-7.35,4.75,3.33.71,5,1.16,8.31,2.27.21,2.39.28,3.62.32,6.13-4.99-2.81-7.55-3.89-12.69-5.49-2.43.31-3.65.46-6.08.77-.16-1.56-.26-2.32-.52-3.81,2.42-.51,3.64-.77,6.06-1.28,4.47-3.11,6.63-4.88,10.72-8.78.57,2.11.82,3.2,1.24,5.43Z"/>
  </g>
  <g>
    <path class="cls-7" d="M34.83,138.74v-6.88l-2.19,4.84h-1.91l-2.19-4.84v6.88h-3.59v-13.06h3.92l2.82,6.15,2.83-6.15h3.9v13.06h-3.59Z"/>
    <path class="cls-13" d="M43.13,138.93c-.48,0-.93-.08-1.34-.24-.42-.16-.78-.38-1.08-.65-.3-.28-.54-.6-.71-.98s-.26-.79-.26-1.23c0-.49.1-.94.31-1.34.21-.4.5-.75.87-1.05.37-.29.81-.52,1.31-.68.51-.16,1.07-.24,1.68-.24.78,0,1.43.12,1.95.37v-.29c0-.45-.13-.79-.4-1.01-.26-.22-.69-.33-1.28-.33-.55,0-1.06.09-1.53.27s-.96.44-1.47.78l-1.01-2.17c1.28-.82,2.73-1.23,4.36-1.23,1.55,0,2.74.34,3.57,1.03s1.25,1.72,1.25,3.09v1.88c0,.33.05.56.15.69s.27.21.52.23v2.94c-.28.06-.55.11-.8.14-.25.03-.48.05-.67.05-.63,0-1.1-.11-1.43-.34-.32-.23-.54-.56-.63-1l-.07-.35c-.43.55-.93.97-1.49,1.26-.56.29-1.16.43-1.8.43ZM44.18,136.42c.21,0,.42-.03.64-.1.22-.07.42-.16.59-.27.13-.1.25-.21.33-.32s.13-.24.13-.36v-.72c-.21-.07-.44-.13-.68-.18-.24-.05-.47-.07-.66-.07-.43,0-.78.1-1.07.31-.28.21-.42.47-.42.79,0,.27.11.49.32.66.21.17.49.26.82.26Z"/>
    <path class="cls-14" d="M57.69,138.74l-2.19-3.53-.7.77v2.76h-3.5v-13.43h3.5v7.34l2.58-3.59h3.68l-3.33,4.23,3.66,5.45h-3.7Z"/>
    <path class="cls-23" d="M66.3,138.93c-.85,0-1.6-.13-2.26-.4-.66-.26-1.22-.62-1.67-1.08s-.79-.97-1.02-1.56c-.23-.59-.35-1.21-.35-1.86,0-.7.11-1.36.34-1.99s.56-1.17,1.01-1.64c.45-.47,1-.84,1.66-1.11.66-.28,1.42-.41,2.29-.41s1.62.14,2.28.41c.66.28,1.22.64,1.67,1.1.45.46.79.99,1.01,1.6.23.61.34,1.24.34,1.9,0,.18-.01.37-.03.56s-.04.36-.06.51h-6.79c.04.52.23.89.57,1.11.34.23.72.34,1.12.34.38,0,.74-.09,1.08-.26.34-.17.56-.41.67-.72l2.96.85c-.39.77-1,1.4-1.81,1.89-.82.49-1.82.74-3.01.74ZM67.85,132.87c-.06-.47-.23-.83-.52-1.1-.28-.27-.64-.4-1.09-.4s-.8.13-1.09.4c-.28.27-.45.64-.52,1.1h3.2Z"/>
    <path class="cls-17" d="M76.88,128.25v-2.94h3.5v2.94h-3.5ZM76.88,138.74v-9.68h3.5v9.68h-3.5Z"/>
    <path class="cls-12" d="M88.93,138.21c-.49.21-1.02.38-1.57.52s-1.11.21-1.65.21c-.39,0-.77-.05-1.12-.15-.36-.1-.67-.26-.93-.48-.26-.22-.47-.51-.62-.86-.15-.36-.23-.8-.23-1.33v-4.43h-1.2v-2.63h1.2v-3.04h3.5v3.04h1.89v2.63h-1.89v3.2c0,.32.07.54.2.67s.32.19.55.19c.17,0,.37-.03.59-.08.22-.06.44-.13.66-.23l.63,2.76Z"/>
    <path class="cls-10" d="M94.3,138.74v-13.06h6c.64,0,1.23.13,1.77.4.54.26,1,.61,1.39,1.03.39.42.69.91.91,1.45.22.55.33,1.09.33,1.65,0,.76-.16,1.47-.49,2.13-.33.66-.79,1.19-1.38,1.61l2.76,4.8h-4.05l-2.3-4.01h-1.34v4.01h-3.59ZM97.89,131.6h2.26c.22,0,.43-.12.62-.37.19-.24.29-.59.29-1.03s-.11-.8-.33-1.04c-.22-.24-.44-.36-.66-.36h-2.17v2.8Z"/>
    <path class="cls-19" d="M110.9,138.93c-.85,0-1.6-.13-2.26-.4s-1.22-.62-1.67-1.08-.79-.97-1.02-1.56c-.23-.59-.35-1.21-.35-1.86,0-.7.11-1.36.34-1.99.23-.63.56-1.17,1.01-1.64.45-.47,1-.84,1.66-1.11.66-.28,1.42-.41,2.29-.41s1.62.14,2.28.41,1.22.64,1.67,1.1c.45.46.78.99,1.01,1.6.23.61.34,1.24.34,1.9,0,.18,0,.37-.03.56s-.04.36-.06.51h-6.79c.04.52.23.89.57,1.11.34.23.72.34,1.12.34.38,0,.74-.09,1.08-.26.34-.17.56-.41.67-.72l2.96.85c-.39.77-1,1.4-1.81,1.89-.82.49-1.82.74-3.01.74ZM112.45,132.87c-.06-.47-.23-.83-.52-1.1-.28-.27-.65-.4-1.09-.4s-.8.13-1.09.4c-.28.27-.46.64-.52,1.1h3.2Z"/>
    <path class="cls-18" d="M122.11,138.93c-.85,0-1.6-.13-2.26-.4s-1.22-.62-1.67-1.08-.79-.97-1.02-1.56c-.23-.59-.35-1.21-.35-1.86,0-.7.11-1.36.34-1.99.23-.63.56-1.17,1.01-1.64.45-.47,1-.84,1.66-1.11.66-.28,1.42-.41,2.29-.41s1.62.14,2.28.41,1.22.64,1.67,1.1c.45.46.78.99,1.01,1.6.23.61.34,1.24.34,1.9,0,.18,0,.37-.03.56s-.04.36-.06.51h-6.79c.04.52.23.89.57,1.11.34.23.72.34,1.12.34.38,0,.74-.09,1.08-.26.34-.17.56-.41.67-.72l2.96.85c-.39.77-1,1.4-1.81,1.89-.82.49-1.82.74-3.01.74ZM123.65,132.87c-.06-.47-.23-.83-.52-1.1-.28-.27-.65-.4-1.09-.4s-.8.13-1.09.4c-.28.27-.46.64-.52,1.1h3.2Z"/>
    <path class="cls-2" d="M128.47,125.31h3.49v9.59c0,.74.3,1.1.9,1.1.15,0,.31-.02.48-.07s.33-.12.48-.2l.44,2.58c-.42.2-.89.35-1.41.46-.52.11-1.02.17-1.48.17-.93,0-1.65-.24-2.15-.72-.5-.48-.75-1.17-.75-2.08v-10.82Z"/>
  </g>
  <g>
    <path class="cls-25" d="M101.69,95.68c-.62,9.01-8.89,19.9-22.76,19.54-12.48-.33-20.64-10.5-21.3-19.45,2.5,2.45,5.75,3.27,9.01,3.96,6.45,1.36,12.98,1.5,19.54.93,3.42-.3,6.82-.79,10.1-1.87.74-.24,1.46-.52,2.17-.85,1.18-.55,2.31-1.17,3.24-2.26Z"/>
    <path class="cls-30" d="M78.63,120.63c-5.52-.04-11.14-1.52-15.27-4.51-2.14-.61-3.49-2.2-5.37-3.42-.71-.46-1.61-1.7-2.13-2.37-.83-1.05-1.77-.65-1.06-1.78.43-.68,1.01-1.21,1.64-1.67.93-.69,1.96-1.2,3-1.68.24-.11.51-.01.64.21.45.8.98,1.56,1.6,2.24.19.21.21.53.01.73-1.23,1.24-1.24,2.52-.07,3.79.53.58,1.18,1.02,1.86,1.4,1.1.61,2.28,1.08,3.48,1.44,3.65,1.12,7.43,1.53,11.24,1.66s7.27-.16,10.84-.84c2.59-.49,5.12-1.19,7.4-2.59.47-.29.91-.63,1.29-1.03,1.01-1.06.92-2.76-.07-3.83-.28-.3-.23-.48.04-.79.62-.69,1.14-1.45,1.62-2.24.1-.17.17-.33.44-.21,1.41.6,2.75,1.31,3.9,2.33.28.25.53.52.75.82.82,1.11-1.26,1.33-2.08,2.45-.68.93-1.58,1.59-2.57,2.16-2.59,1.48-3.36,3.64-6.24,4.27-4.84,3.2-10.15,3.45-14.91,3.48Z"/>
    <path class="cls-1" d="M84.21,87.88c4.52.4,9.11.96,13.45,2.74,1.1.45,2.14,1.01,2.99,1.86.73.73.89,1.55.46,2.33-.14.26-.24.39-.5.07-.82-.99-1.95-1.54-3.1-2.02-2.59-1.08-5.32-1.61-8.07-2.04-1.92-.3-3.85-.48-5.79-.58-.32-.02-.41-.12-.38-.44.04-.47.07-.94.03-1.41-.03-.43.09-.61.53-.52.09.02.19,0,.39,0Z"/>
    <path class="cls-30" d="M89.92,95.09c1.34-.11,2.6.01,3.78.59.18.09.33.2.44.37.17.25.41.27.63.1.24-.19.26-.44.06-.68-.09-.11-.21-.21-.34-.27-1.76-.88-3.58-1.18-5.5-.62-.23.07-.56-.04-1.14-.4.89-.29,1.77-.45,2.67-.47,1.79-.05,3.53.12,5.09,1.12.1.06.19.12.28.19.55.43.55.83-.02,1.25-.56.41-1.22.59-1.88.77-.14.04-.29.06-.42.12-.19.08-.33.21-.28.45.05.24.25.29.45.26.9-.13,1.78-.37,2.54-.9,1-.7,1.05-1.72.12-2.52-.97-.82-2.15-1.17-3.38-1.37-1.83-.29-3.65-.15-5.44.35-.24.07-.53.08-.51.46,0,.13-.11.14-.21.13-.31-.05-.63-.1-.96-.15.48-.77.4-1.03-.41-1.38-.67-.29-1.39-.41-2.1-.58-.18-.04-.5.09-.44-.32.05-.36.17-.52.58-.49,2.82.17,5.61.49,8.38,1.04,1.96.39,3.89.86,5.7,1.72.78.37,1.53.79,2.14,1.41.48.49.48.56-.08.95-1.29.9-2.75,1.44-4.24,1.89-.7.21-1.41.37-2.11.56-.22.06-.39.08-.52-.18-.69-1.29-1.59-2.4-2.82-3.22-.02-.01-.02-.06-.06-.16Z"/>
    <path class="cls-1" d="M103.87,73.32c.01.46-.33.86-.86.96-2.75.55-5.49,1.09-8.24,1.64-4.4.87-8.8,1.74-13.2,2.59-2.67.52-5.35,1-8.02,1.5-.2.04-.48.13-.54-.15-.06-.31.25-.32.46-.37,7.31-1.77,14.63-3.54,21.94-5.31,2.39-.58,4.79-1.13,7.18-1.7.64-.15,1.25.25,1.27.84Z"/>
    <path class="cls-1" d="M105.05,77.31c-.01.51-.39.9-.97.96-2.01.23-4.02.45-6.04.67-4.15.45-8.31.89-12.46,1.34-1.21.13-2.42.24-3.62.38-.32.04-.33-.05-.27-.34.1-.49.4-.62.84-.69,4.07-.61,8.13-1.24,12.2-1.86,3.02-.47,6.05-.94,9.07-1.41.66-.1,1.27.35,1.26.95Z"/>
    <path class="cls-27" d="M72.17,99.57c2.05-.98,3.6-2.54,5.5-3.49,3.24-1.61,6.65-2.12,10.18-1.02,1.82.57,3.1,1.83,4.06,3.44.07.12.3.34.04.43-.2.07-.49.27-.7-.05-.03-.04-.05-.08-.08-.12-1.4-2.28-3.51-3.32-6.12-3.46-3.02-.16-5.81.56-8.32,2.3-.76.53-1.56,1.01-2.26,1.59-.67.56-1.36.65-2.3.38Z"/>
    <path class="cls-27" d="M71.28,93.48c-.62-.09-.98-.36-1.31-.81-1.14-1.58-2.64-2.72-4.58-3.13-1.48-.32-2.3.65-1.78,2.08.34.94.96,1.72,1.64,2.44.13.14.35.25.32.52-.15.02-.23-.09-.32-.17-1.5-1.26-2.77-2.69-3.27-4.64-.35-1.36.35-2.16,1.75-2.02,1.64.17,3.05.93,4.35,1.89,1.37,1,2.46,2.23,3.2,3.84Z"/>
    <path class="cls-30" d="M73.88,97.64c-1.01.71-2.06,1.24-3.09,1.8-.11.06-.29.03-.43.01-2.98-.37-5.89-1.05-8.69-2.17-.81-.33-1.58-.74-2.29-1.26-.24-.17-.27-.31-.08-.54.35-.46.81-.79,1.28-1.1.21-.14.28-.06.35.13,1.52,3.7,6.36,4.46,9.13,3.35,1.15-.46,2.32-.71,3.55-.31.07.02.14.06.27.11Z"/>
    <path class="cls-1" d="M68.28,88.72c2.46-.4,4.82-.68,7.19-.84.39-.03.53.11.52.48,0,.15,0,.29,0,.44-.04,1.29-.17,1.4-1.44,1.53-1.21.12-2.41.27-3.61.42-.16.02-.31.09-.45-.06-.63-.72-1.38-1.31-2.21-1.95Z"/>
    <path class="cls-26" d="M76.04,96.14c-.43.3-.79.54-1.13.8-.16.12-.29.07-.45.01-1.47-.56-2.94-.6-4.4.02-.25.11-.42.06-.59-.14-.76-.9-1.35-1.89-1.69-3.03-.11-.37,0-.43.33-.37.8.15,1.57.39,2.33.67,1.84.67,3.68,1.34,5.6,2.04Z"/>
    <path class="cls-27" d="M78.32,88.42c.03-.98-.35-1.99-.87-2.96-.46-.88-.86-1.78-.92-2.79-.05-.75.04-1.49.23-2.21.06-.24.64-.5.87-.41.14.06.07.16.05.24-.52,1.84-.15,3.54.77,5.18,1.27,2.26.91,4.53-.06,6.77-.43,1-.96,1.94-1.54,2.86-.18.29-.76.31-.95.04-.11-.16.06-.27.12-.38.68-1.12,1.33-2.26,1.78-3.5.31-.87.54-1.77.52-2.84Z"/>
    <path class="cls-27" d="M80.17,94.25c.26-.61.5-1.14.7-1.68,1.02-2.78,1.17-5.52-.39-8.19-.87-1.49-.89-3.04-.22-4.62.09-.21.8-.49.99-.39.07.03.09.09.06.16-.04.09-.07.18-.11.27-.68,1.42-.61,2.82.1,4.2.51,1,.99,2,1.15,3.13.34,2.36-.18,4.57-1.14,6.7-.2.45-.71.24-1.15.41Z"/>
    <path class="cls-27" d="M78.65,94.12c-.29.03-.22-.12-.15-.29.29-.67.61-1.32.86-2.01.59-1.61.82-3.26.42-4.96-.19-.8-.59-1.5-.96-2.22-.74-1.41-.85-2.87-.39-4.38.12-.39.57-.66.96-.56.27.07.08.24.05.34-.35.98-.46,1.98-.23,3.01.14.62.4,1.2.72,1.75,1.25,2.17,1.25,4.44.5,6.76-.22.69-.52,1.36-.85,2.01-.22.43-.45.56-.93.55Z"/>
    <path class="cls-27" d="M75.84,80.38c.22-.05.21.08.17.22-.54,1.95.03,3.71.96,5.4.84,1.54.85,3.12.25,4.74-.5,1.33-1.17,2.56-1.97,3.72-.24.35-.54.4-.9.17-.23-.15-.03-.25.03-.34.67-.96,1.22-1.99,1.68-3.06.26-.6.48-1.21.59-1.85.16-.87.06-1.7-.3-2.52-.39-.87-.86-1.7-1.13-2.63-.31-1.04-.4-2.09-.2-3.17.1-.55.26-.68.84-.69Z"/>
    <path class="cls-27" d="M74.87,99.81c2.44-1.75,4.81-3.46,7.87-3.71,1.28-.11,2.55-.15,3.82.13,1.55.35,2.74,1.21,3.63,2.49.09.13.37.35.15.47-.23.12-.57.29-.84,0-.01-.01-.02-.03-.03-.04-1.63-2.19-3.91-2.67-6.44-2.43-2.15.2-3.97,1.22-5.71,2.41-.13.09-.28.17-.39.28-.57.57-1.25.58-2.06.4Z"/>
    <path class="cls-27" d="M61.27,90.65c.05.07.1.13.13.2.82,1.84,2.12,3.27,3.7,4.48.21.16.32.32.32.59,0,.29.05.58.14.86.13.4-.05.4-.35.32-1.08-.29-2-.83-2.72-1.69-1.06-1.27-1.51-2.73-1.35-4.38.01-.12,0-.26.12-.38Z"/>
    <path class="cls-28" d="M69.04,92.7c-.23.12-.37.01-.52-.02-.87-.21-1.64-.09-2.18.72-.23.34-.39.29-.63,0-.51-.61-1.02-1.21-1.32-1.96-.13-.32-.23-.66.02-.96.26-.32.61-.24.94-.15,1.49.38,2.65,1.26,3.69,2.38Z"/>
    <path class="cls-27" d="M77.49,99.94c2.69-1.99,5.45-3.15,8.74-2.22.99.28,1.82.81,2.47,1.69-.45.18-.75.2-1.13-.18-1.15-1.16-2.62-1.39-4.17-1.26-1.54.13-2.83.89-4.08,1.7-.55.36-1.09.4-1.83.28Z"/>
    <path class="cls-1" d="M57.99,93.96c0-.39.15-.73.36-1.04.42-.61.99-1.06,1.62-1.43.19-.11.29-.11.29.15,0,.5.05,1,.18,1.49.06.21-.03.32-.2.43-.6.39-1.15.84-1.57,1.43-.11.16-.2.19-.32,0-.21-.32-.36-.65-.36-1.04Z"/>
    <path class="cls-27" d="M80.39,99.99c2.07-1.7,5.18-1.72,6.48-.35-.47.12-.9.18-1.37.03-1.12-.35-2.24-.29-3.32.14-.57.23-1.15.23-1.79.18Z"/>
    <path class="cls-29" d="M68.72,97.3c-.65.19-1.24.14-1.84.12-.09,0-.14-.05-.2-.12-.66-.79-.55-2.63.23-3.37.37,1.23.97,2.33,1.8,3.36Z"/>
    <path class="cls-30" d="M85.2,93.3c-.93.44-1.95.4-3,.6.16-.44.3-.81.43-1.18.05-.15.15-.2.3-.16.77.18,1.54.35,2.27.74Z"/>
    <path class="cls-30" d="M74.65,92.33c-.26.44-.45.76-.64,1.08-.07.13-.18.16-.33.15-.36-.02-.71-.02-1.07-.03-.11,0-.24.01-.31-.1-.1-.18-.27-.38-.26-.56.01-.2.3-.13.45-.16.66-.13,1.33-.24,2.15-.37Z"/>
    <path class="cls-30" d="M71.25,91.59c1.24-.25,2.46-.37,3.68-.43.08,0,.18-.01.18.1,0,.07-.05.17-.1.2-.1.05-.22.05-.33.07-.86.13-1.72.3-2.56.51q-.54.13-.88-.44Z"/>
    <path class="cls-20" d="M73.7,81.38c-.24.03-.48.03-.44-.21.07-.5.55-.31.85-.42.14-.05.2.02.2.17-.02.45-.31.5-.61.47Z"/>
  </g>
</svg>