<?xml version="1.0" encoding="UTF-8"?>
<svg id="Layer_4" data-name="Layer 4" xmlns="http://www.w3.org/2000/svg" xmlns:xlink="http://www.w3.org/1999/xlink" viewBox="0 0 160 160">
  <defs>
    <style>
      .cls-1 {
        fill: url(#linear-gradient-15);
      }

      .cls-2 {
        fill: url(#linear-gradient-13);
      }

      .cls-3 {
        fill: url(#linear-gradient-2);
      }

      .cls-4 {
        fill: url(#linear-gradient-10);
      }

      .cls-5 {
        fill: url(#linear-gradient-12);
      }

      .cls-6 {
        fill: none;
      }

      .cls-7 {
        fill: url(#linear-gradient-4);
      }

      .cls-8 {
        fill: url(#linear-gradient-3);
      }

      .cls-9 {
        fill: url(#linear-gradient-5);
      }

      .cls-10 {
        fill: url(#linear-gradient-8);
      }

      .cls-11 {
        fill: url(#linear-gradient-14);
      }

      .cls-12 {
        fill: url(#linear-gradient-17);
      }

      .cls-13 {
        fill: url(#linear-gradient-7);
      }

      .cls-14 {
        fill: url(#linear-gradient-9);
      }

      .cls-15 {
        fill: url(#linear-gradient-11);
      }

      .cls-16 {
        fill: url(#linear-gradient-6);
      }

      .cls-17 {
        fill: url(#linear-gradient-16);
      }

      .cls-18 {
        fill: url(#linear-gradient);
      }
    </style>
    <linearGradient id="linear-gradient" x1="80" y1="123.64" x2="80" y2="137.65" gradientUnits="userSpaceOnUse">
      <stop offset="0" stop-color="#86a700"/>
      <stop offset="1" stop-color="#00816d"/>
    </linearGradient>
    <linearGradient id="linear-gradient-2" x1="93.34" y1="57.47" x2="93.34" y2="87.24" gradientUnits="userSpaceOnUse">
      <stop offset="0" stop-color="#86a700"/>
      <stop offset="1" stop-color="#e0a151"/>
    </linearGradient>
    <linearGradient id="linear-gradient-3" x1="9.45" y1="62.67" x2="9.45" y2="78.39" xlink:href="#linear-gradient"/>
    <linearGradient id="linear-gradient-4" x1="24.17" y1="62.67" x2="24.17" y2="78.39" xlink:href="#linear-gradient"/>
    <linearGradient id="linear-gradient-5" x1="40.95" y1="62.58" x2="40.95" y2="78.53" xlink:href="#linear-gradient"/>
    <linearGradient id="linear-gradient-6" x1="18.19" y1="81.74" x2="18.19" y2="97.46" xlink:href="#linear-gradient-2"/>
    <linearGradient id="linear-gradient-7" x1="57.59" y1="81.74" x2="57.59" y2="97.46" xlink:href="#linear-gradient-2"/>
    <linearGradient id="linear-gradient-8" x1="73.99" y1="81.63" x2="73.99" y2="97.57" xlink:href="#linear-gradient-2"/>
    <linearGradient id="linear-gradient-9" x1="89.67" y1="89.08" x2="89.67" y2="104.8" xlink:href="#linear-gradient"/>
    <linearGradient id="linear-gradient-10" x1="103.86" y1="89.08" x2="103.86" y2="104.8" xlink:href="#linear-gradient"/>
    <linearGradient id="linear-gradient-11" x1="74.85" y1="49.82" x2="74.85" y2="121.49" xlink:href="#linear-gradient-2"/>
    <linearGradient id="linear-gradient-12" x1="112.87" y1="89.08" x2="112.87" y2="104.8" xlink:href="#linear-gradient"/>
    <linearGradient id="linear-gradient-13" x1="118.78" y1="89.08" x2="118.78" y2="104.8" xlink:href="#linear-gradient"/>
    <linearGradient id="linear-gradient-14" x1="114.67" y1="49.82" x2="114.67" y2="121.49" xlink:href="#linear-gradient-2"/>
    <linearGradient id="linear-gradient-15" x1="114.67" y1="89.08" x2="114.67" y2="104.8" xlink:href="#linear-gradient"/>
    <linearGradient id="linear-gradient-16" x1="133.35" y1="89.08" x2="133.35" y2="104.8" xlink:href="#linear-gradient"/>
    <linearGradient id="linear-gradient-17" x1="149.05" y1="89.08" x2="149.05" y2="104.8" xlink:href="#linear-gradient"/>
  </defs>
  <g>
    <path class="cls-18" d="M144.54,137.65H15.46c-6.64,0-12.04-5.4-12.04-12.04,0-1.08.88-1.96,1.96-1.96s1.96.88,1.96,1.96c0,4.48,3.64,8.12,8.12,8.12h129.07c4.48,0,8.12-3.64,8.12-8.12,0-1.08.88-1.96,1.96-1.96s1.96.88,1.96,1.96c0,6.64-5.4,12.04-12.04,12.04ZM154.62,51.41c-1.08,0-1.96-.88-1.96-1.96,0-4.48-3.64-8.12-8.12-8.12h-35.43c-1.08,0-1.96-.88-1.96-1.96-.02-7.1-3.6-13.09-7.83-13.09h-38.63c-4.23,0-7.81,6-7.83,13.09,0,1.08-.88,1.96-1.96,1.96h-9.56c-1.06,0-1.93-.85-1.96-1.91-.07-2.7-1.39-4.42-2.26-4.42h-15.88c-.87,0-2.19,1.72-2.26,4.42-.03,1.06-.9,1.91-1.96,1.91h-1.55c-4.48,0-8.12,3.64-8.12,8.12,0,1.08-.88,1.96-1.96,1.96s-1.96-.88-1.96-1.96c0-6.57,5.29-11.93,11.83-12.04.69-3.72,3.07-6.33,5.99-6.33h15.88c2.92,0,5.29,2.61,5.99,6.33h5.91c.67-8.58,5.56-15.05,11.67-15.05h38.63c6.11,0,11,6.47,11.67,15.05h33.55c6.64,0,12.04,5.4,12.04,12.04,0,1.08-.88,1.96-1.96,1.96Z"/>
    <path class="cls-3" d="M78.45,59.25c0-.98.8-1.78,1.78-1.78,15.43,0,27.99,12.56,27.99,27.99,0,.98-.8,1.78-1.78,1.78s-1.78-.8-1.78-1.78c0-13.47-10.96-24.42-24.42-24.42-.98,0-1.78-.8-1.78-1.78Z"/>
  </g>
  <g>
    <g>
      <path class="cls-8" d="M3.42,74.08v-11.4h6.78c.77,0,1.48.16,2.13.48.65.32,1.21.73,1.67,1.24.46.51.83,1.09,1.1,1.75.27.66.4,1.32.4,1.98,0,.7-.13,1.37-.38,2.03-.25.66-.6,1.24-1.05,1.75-.45.51-1,.92-1.64,1.22-.64.3-1.35.45-2.11.45h-2.57v4.83h0c-2.38,0-4.32-1.93-4.32-4.32ZM7.74,69.8h2.28c.27,0,.51-.12.74-.36.23-.25.34-.68.34-1.32s-.13-1.09-.4-1.33-.53-.36-.8-.36h-2.17v3.37Z"/>
      <path class="cls-7" d="M31.12,62.67v15.72h-4.32v-6.16h-5.27v6.16h-4.32v-15.72h4.32v5.8h5.27v-5.8h4.32Z"/>
      <path class="cls-9" d="M40.91,78.53c-1.2,0-2.28-.23-3.25-.69-.97-.46-1.81-1.06-2.5-1.81-.69-.74-1.23-1.6-1.62-2.56-.38-.96-.58-1.95-.58-2.97s.2-2.03.6-2.99c.4-.96.96-1.81,1.67-2.54.72-.73,1.56-1.31,2.55-1.75.98-.44,2.06-.65,3.22-.65s2.28.23,3.25.69c.97.46,1.81,1.06,2.5,1.82.69.75,1.23,1.61,1.6,2.57.38.96.56,1.94.56,2.95s-.2,2.03-.6,2.98c-.4.95-.95,1.79-1.66,2.52-.71.73-1.55,1.32-2.54,1.76s-2.06.67-3.22.67ZM37.35,70.55c0,.53.07,1.05.22,1.54.15.5.37.93.67,1.32.29.38.67.69,1.12.93.45.24.98.36,1.61.36s1.16-.12,1.62-.37c.46-.24.83-.56,1.12-.95.29-.39.5-.84.64-1.34.14-.5.21-1.01.21-1.53s-.07-1.04-.22-1.54c-.15-.49-.37-.93-.67-1.31-.3-.37-.68-.68-1.13-.91s-.98-.34-1.58-.34-1.16.12-1.61.36-.82.55-1.12.94-.51.83-.65,1.33c-.14.5-.21,1-.21,1.52Z"/>
    </g>
    <g>
      <path class="cls-16" d="M11.59,81.74h0c2.93,0,5.54,1.85,6.51,4.62l.08.23.08-.24c.98-2.76,3.6-4.61,6.53-4.61h0l-3.2,7.51,1.39,3.28,2.09-5.38c1.26-3.26,4.4-5.4,7.89-5.4h0l-5.67,11.74c-1.18,2.44-3.65,3.99-6.35,3.99h0l-2.76-5.62-2.73,5.62h0c-2.71,0-5.18-1.55-6.35-3.99l-5.67-11.74h0c3.48,0,6.6,2.13,7.86,5.37l2.11,5.41,1.34-3.28-3.14-7.51Z"/>
      <path class="cls-13" d="M54.91,89.73v7.73h-4.32v-15.72h3.37l6.31,7.99v-7.99h4.32v15.72h-3.43l-6.25-7.73Z"/>
      <path class="cls-10" d="M77.96,96.16c-1.12.94-2.41,1.42-3.87,1.42-1.02,0-1.99-.18-2.92-.54-.93-.36-1.74-.89-2.44-1.58s-1.25-1.54-1.66-2.55c-.41-1.01-.62-2.15-.62-3.43,0-1.11.21-2.14.62-3.09.41-.95.98-1.78,1.7-2.48.72-.7,1.58-1.25,2.56-1.66.98-.41,2.04-.61,3.18-.61.71,0,1.39.08,2.04.23.65.15,1.25.38,1.8.69.56.3,1.05.66,1.5,1.08s.8.9,1.08,1.43l-3.21,2.46c-.31-.62-.77-1.12-1.39-1.49-.62-.38-1.28-.56-1.97-.56-.52,0-.99.1-1.42.31-.43.21-.8.49-1.11.86-.31.37-.56.81-.73,1.32-.18.51-.26,1.07-.26,1.67s.09,1.18.26,1.68.42.93.74,1.3c.32.36.7.64,1.14.84.44.2.94.3,1.48.3,1.25,0,2.36-.52,3.32-1.55h-2.72c0-1.71,1.39-3.1,3.1-3.1h3.37s0,4.8,0,4.8c0,1.97-1.6,3.57-3.57,3.57h0v-1.31Z"/>
    </g>
    <g>
      <path class="cls-14" d="M82.88,104.8v-15.72h7.22c.77,0,1.48.16,2.13.48.65.32,1.21.73,1.67,1.24.46.51.83,1.09,1.1,1.75.27.66.4,1.32.4,1.98,0,.92-.2,1.77-.6,2.56-.4.79-.95,1.44-1.66,1.94l3.32,5.78h-4.87l-2.77-4.83h-1.62v4.83h-4.32ZM87.2,96.21h2.72c.27,0,.51-.15.74-.44s.34-.71.34-1.24-.13-.96-.4-1.25c-.26-.29-.53-.43-.8-.43h-2.61v3.37Z"/>
      <path class="cls-4" d="M101.9,89.08h3.94l5.45,15.72h-4.38l-.95-3.08h-4.18l-.93,3.08h-4.41l5.47-15.72ZM105.27,98.84l-1.39-4.87-1.46,4.87h2.86Z"/>
      <g>
        <path class="cls-6" d="M80.73,53.38c-17.97,0-32.59,14.48-32.59,32.27,0,.35.16,2.98.17,2.99l.3,2.45c2.62,15.21,16.02,26.83,32.11,26.83s28.73-10.97,31.87-25.54v-3.3h.53c.12-1.13.18-2.27.18-3.42,0-17.79-14.62-32.27-32.59-32.27Z"/>
        <path class="cls-6" d="M119.09,92.84h-2.17v3.37h2.28c.27,0,.51-.12.74-.37s.34-.68.34-1.32-.13-1.09-.4-1.33c-.26-.24-.53-.35-.8-.35Z"/>
        <path class="cls-6" d="M43.47,86.73c-.3-.38-.68-.68-1.13-.91-.45-.23-.98-.34-1.58-.34s-1.16.12-1.61.36c-.45.24-.82.55-1.12.94-.3.39-.51.83-.65,1.33-.14.49-.21,1-.21,1.52s.07,1.04.22,1.54c.15.5.37.93.67,1.32.29.38.67.69,1.12.93.45.24.98.36,1.61.36s1.16-.12,1.62-.37c.46-.24.83-.56,1.12-.95.29-.39.5-.84.64-1.34.14-.5.21-1.01.21-1.53s-.07-1.04-.22-1.54-.37-.93-.67-1.31Z"/>
        <path class="cls-15" d="M112.6,92.38c-3.13,14.57-16.23,25.54-31.87,25.54s-29.49-11.62-32.11-26.83l-.3-2.45s-.17-2.65-.17-2.99c0-17.79,14.62-32.27,32.59-32.27s32.59,14.48,32.59,32.27c0,1.16-.06,2.3-.18,3.42h3.62c.11-1.13.17-2.27.17-3.42,0-19.76-16.23-35.83-36.19-35.83s-34.52,14.49-36.05,32.87c-.2-.12-.38-.25-.6-.35-.97-.46-2.06-.69-3.25-.69s-2.24.22-3.22.65c-.98.44-1.83,1.02-2.55,1.75-.72.73-1.27,1.58-1.67,2.54-.4.96-.6,1.96-.6,2.99s.19,2.01.58,2.97c.38.96.92,1.81,1.62,2.56.69.75,1.53,1.35,2.5,1.81.97.46,2.06.69,3.25.69s2.24-.22,3.22-.67c.76-.34,1.42-.8,2.02-1.32,4.37,14.93,18.29,25.88,34.75,25.88,13.99,0,26.15-7.91,32.17-19.45-.19-.48-.3-1-.3-1.55v-8.1ZM44.16,91.11c-.14.5-.35.95-.64,1.34-.29.39-.66.71-1.12.95-.46.24-1,.37-1.62.37s-1.16-.12-1.61-.36c-.45-.24-.82-.55-1.12-.93-.3-.38-.52-.82-.67-1.32-.15-.5-.22-1.01-.22-1.54s.07-1.02.21-1.52c.14-.49.36-.94.65-1.33.3-.39.67-.7,1.12-.94.45-.24.99-.36,1.61-.36s1.13.11,1.58.34c.45.23.83.53,1.13.91.3.38.53.81.67,1.31s.22,1.01.22,1.54-.07,1.03-.21,1.53Z"/>
        <path class="cls-5" d="M112.6,92.38c.23-1.08.41-2.19.53-3.3"/>
        <path class="cls-2" d="M124.27,92.54c-.26-.66-.63-1.24-1.1-1.75-.46-.51-1.02-.92-1.67-1.24-.65-.32-1.36-.48-2.12-.48h-2.63c-.45,4.63-1.79,9.01-3.85,12.96.62,1.62,2.18,2.77,4.02,2.77v-4.83h2.57c.77,0,1.47-.15,2.12-.45.64-.3,1.19-.71,1.64-1.22.45-.51.8-1.09,1.05-1.75.25-.66.38-1.33.38-2.03s-.13-1.33-.4-1.98ZM119.94,95.84c-.23.24-.48.37-.74.37h-2.28v-3.37h2.17c.26,0,.53.12.8.35.27.24.4.68.4,1.33s-.12,1.07-.34,1.32Z"/>
        <path class="cls-11" d="M113.13,89.08c-.12,1.12-.3,2.22-.53,3.3v8.1c0,.55.11,1.07.3,1.55,2.06-3.95,3.4-8.33,3.85-12.96h-3.62Z"/>
        <path class="cls-1" d="M113.13,89.08c-.12,1.12-.3,2.22-.53,3.3v8.1c0,.55.11,1.07.3,1.55,2.06-3.95,3.4-8.33,3.85-12.96h-3.62Z"/>
      </g>
      <path class="cls-17" d="M140.3,89.08v15.72h-4.32v-6.16h-5.27v6.16h-4.32v-15.72h4.32v5.8h5.27v-5.8h4.32Z"/>
      <path class="cls-12" d="M147.98,93.39l1.03,2.48,1.05-2.48c1.11-2.62,3.68-4.32,6.52-4.32h0l-5.42,10.52v5.2h-4.3v-5.25l-5.34-10.47h0c2.83,0,5.38,1.7,6.46,4.32Z"/>
    </g>
  </g>
</svg>