<?xml version="1.0" encoding="UTF-8"?>
<svg id="Layer_3" data-name="Layer 3" xmlns="http://www.w3.org/2000/svg" xmlns:xlink="http://www.w3.org/1999/xlink" viewBox="0 0 160 90">
  <defs>
    <style>
      .cls-1 {
        fill: url(#radial-gradient-7);
      }

      .cls-1, .cls-2, .cls-3, .cls-4, .cls-5, .cls-6, .cls-7, .cls-8, .cls-9 {
        stroke-miterlimit: 10;
        stroke-width: .25px;
      }

      .cls-1, .cls-4, .cls-5, .cls-8 {
        stroke: #fff;
      }

      .cls-2 {
        fill: url(#radial-gradient-4);
      }

      .cls-2, .cls-3, .cls-6, .cls-9 {
        stroke: #4e6372;
      }

      .cls-3 {
        fill: url(#radial-gradient-3);
      }

      .cls-10 {
        fill: #aec8c4;
      }

      .cls-10, .cls-11, .cls-12, .cls-7 {
        isolation: isolate;
      }

      .cls-10, .cls-12, .cls-7 {
        font-family: AcierBATText-Gris, 'Acier BAT';
        font-size: 61.82px;
      }

      .cls-4 {
        fill: url(#radial-gradient-6);
      }

      .cls-5 {
        fill: url(#radial-gradient-8);
      }

      .cls-6 {
        fill: url(#radial-gradient-2);
      }

      .cls-12 {
        fill: #8c9795;
      }

      .cls-7 {
        fill: none;
        stroke: #51736e;
      }

      .cls-8 {
        fill: url(#radial-gradient-5);
      }

      .cls-9 {
        fill: url(#radial-gradient);
      }
    </style>
    <radialGradient id="radial-gradient" cx="23.75" cy="66.14" fx="23.75" fy="66.14" r="18.26" gradientTransform="translate(-1.86 -3.48) rotate(-1.73)" gradientUnits="userSpaceOnUse">
      <stop offset="0" stop-color="#aec8c4"/>
      <stop offset="1" stop-color="#46546d"/>
    </radialGradient>
    <radialGradient id="radial-gradient-2" cx="49.29" cy="74.86" fx="49.29" fy="74.86" r="9.63" gradientTransform="translate(10.89 -14.03) rotate(9.01)" xlink:href="#radial-gradient"/>
    <radialGradient id="radial-gradient-3" cx="62.36" cy="68.53" fx="62.36" fy="68.53" r="11.72" gradientTransform="translate(10.89 -14.03) rotate(9.01)" xlink:href="#radial-gradient"/>
    <radialGradient id="radial-gradient-4" cx="71.59" cy="65.29" fx="71.59" fy="65.29" r="12.87" gradientTransform="translate(10.89 -14.03) rotate(9.01)" xlink:href="#radial-gradient"/>
    <radialGradient id="radial-gradient-5" cx="24.3" cy="66.3" fx="24.3" fy="66.3" r="18.26" gradientTransform="translate(.13 -70.54) scale(1 2)" gradientUnits="userSpaceOnUse">
      <stop offset="0" stop-color="#00001b"/>
      <stop offset="1" stop-color="#cc001b"/>
    </radialGradient>
    <radialGradient id="radial-gradient-6" cx="49.86" cy="74.92" fx="49.86" fy="74.92" r="9.63" gradientTransform="translate(-1.46 -82.07) scale(1 2)" xlink:href="#radial-gradient-5"/>
    <radialGradient id="radial-gradient-7" cx="62.92" cy="68.59" fx="62.92" fy="68.59" r="11.72" gradientTransform="translate(-.63 -73.61) scale(1 2)" xlink:href="#radial-gradient-5"/>
    <radialGradient id="radial-gradient-8" cx="72.16" cy="65.35" fx="72.16" fy="65.35" r="12.87" gradientTransform="translate(-.24 -68.88) scale(1 2)" xlink:href="#radial-gradient-5"/>
  </defs>
  <g class="cls-11">
    <text class="cls-12" transform="translate(3.6 59.6)"><tspan x="0" y="0">NEØN</tspan></text>
  </g>
  <g class="cls-11">
    <text class="cls-10" transform="translate(2.29 58.28)"><tspan x="0" y="0">NEØN</tspan></text>
    <text class="cls-7" transform="translate(2.29 58.28)"><tspan x="0" y="0">NEØN</tspan></text>
  </g>
  <g>
    <path class="cls-9" d="M30.55,48.7c.68-.71,1.67-2.99,2.21-4.89l.18.16c.03.38.07,1.54,1.2,2.37.4.31,2.77,1.77,4.33,1.31,2.51-.75,3.11-2.36,3.26-2.78l.34.47c-.26.63-2.18,3.1-2.68,5.23-.28,1.02-.12,2.78.94,3.01l-.12.12c-1.18-.1-2.4-1.6-1.8-3.94-.6.41-1.23.63-2,.64-.18,2.26-1.98,21.24-2.12,22.72,1.43,1.6,2.96,1.73,2.96,1.73l-.19.28s-.89-.11-1.38,1.34c-.18.57-.44,1.68.44,2.67l-.14.27c-.54-.28-1.32-1.04-2.03-1.91-.63-.75-1.78-1.87-2.8-1.18l-.28-.19s.65-.86-.38-2.39l-5-8.29s-.69-.78-1.66-.59c.65-.86.23-1.74.23-1.74l-2.6-4.27c-2.01-3.03-5.26-2.82-8.28-2.21-4.14.83-7.93,4.59-6.84,10.27,1.06,5.54,6.58,6.28,9.04,5.78,2-.4,6.44-2.4,5.45-7.33-1.1-5.49-5.99-4.07-6.11-3.95.18.16.6.8.73,1.26l-.04.06c-1.21-.73-2.93-.14-3.37.09l-.06-.04c1.08-1.86,2.76-2.15,3.09-2.21.37-.07,5.36-1.02,6.48,4.6,1.05,5.25-3.47,7.8-5.98,8.31-2.7.54-8.78-.13-10.06-6.5-1.33-6.65,3.01-11.05,7.25-12.34,2.87-.86,4.8-.91,6.31-.83.98.05.62-.75.42-1.05-.79-1.05-1.94-.73-2.03-.71l-.11-.07c.53-1.94.33-4.13.18-4.87l.33-.31,9.65,15.58s.66.88,1.67.63c-.6.84-.23,1.74-.23,1.74l4.26,7.03,2.18-21.48c-1.79-.22-3.53-1.18-4.24-1.62-.06-.04-.16-.07-.32.11l-.31-.08Z"/>
    <path class="cls-6" d="M50.55,64.46c-.01-1.04,1.73-2.39,2.67-3.11l-.1-.19s-1.7,1.06-2.41,1.07c-1.71.02-2.59-2.3-4.15-2.28l.14,13.75s.85-.06,1.66.41c.86.47,1.58,1.6,2.2,1.59.99-.82,2.22-1.25,2.45-1.83v-.1c-.24-.04-.52-.14-.76-.23l-.05-.14c1-.11,1.37-.73,1.6-1.63l.1.09c.39.94.16,1.75-.21,2.33-.33.52-1.97,1.63-2.26,1.87-.71.58-1.6,1.63-1.48,3.38l-.19.29c-1.91-1.45-3.98-4.18-6.3-4.16-.47,0-.85-.04-1.28.25l-.19-.23s1.46-.92,1.45-2.43l-.04-3.84s-.34-1.04-1.29-1.36c.94-.39,1.27-1.44,1.27-1.44l-.05-5.22s.04-1.14-1.15-1.36l-.15-.33c.71,0,3.04.02,4.41-.52,1.42-.54,2.54-1.69,2.53-3.06h.33c.01,1.32.26,1.99,1.69,3.11.91.7,1.96,1.12,2.86,1.11.9,0,1.51-.44,1.51-.44l.29.33s-1.89,1.06-1.87,2.96l.03,3.18c-1.89.59-4.34,1.89-6.17,3.95v-1.09c.69-.81,1.87-1.73,2.95-2.35l-.02-2.32Z"/>
    <path class="cls-3" d="M64.3,50.8c-1.47.01-2.64,1.31-2.62,3.11h-.33c-.02-1.8-1.12-3.07-2.69-3.05v-.33c1.47-.02,2.64-1.31,2.62-3.11h.33c.02,1.8,1.12,3.07,2.69,3.05v.33ZM59.9,61.14s.08-1.14-1.1-1.36l-.15-.33c1.71-.11,2.73-2.26,2.72-3.54h.33c.01,1.28,1.22,3.4,3.17,3.47l-.19.33s-1.47.01-1.41,1.39l.05,5.22s.3,1.04,1.25,1.41c-.95.34-1.22,1.39-1.22,1.39l.04,3.84c.02,1.52,1.59,2.4,1.59,2.4l-.24.24s-.86-.28-1.6,1.06c-.28.52-.55,1.57.12,2.7l-.19.24c-.48-.37-1.1-1.27-1.64-2.26-.48-.85-1.35-2.17-2.48-1.68l-.24-.23s1.41-.92,1.3-2.43l-.04-3.84s-.3-1.04-1.25-1.36c.94-.39,1.22-1.44,1.22-1.44l-.05-5.22Z"/>
    <path class="cls-2" d="M69.42,50.47s.04-1.14-1.15-1.36l-.15-.33c.71,0,1.8-.11,2.6-.45,1.23-.53,1.26-1.58,1.26-2.15l-.1-.05-.71.43-.14-.05c.56-.76.36-1.81-.17-2.51l.14-.05c.95.42,1.34,1.12,1.49,1.74.3,1.28.21,2.37.18,3.7l.09,8.87s.15,1.04,1.11,1.41c-.95.34-1.08,1.34-1.08,1.34l.05,5.22s.3,1.04,1.29,1.41c-.99.34-1.27,1.39-1.27,1.39l.04,3.84c.02,1.52,1.59,2.4,1.59,2.4l-.24.24s-.86-.28-1.6,1.06c-.28.52-.55,1.57.12,2.7l-.19.24c-.48-.37-1.1-1.27-1.64-2.26-.48-.85-1.35-2.17-2.48-1.68l-.24-.23s1.41-.92,1.4-2.43l-.04-3.84s-.3-1.04-1.25-1.36c.94-.39,1.22-1.44,1.22-1.44l-.05-5.22s-.15-1.04-1.1-1.36c.94-.39,1.08-1.39,1.08-1.39l-.08-7.82Z"/>
  </g>
  <g>
    <path class="cls-8" d="M31.1,48.84c.68-.71,1.67-2.99,2.21-4.89l.18.16c.03.38.07,1.54,1.2,2.37.4.31,2.77,1.77,4.33,1.31,2.51-.75,3.11-2.36,3.26-2.78l.34.47c-.26.63-2.18,3.1-2.68,5.23-.28,1.02-.12,2.78.94,3.01l-.12.12c-1.18-.1-2.4-1.6-1.8-3.94-.6.41-1.23.63-2,.64-.18,2.26-1.98,21.24-2.12,22.72,1.43,1.6,2.96,1.73,2.96,1.73l-.19.28s-.89-.11-1.38,1.34c-.18.57-.44,1.68.44,2.67l-.14.27c-.54-.28-1.32-1.04-2.03-1.91-.63-.75-1.78-1.87-2.8-1.18l-.28-.19s.65-.86-.38-2.39l-5-8.29s-.69-.78-1.66-.59c.65-.86.23-1.74.23-1.74l-2.6-4.27c-2.01-3.03-5.26-2.82-8.28-2.21-4.14.83-7.93,4.59-6.84,10.27,1.06,5.54,6.58,6.28,9.04,5.78,2-.4,6.44-2.4,5.45-7.33-1.1-5.49-5.99-4.07-6.11-3.95.18.16.6.8.73,1.26l-.04.06c-1.21-.73-2.93-.14-3.37.09l-.06-.04c1.08-1.86,2.76-2.15,3.09-2.21.37-.07,5.36-1.02,6.48,4.6,1.05,5.25-3.47,7.8-5.98,8.31-2.7.54-8.78-.13-10.06-6.5-1.33-6.65,3.01-11.05,7.25-12.34,2.87-.86,4.8-.91,6.31-.83.98.05.62-.75.42-1.05-.79-1.05-1.94-.73-2.03-.71l-.11-.07c.53-1.94.33-4.13.18-4.87l.33-.31,9.65,15.58s.66.88,1.67.63c-.6.84-.23,1.74-.23,1.74l4.26,7.03,2.18-21.48c-1.79-.22-3.53-1.18-4.24-1.62-.06-.04-.16-.07-.32.11l-.31-.08Z"/>
    <path class="cls-4" d="M51.1,64.61c-.01-1.04,1.73-2.39,2.67-3.11l-.1-.19s-1.7,1.06-2.41,1.07c-1.71.02-2.59-2.3-4.15-2.28l.14,13.75s.85-.06,1.66.41c.86.47,1.58,1.6,2.2,1.59.99-.82,2.22-1.25,2.45-1.83v-.1c-.24-.04-.52-.14-.76-.23l-.05-.14c1-.11,1.37-.73,1.6-1.63l.1.09c.39.94.16,1.75-.21,2.33-.33.52-1.97,1.63-2.26,1.87-.71.58-1.6,1.63-1.48,3.38l-.19.29c-1.91-1.45-3.98-4.18-6.3-4.16-.47,0-.85-.04-1.28.25l-.19-.23s1.46-.92,1.45-2.43l-.04-3.84s-.34-1.04-1.29-1.36c.94-.39,1.27-1.44,1.27-1.44l-.05-5.22s.04-1.14-1.15-1.36l-.15-.33c.71,0,3.04.02,4.41-.52,1.42-.54,2.54-1.69,2.53-3.06h.33c.01,1.32.26,1.99,1.69,3.11.91.7,1.96,1.12,2.86,1.11.9,0,1.51-.44,1.51-.44l.29.33s-1.89,1.06-1.87,2.96l.03,3.18c-1.89.59-4.34,1.89-6.17,3.95v-1.09c.69-.81,1.87-1.73,2.95-2.35l-.02-2.32Z"/>
    <path class="cls-1" d="M64.85,50.95c-1.47.01-2.64,1.31-2.62,3.11h-.33c-.02-1.8-1.12-3.07-2.69-3.05v-.33c1.47-.02,2.64-1.31,2.62-3.11h.33c.02,1.8,1.12,3.07,2.69,3.05v.33ZM60.45,61.29s.08-1.14-1.1-1.36l-.15-.33c1.71-.11,2.73-2.26,2.72-3.54h.33c.01,1.28,1.22,3.4,3.17,3.47l-.19.33s-1.47.01-1.41,1.39l.05,5.22s.3,1.04,1.25,1.41c-.95.34-1.22,1.39-1.22,1.39l.04,3.84c.02,1.52,1.59,2.4,1.59,2.4l-.24.24s-.86-.28-1.6,1.06c-.28.52-.55,1.57.12,2.7l-.19.24c-.48-.37-1.1-1.27-1.64-2.26-.48-.85-1.35-2.17-2.48-1.68l-.24-.23s1.41-.92,1.3-2.43l-.04-3.84s-.3-1.04-1.25-1.36c.94-.39,1.22-1.44,1.22-1.44l-.05-5.22Z"/>
    <path class="cls-5" d="M69.97,50.61s.04-1.14-1.15-1.36l-.15-.33c.71,0,1.8-.11,2.6-.45,1.23-.53,1.26-1.58,1.26-2.15l-.1-.05-.71.43-.14-.05c.56-.76.36-1.81-.17-2.51l.14-.05c.95.42,1.34,1.12,1.49,1.74.3,1.28.21,2.37.18,3.7l.09,8.87s.15,1.04,1.11,1.41c-.95.34-1.08,1.34-1.08,1.34l.05,5.22s.3,1.04,1.29,1.41c-.99.34-1.27,1.39-1.27,1.39l.04,3.84c.02,1.52,1.59,2.4,1.59,2.4l-.24.24s-.86-.28-1.6,1.06c-.28.52-.55,1.57.12,2.7l-.19.24c-.48-.37-1.1-1.27-1.64-2.26-.48-.85-1.35-2.17-2.48-1.68l-.24-.23s1.41-.92,1.4-2.43l-.04-3.84s-.3-1.04-1.25-1.36c.94-.39,1.22-1.44,1.22-1.44l-.05-5.22s-.15-1.04-1.1-1.36c.94-.39,1.08-1.39,1.08-1.39l-.08-7.82Z"/>
  </g>
</svg>