<?xml version="1.0" encoding="UTF-8"?>
<svg id="Layer_3" data-name="Layer 3" xmlns="http://www.w3.org/2000/svg" viewBox="0 0 160 90">
  <defs>
    <style>
      .cls-1 {
        isolation: isolate;
      }

      .cls-2 {
        fill: #fff;
        stroke: #000;
        stroke-miterlimit: 10;
        stroke-width: .25px;
      }
    </style>
  </defs>
  <g class="cls-1">
    <path class="cls-2" d="M5.25,21.2h9.58l14.4,22.01v-22.01h9.02v37.09h-9.46l-14.46-22v22H5.25V21.2ZM12.05,56.55v-26.15h.93l17.25,26.15h5.75V22.93h-4.45v25.84h-1.11L13.41,22.93h-5.87v33.63h4.51ZM9.15,23.61h3.89l.25.31h-3.96l-.19-.31ZM10.01,24.84h3.83l.25.31h-3.89l-.19-.31ZM10.82,26.08h3.83l.25.31h-3.89l-.19-.31ZM11.68,27.32h3.77l.25.31h-3.83l-.19-.31ZM12.49,28.55h3.77l.25.31h-3.83l-.19-.31ZM13.35,29.79h3.71l.25.31h-3.77l-.19-.31ZM14.16,31.02h3.77l.25.31h-3.83l-.19-.31ZM14.96,32.26h3.77l.25.31h-3.83l-.19-.31ZM15.82,33.5h3.71l.25.31h-3.77l-.19-.31ZM16.63,34.73h3.71l.25.31h-3.77l-.19-.31ZM17.43,35.97h3.71l.25.31h-3.77l-.19-.31ZM18.23,37.21h3.77l.25.31h-3.83l-.19-.31ZM19.04,38.44h3.77l.25.31h-3.83l-.19-.31ZM19.84,39.68h3.77l.25.31h-3.83l-.19-.31ZM20.71,40.91h3.71l.25.31h-3.77l-.19-.31ZM21.51,42.15h3.71l.25.31h-3.77l-.19-.31ZM22.31,43.39h3.71l.25.31h-3.77l-.19-.31ZM23.12,44.62h3.77l.25.31h-3.83l-.19-.31ZM27.69,45.86l.25.31h-3.83l-.19-.31h3.77ZM28.5,47.1l.25.31h-3.77l-.19-.31h3.71ZM29.3,48.33l.25.31h-3.77l-.19-.31h3.71ZM30.23,49.57l.25.31h-3.89l-.19-.31h3.83ZM31.09,50.8l.31.31h-4.02l-.19-.31h3.89ZM32.02,52.04l.31.31h-4.14l-.19-.31h4.02ZM32.95,53.28l.25.31h-4.2l-.19-.31h4.14ZM33.87,54.51l.31.31h-4.33l-.19-.31h4.2ZM34.74,55.63l.31.31h-4.51l-.19-.31h4.39Z"/>
    <path class="cls-2" d="M44.2,21.2h24.54v8.04h-15.45v6.68h14.28v7.91h-14.28v6.68h16.13v7.79h-25.22V21.2ZM67.13,56.55v-4.33h-16.13v-10.14h14.28v-4.45h-14.28v-10.14h15.45v-4.57h-19.97v33.63h20.65ZM47.6,55.5h18.92v.31h-19.22l.31-.31ZM47.35,23.79h18.48v.31h-18.17l-.31-.31ZM48.59,25.03h17.25v.31h-16.94l-.31-.31ZM48.9,54.27h17.62v.31h-17.93l.31-.31ZM49.82,26.26h16.01v.31h-15.7l-.31-.31ZM50.2,53.03h16.32v.31h-16.69l.37-.31ZM51,38.44h13.66v.31h-13.66v-.31ZM51,39.68h13.66v.31h-13.66v-.31ZM51,40.91h13.66v.31h-13.66v-.31Z"/>
    <path class="cls-2" d="M78.45,52.23c-2.72-3.4-4.27-7.66-4.27-12.49,0-11.06,8.35-19.78,20.09-19.78,3.77,0,7.17.93,10.08,2.53l1.11-1.3h9.89l-5.32,6.12c2.72,3.34,4.26,7.66,4.26,12.42,0,11.06-8.34,19.78-20.03,19.78-3.77,0-7.17-.93-10.08-2.47l-1.05,1.24h-9.95l5.25-6.06ZM81.91,56.55l1.79-2.1c2.91,2.22,6.74,3.34,10.57,3.34,10.26,0,17.74-7.97,17.74-18.05,0-4.57-1.73-9.33-4.7-12.42l3.83-4.39h-4.51l-1.85,2.1c-2.47-1.98-6.55-3.34-10.51-3.34-10.32,0-17.8,7.97-17.8,18.05,0,5.13,1.92,9.33,4.7,12.49l-3.77,4.33h4.51ZM77.15,38.38h3.34l-.06.31h-3.34l.06-.31ZM77.09,39.62h3.34v.31h-3.34v-.31ZM77.09,40.85h3.34l.06.31h-3.34l-.06-.31ZM77.27,37.14h3.4l-.12.31h-3.34l.06-.31ZM77.21,42.09h3.34l.12.31h-3.4l-.06-.31ZM77.46,35.91h3.46l-.12.31h-3.4l.06-.31ZM77.4,43.33h3.4l.12.31h-3.4l-.12-.31ZM77.77,34.67h3.52l-.12.31h-3.46l.06-.31ZM78.14,33.44h3.71l-.19.31h-3.59l.06-.31ZM78.63,32.2h3.9l-.25.31h-3.77l.12-.31ZM79.06,55.63h2.72l-.19.25h-2.78l.25-.25ZM79.25,30.96h4.2l-.25.31h-4.14l.19-.31ZM80.05,54.45h2.78l-.31.31h-2.78l.31-.31ZM80.05,29.73h4.58l-.37.31h-4.45l.25-.31ZM80.92,28.49h5.19l-.43.31h-5.01l.25-.31ZM81.17,53.22h1.3l.5.31h-2.1l.31-.31ZM81.04,39.74c0-7.23,5.25-12.92,13.23-12.92,2.53,0,5.13.62,7.29,1.98l-17.25,19.78c-2.22-2.47-3.28-5.56-3.28-8.84ZM82.09,27.25h6.49l-.8.31h-6l.31-.31ZM83.52,26.02h24.11l-.31.31h-10.82l-2.23-.19-2.41.19h-8.84l.49-.31ZM98.41,29.29c-1.24-.49-2.66-.74-4.14-.74-6.61,0-10.88,4.95-10.88,11.19,0,1.98.43,3.83,1.17,5.38l13.85-15.82ZM85.31,24.78h17.8l.37.31h-18.67l.49-.31ZM87.22,49.51l-.31.31h-1.55l-.43-.31h2.29ZM85.43,48.27h2.84l-.31.31h-2.84l.31-.31ZM86.54,47.03h2.84l-.31.31h-2.84l.31-.31ZM104.16,30.96c2.16,2.29,3.28,5.56,3.28,8.78,0,7.23-5.25,12.92-13.17,12.92-2.53,0-4.88-.56-7.29-1.92l17.18-19.78ZM87.84,23.54h12.73l.8.31h-14.34l.8-.31ZM87.6,45.8h2.84l-.31.31h-2.84l.31-.31ZM88.71,44.56h2.84l-.31.31h-2.84l.31-.31ZM89.76,43.33h2.84l-.31.31h-2.84l.31-.31ZM94.27,50.93c6.55,0,10.82-4.94,10.82-11.19,0-1.92-.43-3.77-1.17-5.32l-13.72,15.82c1.24.43,2.6.68,4.08.68ZM90.87,42.09h2.84l-.31.31h-2.84l.31-.31ZM94.27,22.37l2.91.25h-6.06l3.15-.25ZM91.92,40.85h2.84l-.31.31h-2.84l.31-.31ZM93.03,39.62h2.84l-.31.31h-2.84l.31-.31ZM94.09,38.38h2.84l-.31.31h-2.84l.31-.31ZM95.2,37.14h2.78l-.25.31h-2.84l.31-.31ZM96.25,35.91h2.84l-.31.31h-2.84l.31-.31ZM97.36,34.67h2.78l-.31.31h-2.78l.31-.31ZM98.41,33.44h2.78l-.31.31h-2.78l.31-.31ZM99.46,32.2h2.78l-.31.31h-2.72l.25-.31ZM106.39,27.25l-.06-.06.37.37h-6l-.68-.31h6.37ZM100.58,30.96h2.72l-.25.31h-2.78l.31-.31ZM101.63,29.73h6.68l.25.31h-7.23l.31-.31ZM102.31,28.49h5.13l.31.31h-5.32l-.12-.31ZM109.11,30.96l.19.31h-4.02l-.31-.31h4.14ZM105.83,24.78h2.84l-.31.31h-2.84l.31-.31ZM105.89,32.2h3.83l.12.31h-3.77l-.19-.31ZM106.57,33.44h3.65l.12.31h-3.58l-.19-.31ZM106.88,23.61h2.78l-.19.25h-2.78l.19-.25ZM107.13,34.67h3.52l.12.31h-3.46l-.19-.31ZM107.5,35.91h3.46l.12.31h-3.46l-.12-.31ZM107.62,43.33h3.4l-.06.31h-3.46l.12-.31ZM107.81,37.14h3.4l.06.31h-3.4l-.06-.31ZM107.87,42.09h3.4l-.12.31h-3.34l.06-.31ZM107.99,40.85h3.34v.31h-3.4l.06-.31ZM107.99,38.38h3.34v.31h-3.34v-.31ZM108.06,39.62h3.34v.31h-3.34v-.31Z"/>
    <path class="cls-2" d="M120.42,21.2h9.58l14.4,22.01v-22.01h9.03v37.09h-9.46l-14.46-22v22h-9.09V21.2ZM127.22,56.55v-26.15h.93l17.25,26.15h5.75V22.93h-4.45v25.84h-1.11l-17-25.84h-5.87v33.63h4.51ZM124.32,23.61h3.89l.25.31h-3.96l-.19-.31ZM125.18,24.84h3.83l.25.31h-3.89l-.19-.31ZM125.99,26.08h3.83l.25.31h-3.89l-.19-.31ZM126.85,27.32h3.77l.25.31h-3.83l-.19-.31ZM127.65,28.55h3.77l.25.31h-3.83l-.19-.31ZM128.52,29.79h3.71l.25.31h-3.77l-.19-.31ZM129.32,31.02h3.77l.25.31h-3.83l-.19-.31ZM130.13,32.26h3.77l.25.31h-3.83l-.19-.31ZM130.99,33.5h3.71l.25.31h-3.77l-.19-.31ZM131.8,34.73h3.71l.25.31h-3.77l-.19-.31ZM132.6,35.97h3.71l.25.31h-3.77l-.19-.31ZM133.4,37.21h3.77l.25.31h-3.83l-.18-.31ZM134.21,38.44h3.77l.25.31h-3.83l-.19-.31ZM135.01,39.68h3.77l.25.31h-3.83l-.19-.31ZM135.88,40.91h3.71l.25.31h-3.77l-.19-.31ZM136.68,42.15h3.71l.25.31h-3.77l-.19-.31ZM137.48,43.39h3.71l.25.31h-3.77l-.19-.31ZM138.29,44.62h3.77l.25.31h-3.83l-.19-.31ZM142.86,45.86l.25.31h-3.83l-.19-.31h3.77ZM143.66,47.1l.25.31h-3.77l-.19-.31h3.71ZM144.47,48.33l.25.31h-3.77l-.19-.31h3.71ZM145.4,49.57l.25.31h-3.89l-.19-.31h3.83ZM146.26,50.8l.31.31h-4.02l-.19-.31h3.89ZM147.19,52.04l.31.31h-4.14l-.18-.31h4.02ZM148.11,53.28l.25.31h-4.2l-.19-.31h4.14ZM149.04,54.51l.31.31h-4.33l-.18-.31h4.2ZM149.91,55.63l.31.31h-4.51l-.19-.31h4.39Z"/>
  </g>
  <g>
    <path class="cls-2" d="M31.1,48.84c.68-.71,1.67-2.99,2.21-4.89l.18.16c.03.38.07,1.54,1.2,2.37.4.31,2.77,1.77,4.33,1.31,2.51-.75,3.11-2.36,3.26-2.78l.34.47c-.26.63-2.18,3.1-2.68,5.23-.28,1.02-.12,2.78.94,3.01l-.12.12c-1.18-.1-2.4-1.6-1.8-3.94-.6.41-1.23.63-2,.64-.18,2.26-1.98,21.24-2.12,22.72,1.43,1.6,2.96,1.73,2.96,1.73l-.19.28s-.89-.11-1.38,1.34c-.18.57-.44,1.68.44,2.67l-.14.27c-.54-.28-1.32-1.04-2.03-1.91-.63-.75-1.78-1.87-2.8-1.18l-.28-.19s.65-.86-.38-2.39l-5-8.29s-.69-.78-1.66-.59c.65-.86.23-1.74.23-1.74l-2.6-4.27c-2.01-3.03-5.26-2.82-8.28-2.21-4.14.83-7.93,4.59-6.84,10.27,1.06,5.54,6.58,6.28,9.04,5.78,2-.4,6.44-2.4,5.45-7.33-1.1-5.49-5.99-4.07-6.11-3.95.18.16.6.8.73,1.26l-.04.06c-1.21-.73-2.93-.14-3.37.09l-.06-.04c1.08-1.86,2.76-2.15,3.09-2.21.37-.07,5.36-1.02,6.48,4.6,1.05,5.25-3.47,7.8-5.98,8.31-2.7.54-8.78-.13-10.06-6.5-1.33-6.65,3.01-11.05,7.25-12.34,2.87-.86,4.8-.91,6.31-.83.98.05.62-.75.42-1.05-.79-1.05-1.94-.73-2.03-.71l-.11-.07c.53-1.94.33-4.13.18-4.87l.33-.31,9.65,15.58s.66.88,1.67.63c-.6.84-.23,1.74-.23,1.74l4.26,7.03,2.18-21.48c-1.79-.22-3.53-1.18-4.24-1.62-.06-.04-.16-.07-.32.11l-.31-.08Z"/>
    <path class="cls-2" d="M51.1,64.61c-.01-1.04,1.73-2.39,2.67-3.11l-.1-.19s-1.7,1.06-2.41,1.07c-1.71.02-2.59-2.3-4.15-2.28l.14,13.75s.85-.06,1.66.41c.86.47,1.58,1.6,2.2,1.59.99-.82,2.22-1.25,2.45-1.83v-.1c-.24-.04-.52-.14-.76-.23l-.05-.14c1-.11,1.37-.73,1.6-1.63l.1.09c.39.94.16,1.75-.21,2.33-.33.52-1.97,1.63-2.26,1.87-.71.58-1.6,1.63-1.48,3.38l-.19.29c-1.91-1.45-3.98-4.18-6.3-4.16-.47,0-.85-.04-1.28.25l-.19-.23s1.46-.92,1.45-2.43l-.04-3.84s-.34-1.04-1.29-1.36c.94-.39,1.27-1.44,1.27-1.44l-.05-5.22s.04-1.14-1.15-1.36l-.15-.33c.71,0,3.04.02,4.41-.52,1.42-.54,2.54-1.69,2.53-3.06h.33c.01,1.32.26,1.99,1.69,3.11.91.7,1.96,1.12,2.86,1.11.9,0,1.51-.44,1.51-.44l.29.33s-1.89,1.06-1.87,2.96l.03,3.18c-1.89.59-4.34,1.89-6.17,3.95v-1.09c.69-.81,1.87-1.73,2.95-2.35l-.02-2.32Z"/>
    <path class="cls-2" d="M64.85,50.95c-1.47.01-2.64,1.31-2.62,3.11h-.33c-.02-1.8-1.12-3.07-2.69-3.05v-.33c1.47-.02,2.64-1.31,2.62-3.11h.33c.02,1.8,1.12,3.07,2.69,3.05v.33ZM60.45,61.29s.08-1.14-1.1-1.36l-.15-.33c1.71-.11,2.73-2.26,2.72-3.54h.33c.01,1.28,1.22,3.4,3.17,3.47l-.19.33s-1.47.01-1.41,1.39l.05,5.22s.3,1.04,1.25,1.41c-.95.34-1.22,1.39-1.22,1.39l.04,3.84c.02,1.52,1.59,2.4,1.59,2.4l-.24.24s-.86-.28-1.6,1.06c-.28.52-.55,1.57.12,2.7l-.19.24c-.48-.37-1.1-1.27-1.64-2.26-.48-.85-1.35-2.17-2.48-1.68l-.24-.23s1.41-.92,1.3-2.43l-.04-3.84s-.3-1.04-1.25-1.36c.94-.39,1.22-1.44,1.22-1.44l-.05-5.22Z"/>
    <path class="cls-2" d="M69.97,50.61s.04-1.14-1.15-1.36l-.15-.33c.71,0,1.8-.11,2.6-.45,1.23-.53,1.26-1.58,1.26-2.15l-.1-.05-.71.43-.14-.05c.56-.76.36-1.81-.17-2.51l.14-.05c.95.42,1.34,1.12,1.49,1.74.3,1.28.21,2.37.18,3.7l.09,8.87s.15,1.04,1.11,1.41c-.95.34-1.08,1.34-1.08,1.34l.05,5.22s.3,1.04,1.29,1.41c-.99.34-1.27,1.39-1.27,1.39l.04,3.84c.02,1.52,1.59,2.4,1.59,2.4l-.24.24s-.86-.28-1.6,1.06c-.28.52-.55,1.57.12,2.7l-.19.24c-.48-.37-1.1-1.27-1.64-2.26-.48-.85-1.35-2.17-2.48-1.68l-.24-.23s1.41-.92,1.4-2.43l-.04-3.84s-.3-1.04-1.25-1.36c.94-.39,1.22-1.44,1.22-1.44l-.05-5.22s-.15-1.04-1.1-1.36c.94-.39,1.08-1.39,1.08-1.39l-.08-7.82Z"/>
  </g>
</svg>